%TF.GenerationSoftware,KiCad,Pcbnew,8.0.0*%
%TF.CreationDate,2025-10-26T17:29:43+03:00*%
%TF.ProjectId,SCART_Cable_Breakout,53434152-545f-4436-9162-6c655f427265,rev?*%
%TF.SameCoordinates,Original*%
%TF.FileFunction,Copper,L2,Bot*%
%TF.FilePolarity,Positive*%
%FSLAX46Y46*%
G04 Gerber Fmt 4.6, Leading zero omitted, Abs format (unit mm)*
G04 Created by KiCad (PCBNEW 8.0.0) date 2025-10-26 17:29:43*
%MOMM*%
%LPD*%
G01*
G04 APERTURE LIST*
G04 Aperture macros list*
%AMRoundRect*
0 Rectangle with rounded corners*
0 $1 Rounding radius*
0 $2 $3 $4 $5 $6 $7 $8 $9 X,Y pos of 4 corners*
0 Add a 4 corners polygon primitive as box body*
4,1,4,$2,$3,$4,$5,$6,$7,$8,$9,$2,$3,0*
0 Add four circle primitives for the rounded corners*
1,1,$1+$1,$2,$3*
1,1,$1+$1,$4,$5*
1,1,$1+$1,$6,$7*
1,1,$1+$1,$8,$9*
0 Add four rect primitives between the rounded corners*
20,1,$1+$1,$2,$3,$4,$5,0*
20,1,$1+$1,$4,$5,$6,$7,0*
20,1,$1+$1,$6,$7,$8,$9,0*
20,1,$1+$1,$8,$9,$2,$3,0*%
%AMRotRect*
0 Rectangle, with rotation*
0 The origin of the aperture is its center*
0 $1 length*
0 $2 width*
0 $3 Rotation angle, in degrees counterclockwise*
0 Add horizontal line*
21,1,$1,$2,0,0,$3*%
%AMFreePoly0*
4,1,19,0.500000,-0.750000,0.000000,-0.750000,0.000000,-0.744911,-0.071157,-0.744911,-0.207708,-0.704816,-0.327430,-0.627875,-0.420627,-0.520320,-0.479746,-0.390866,-0.500000,-0.250000,-0.500000,0.250000,-0.479746,0.390866,-0.420627,0.520320,-0.327430,0.627875,-0.207708,0.704816,-0.071157,0.744911,0.000000,0.744911,0.000000,0.750000,0.500000,0.750000,0.500000,-0.750000,0.500000,-0.750000,
$1*%
%AMFreePoly1*
4,1,19,0.000000,0.744911,0.071157,0.744911,0.207708,0.704816,0.327430,0.627875,0.420627,0.520320,0.479746,0.390866,0.500000,0.250000,0.500000,-0.250000,0.479746,-0.390866,0.420627,-0.520320,0.327430,-0.627875,0.207708,-0.704816,0.071157,-0.744911,0.000000,-0.744911,0.000000,-0.750000,-0.500000,-0.750000,-0.500000,0.750000,0.000000,0.750000,0.000000,0.744911,0.000000,0.744911,
$1*%
G04 Aperture macros list end*
%TA.AperFunction,SMDPad,CuDef*%
%ADD10R,2.000000X4.000000*%
%TD*%
%TA.AperFunction,SMDPad,CuDef*%
%ADD11RotRect,4.000000X2.500000X202.300000*%
%TD*%
%TA.AperFunction,SMDPad,CuDef*%
%ADD12FreePoly0,270.000000*%
%TD*%
%TA.AperFunction,SMDPad,CuDef*%
%ADD13FreePoly1,270.000000*%
%TD*%
%TA.AperFunction,SMDPad,CuDef*%
%ADD14FreePoly0,90.000000*%
%TD*%
%TA.AperFunction,SMDPad,CuDef*%
%ADD15FreePoly1,90.000000*%
%TD*%
%TA.AperFunction,SMDPad,CuDef*%
%ADD16RoundRect,0.250000X0.475000X-0.337500X0.475000X0.337500X-0.475000X0.337500X-0.475000X-0.337500X0*%
%TD*%
%TA.AperFunction,SMDPad,CuDef*%
%ADD17RoundRect,0.250001X-0.499999X-0.924999X0.499999X-0.924999X0.499999X0.924999X-0.499999X0.924999X0*%
%TD*%
%TA.AperFunction,SMDPad,CuDef*%
%ADD18RoundRect,0.250000X0.450000X-0.350000X0.450000X0.350000X-0.450000X0.350000X-0.450000X-0.350000X0*%
%TD*%
%TA.AperFunction,SMDPad,CuDef*%
%ADD19RoundRect,0.150000X-0.725000X-0.150000X0.725000X-0.150000X0.725000X0.150000X-0.725000X0.150000X0*%
%TD*%
%TA.AperFunction,ViaPad*%
%ADD20C,0.600000*%
%TD*%
%TA.AperFunction,Conductor*%
%ADD21C,0.500000*%
%TD*%
%TA.AperFunction,Conductor*%
%ADD22C,1.000000*%
%TD*%
G04 APERTURE END LIST*
D10*
%TO.P,J1,2,P2*%
%TO.N,/AUDIO_IN_R*%
X109600000Y-101250000D03*
%TO.P,J1,4,P4*%
%TO.N,GND*%
X105800000Y-101250000D03*
%TO.P,J1,6,P6*%
%TO.N,/AUDIO_IN_L_MONO*%
X102000000Y-101250000D03*
%TO.P,J1,8,P8*%
%TO.N,/STATUS_ASPECT*%
X98290000Y-101250000D03*
%TO.P,J1,10,P10*%
%TO.N,unconnected-(J1-P10-Pad10)*%
X94490000Y-101250000D03*
%TO.P,J1,12,P12*%
%TO.N,unconnected-(J1-P12-Pad12)*%
X90690000Y-101250000D03*
%TO.P,J1,14,P14*%
%TO.N,unconnected-(J1-P14-Pad14)*%
X86890000Y-101250000D03*
%TO.P,J1,16,P16*%
%TO.N,/BLANKING*%
X83000000Y-101250000D03*
%TO.P,J1,18,P18*%
%TO.N,GND*%
X79200000Y-101250000D03*
%TO.P,J1,20,P20*%
%TO.N,/COMPOSITE_VIDEO_IN*%
X75400000Y-101250000D03*
%TD*%
D11*
%TO.P,J2,5,Pin_5*%
%TO.N,/COMPOSITE_VIDEO_IN*%
X101741892Y-81397260D03*
%TO.P,J2,6,Pin_6*%
%TO.N,+5V*%
X102918205Y-84265409D03*
%TO.P,J2,7,Pin_7*%
%TO.N,/AUDIO_IN_L_MONO*%
X104132466Y-87226079D03*
%TO.P,J2,8,Pin_8*%
%TO.N,/AUDIO_IN_R*%
X105346724Y-90186752D03*
%TD*%
D12*
%TO.P,JP4,1,A*%
%TO.N,+5V*%
X77400000Y-95100000D03*
D13*
%TO.P,JP4,2,B*%
%TO.N,/COMPOSITE_VIDEO_IN*%
X77400000Y-96400000D03*
%TD*%
D14*
%TO.P,JP5,1,A*%
%TO.N,/STATUS_ASPECT*%
X87250000Y-90650000D03*
D15*
%TO.P,JP5,2,B*%
%TO.N,+5V*%
X87250000Y-89350000D03*
%TD*%
D16*
%TO.P,C5,1*%
%TO.N,Net-(U1-C2-)*%
X83500000Y-93537500D03*
%TO.P,C5,2*%
%TO.N,Net-(U1-C2+)*%
X83500000Y-91462500D03*
%TD*%
D17*
%TO.P,C7,1*%
%TO.N,+5V*%
X95575000Y-89000000D03*
%TO.P,C7,2*%
%TO.N,GND*%
X98825000Y-89000000D03*
%TD*%
D16*
%TO.P,C4,1*%
%TO.N,Net-(U1-C1-)*%
X83500000Y-97537500D03*
%TO.P,C4,2*%
%TO.N,Net-(U1-C1+)*%
X83500000Y-95462500D03*
%TD*%
%TO.P,C6,1*%
%TO.N,/STATUS_ASPECT*%
X91250000Y-91037500D03*
%TO.P,C6,2*%
%TO.N,+5V*%
X91250000Y-88962500D03*
%TD*%
D18*
%TO.P,R1,1*%
%TO.N,/BLANKING*%
X80100000Y-96750000D03*
%TO.P,R1,2*%
%TO.N,+5V*%
X80100000Y-94750000D03*
%TD*%
D17*
%TO.P,C8,1*%
%TO.N,/STATUS_ASPECT*%
X97675000Y-95250000D03*
%TO.P,C8,2*%
%TO.N,GND*%
X100925000Y-95250000D03*
%TD*%
D19*
%TO.P,U1,1,C1-*%
%TO.N,Net-(U1-C1-)*%
X87925000Y-96905000D03*
%TO.P,U1,2,C1+*%
%TO.N,Net-(U1-C1+)*%
X87925000Y-95635000D03*
%TO.P,U1,3,C2-*%
%TO.N,Net-(U1-C2-)*%
X87925000Y-94365000D03*
%TO.P,U1,4,C2+*%
%TO.N,Net-(U1-C2+)*%
X87925000Y-93095000D03*
%TO.P,U1,5,VCC*%
%TO.N,+5V*%
X93075000Y-93095000D03*
%TO.P,U1,6,VOUT*%
%TO.N,/STATUS_ASPECT*%
X93075000Y-94365000D03*
%TO.P,U1,7,GND*%
%TO.N,GND*%
X93075000Y-95635000D03*
%TO.P,U1,8,SHDN*%
X93075000Y-96905000D03*
%TD*%
D20*
%TO.N,GND*%
X78606497Y-98200000D03*
X100500000Y-97900000D03*
X100400000Y-92000000D03*
X77000000Y-98200000D03*
X87800000Y-98550000D03*
X105800000Y-94900000D03*
X95400000Y-98550000D03*
X105800000Y-97600000D03*
%TD*%
D21*
%TO.N,Net-(U1-C1+)*%
X85235000Y-95635000D02*
X85062500Y-95462500D01*
X85062500Y-95462500D02*
X83500000Y-95462500D01*
X87925000Y-95635000D02*
X85235000Y-95635000D01*
%TO.N,Net-(U1-C1-)*%
X87925000Y-96905000D02*
X85695000Y-96905000D01*
X85695000Y-96905000D02*
X85062500Y-97537500D01*
X85062500Y-97537500D02*
X83500000Y-97537500D01*
%TO.N,Net-(U1-C2+)*%
X85212500Y-91462500D02*
X83500000Y-91462500D01*
X87925000Y-93095000D02*
X86845000Y-93095000D01*
X86845000Y-93095000D02*
X85212500Y-91462500D01*
%TO.N,Net-(U1-C2-)*%
X87925000Y-94365000D02*
X86115000Y-94365000D01*
X85287500Y-93537500D02*
X83500000Y-93537500D01*
X86115000Y-94365000D02*
X85287500Y-93537500D01*
%TO.N,+5V*%
X95575000Y-87225000D02*
X95575000Y-89000000D01*
X95575000Y-92025000D02*
X95575000Y-89000000D01*
X78600000Y-95100000D02*
X78950000Y-94750000D01*
X77400000Y-95100000D02*
X78600000Y-95100000D01*
X80100000Y-94750000D02*
X80100000Y-91600000D01*
X84924876Y-89350000D02*
X87250000Y-89350000D01*
X93075000Y-93095000D02*
X94505000Y-93095000D01*
X102918205Y-84265409D02*
X98900000Y-86000000D01*
X96800000Y-86000000D02*
X95575000Y-87225000D01*
X89400000Y-89350000D02*
X89787500Y-88962500D01*
X98900000Y-86000000D02*
X96800000Y-86000000D01*
X89787500Y-88962500D02*
X91250000Y-88962500D01*
X91250000Y-88962500D02*
X95537500Y-88962500D01*
X84924876Y-89350000D02*
X80100000Y-91600000D01*
X78950000Y-94750000D02*
X80100000Y-94750000D01*
X94505000Y-93095000D02*
X95575000Y-92025000D01*
X87250000Y-89350000D02*
X89400000Y-89350000D01*
%TO.N,/STATUS_ASPECT*%
X87250000Y-90650000D02*
X88900000Y-90650000D01*
X93075000Y-94365000D02*
X94365000Y-94365000D01*
X97675000Y-95250000D02*
X97675000Y-97675000D01*
X97675000Y-97675000D02*
X98290000Y-98290000D01*
X98290000Y-98290000D02*
X98290000Y-101250000D01*
X93075000Y-94365000D02*
X91765000Y-94365000D01*
X88900000Y-90650000D02*
X89287500Y-91037500D01*
X95250000Y-95250000D02*
X97675000Y-95250000D01*
X89287500Y-91037500D02*
X91250000Y-91037500D01*
X94365000Y-94365000D02*
X95250000Y-95250000D01*
X91250000Y-93850000D02*
X91250000Y-91037500D01*
X91765000Y-94365000D02*
X91250000Y-93850000D01*
D22*
%TO.N,GND*%
X79200000Y-98793503D02*
X79200000Y-101250000D01*
D21*
X93075000Y-95635000D02*
X93075000Y-96905000D01*
D22*
X100900000Y-95275000D02*
X100925000Y-95250000D01*
D21*
X93075000Y-96905000D02*
X93075000Y-98525000D01*
D22*
X105800000Y-101250000D02*
X105800000Y-98500000D01*
D21*
%TO.N,/AUDIO_IN_R*%
X105346724Y-90186752D02*
X109600000Y-98600000D01*
X109600000Y-98600000D02*
X109600000Y-101250000D01*
%TO.N,/AUDIO_IN_L_MONO*%
X102700000Y-97600000D02*
X102700000Y-93200000D01*
X104132466Y-87226079D02*
X101800000Y-88700000D01*
X102000000Y-98300000D02*
X102700000Y-97600000D01*
X101800000Y-88700000D02*
X101800000Y-91700000D01*
X101800000Y-91700000D02*
X102700000Y-93200000D01*
X102000000Y-101250000D02*
X102000000Y-98300000D01*
%TO.N,/COMPOSITE_VIDEO_IN*%
X75400000Y-101250000D02*
X75400000Y-93700000D01*
X76500000Y-92600000D02*
X87377729Y-87155590D01*
X89800000Y-87100000D02*
X87377729Y-87155590D01*
X75400000Y-93700000D02*
X76500000Y-92600000D01*
X101741892Y-81397260D02*
X89800000Y-87100000D01*
X75550000Y-96400000D02*
X77400000Y-96400000D01*
%TO.N,/BLANKING*%
X80900000Y-98200000D02*
X80500000Y-98200000D01*
X80500000Y-98200000D02*
X80100000Y-97800000D01*
X83000000Y-101250000D02*
X83000000Y-100300000D01*
X80100000Y-97800000D02*
X80100000Y-96750000D01*
X83000000Y-100300000D02*
X80900000Y-98200000D01*
%TD*%
%TA.AperFunction,Conductor*%
%TO.N,GND*%
G36*
X79007576Y-95821972D02*
G01*
X79043228Y-95882061D01*
X79040734Y-95951886D01*
X79028619Y-95977823D01*
X78965189Y-96080659D01*
X78965185Y-96080668D01*
X78952372Y-96119336D01*
X78916787Y-96226726D01*
X78910001Y-96247204D01*
X78910000Y-96247205D01*
X78902858Y-96317120D01*
X78876462Y-96381811D01*
X78839118Y-96408033D01*
X78869212Y-96427373D01*
X78898238Y-96490928D01*
X78899500Y-96508576D01*
X78899500Y-97150001D01*
X78899501Y-97150019D01*
X78910000Y-97252796D01*
X78910001Y-97252799D01*
X78965185Y-97419331D01*
X78965187Y-97419336D01*
X78988142Y-97456552D01*
X79057288Y-97568656D01*
X79181344Y-97692712D01*
X79290597Y-97760099D01*
X79337321Y-97812047D01*
X79349500Y-97865638D01*
X79349500Y-97873918D01*
X79349500Y-97873920D01*
X79349499Y-97873920D01*
X79378340Y-98018907D01*
X79378343Y-98018917D01*
X79434914Y-98155491D01*
X79434916Y-98155495D01*
X79434917Y-98155496D01*
X79460866Y-98194333D01*
X79517049Y-98278418D01*
X79517052Y-98278421D01*
X80025891Y-98787259D01*
X80024175Y-98788974D01*
X80057496Y-98837875D01*
X80059376Y-98907720D01*
X80023198Y-98967493D01*
X79960447Y-98998218D01*
X79939502Y-99000000D01*
X76900124Y-99000000D01*
X76833085Y-98980315D01*
X76800859Y-98950313D01*
X76757546Y-98892454D01*
X76734709Y-98875358D01*
X76642335Y-98806206D01*
X76642328Y-98806202D01*
X76507482Y-98755908D01*
X76507483Y-98755908D01*
X76447883Y-98749501D01*
X76447881Y-98749500D01*
X76447873Y-98749500D01*
X76447865Y-98749500D01*
X76274500Y-98749500D01*
X76207461Y-98729815D01*
X76161706Y-98677011D01*
X76150500Y-98625500D01*
X76150500Y-97274500D01*
X76170185Y-97207461D01*
X76222989Y-97161706D01*
X76274500Y-97150500D01*
X76434432Y-97150500D01*
X76501471Y-97170185D01*
X76515630Y-97180783D01*
X76545870Y-97206986D01*
X76666906Y-97284770D01*
X76666914Y-97284774D01*
X76666923Y-97284779D01*
X76791642Y-97341736D01*
X76795941Y-97343985D01*
X76797692Y-97344499D01*
X76935744Y-97385035D01*
X76935745Y-97385035D01*
X76935748Y-97385036D01*
X76978183Y-97391136D01*
X77078059Y-97405497D01*
X77134399Y-97405497D01*
X77134409Y-97405500D01*
X77185764Y-97405500D01*
X77665573Y-97405500D01*
X77665601Y-97405497D01*
X77721940Y-97405497D01*
X77721941Y-97405497D01*
X77855479Y-97386297D01*
X77855481Y-97386297D01*
X77861612Y-97385415D01*
X77864256Y-97385035D01*
X77864257Y-97385035D01*
X78002309Y-97344498D01*
X78133094Y-97284770D01*
X78254130Y-97206986D01*
X78362791Y-97112832D01*
X78362794Y-97112829D01*
X78457015Y-97004091D01*
X78534747Y-96883137D01*
X78594517Y-96752259D01*
X78635024Y-96614304D01*
X78652762Y-96490928D01*
X78681787Y-96427374D01*
X78716146Y-96405291D01*
X78689193Y-96389492D01*
X78657588Y-96327179D01*
X78655500Y-96304517D01*
X78655500Y-95955927D01*
X78675185Y-95888888D01*
X78727989Y-95843133D01*
X78755309Y-95834310D01*
X78762136Y-95832952D01*
X78818913Y-95821658D01*
X78875628Y-95798165D01*
X78945096Y-95790697D01*
X79007576Y-95821972D01*
G37*
%TD.AperFunction*%
%TA.AperFunction,Conductor*%
G36*
X88604809Y-91420185D02*
G01*
X88625451Y-91436819D01*
X88809086Y-91620454D01*
X88830911Y-91635036D01*
X88882499Y-91669505D01*
X88932005Y-91702584D01*
X88932007Y-91702585D01*
X88932011Y-91702587D01*
X88988579Y-91726018D01*
X88988580Y-91726018D01*
X89068588Y-91759159D01*
X89184741Y-91782263D01*
X89203968Y-91786087D01*
X89213581Y-91788000D01*
X89213582Y-91788000D01*
X89213583Y-91788000D01*
X89361418Y-91788000D01*
X90078752Y-91788000D01*
X90145791Y-91807685D01*
X90176531Y-91838997D01*
X90177807Y-91837989D01*
X90182288Y-91843656D01*
X90306344Y-91967712D01*
X90440597Y-92050519D01*
X90487321Y-92102465D01*
X90499500Y-92156057D01*
X90499500Y-93923918D01*
X90499500Y-93923920D01*
X90499499Y-93923920D01*
X90528340Y-94068907D01*
X90528343Y-94068917D01*
X90584913Y-94205490D01*
X90584918Y-94205499D01*
X90591421Y-94215231D01*
X90591423Y-94215233D01*
X90653196Y-94307685D01*
X90667051Y-94328420D01*
X90667052Y-94328421D01*
X91286584Y-94947952D01*
X91286590Y-94947957D01*
X91340657Y-94984081D01*
X91340660Y-94984084D01*
X91340661Y-94984084D01*
X91409505Y-95030084D01*
X91409507Y-95030085D01*
X91409511Y-95030087D01*
X91546082Y-95086656D01*
X91546087Y-95086658D01*
X91546091Y-95086658D01*
X91546092Y-95086659D01*
X91642984Y-95105933D01*
X91704895Y-95138318D01*
X91739469Y-95199034D01*
X91737869Y-95262144D01*
X91702899Y-95382511D01*
X91702704Y-95384998D01*
X91702705Y-95385000D01*
X93201000Y-95385000D01*
X93268039Y-95404685D01*
X93313794Y-95457489D01*
X93325000Y-95509000D01*
X93325000Y-96655000D01*
X94447295Y-96655000D01*
X94447295Y-96654998D01*
X94447100Y-96652513D01*
X94401281Y-96494801D01*
X94317685Y-96353447D01*
X94312900Y-96347278D01*
X94315252Y-96345453D01*
X94288445Y-96296405D01*
X94293402Y-96226712D01*
X94314465Y-96193936D01*
X94312900Y-96192722D01*
X94317685Y-96186552D01*
X94401282Y-96045196D01*
X94401283Y-96045193D01*
X94447099Y-95887495D01*
X94447100Y-95887489D01*
X94449999Y-95850649D01*
X94450000Y-95850634D01*
X94450000Y-95810730D01*
X94469685Y-95743691D01*
X94522489Y-95697936D01*
X94591647Y-95687992D01*
X94655203Y-95717017D01*
X94661681Y-95723049D01*
X94771586Y-95832954D01*
X94798148Y-95850701D01*
X94845270Y-95882186D01*
X94894505Y-95915084D01*
X94894506Y-95915084D01*
X94894507Y-95915085D01*
X94894509Y-95915086D01*
X95031082Y-95971656D01*
X95031087Y-95971658D01*
X95031091Y-95971658D01*
X95031092Y-95971659D01*
X95176079Y-96000500D01*
X95176082Y-96000500D01*
X95176083Y-96000500D01*
X95323917Y-96000500D01*
X96300500Y-96000500D01*
X96367539Y-96020185D01*
X96413294Y-96072989D01*
X96424500Y-96124500D01*
X96424500Y-96225015D01*
X96435000Y-96327795D01*
X96435001Y-96327797D01*
X96442356Y-96349992D01*
X96490186Y-96494335D01*
X96490187Y-96494337D01*
X96582286Y-96643651D01*
X96582289Y-96643655D01*
X96706344Y-96767710D01*
X96706348Y-96767713D01*
X96861813Y-96863606D01*
X96860706Y-96865399D01*
X96905337Y-96904687D01*
X96924500Y-96970908D01*
X96924500Y-97748918D01*
X96924500Y-97748920D01*
X96924499Y-97748920D01*
X96953340Y-97893907D01*
X96953343Y-97893917D01*
X97009913Y-98030490D01*
X97009914Y-98030492D01*
X97037039Y-98071087D01*
X97037040Y-98071089D01*
X97092045Y-98153414D01*
X97092049Y-98153418D01*
X97476452Y-98537819D01*
X97509937Y-98599142D01*
X97504953Y-98668833D01*
X97463082Y-98724767D01*
X97397617Y-98749184D01*
X97388772Y-98749500D01*
X97242130Y-98749500D01*
X97242123Y-98749501D01*
X97182516Y-98755908D01*
X97047671Y-98806202D01*
X97047664Y-98806206D01*
X96932456Y-98892452D01*
X96932455Y-98892453D01*
X96932454Y-98892454D01*
X96889141Y-98950312D01*
X96833209Y-98992182D01*
X96789876Y-99000000D01*
X95990124Y-99000000D01*
X95923085Y-98980315D01*
X95890859Y-98950313D01*
X95847546Y-98892454D01*
X95824709Y-98875358D01*
X95732335Y-98806206D01*
X95732328Y-98806202D01*
X95597482Y-98755908D01*
X95597483Y-98755908D01*
X95537883Y-98749501D01*
X95537881Y-98749500D01*
X95537873Y-98749500D01*
X95537864Y-98749500D01*
X93442129Y-98749500D01*
X93442123Y-98749501D01*
X93382516Y-98755908D01*
X93247671Y-98806202D01*
X93247664Y-98806206D01*
X93132456Y-98892452D01*
X93132455Y-98892453D01*
X93132454Y-98892454D01*
X93089141Y-98950312D01*
X93033209Y-98992182D01*
X92989876Y-99000000D01*
X92190124Y-99000000D01*
X92123085Y-98980315D01*
X92090859Y-98950313D01*
X92047546Y-98892454D01*
X92024709Y-98875358D01*
X91932335Y-98806206D01*
X91932328Y-98806202D01*
X91797482Y-98755908D01*
X91797483Y-98755908D01*
X91737883Y-98749501D01*
X91737881Y-98749500D01*
X91737873Y-98749500D01*
X91737864Y-98749500D01*
X89642129Y-98749500D01*
X89642123Y-98749501D01*
X89582516Y-98755908D01*
X89447671Y-98806202D01*
X89447664Y-98806206D01*
X89332456Y-98892452D01*
X89332455Y-98892453D01*
X89332454Y-98892454D01*
X89289141Y-98950312D01*
X89233209Y-98992182D01*
X89189876Y-99000000D01*
X88390124Y-99000000D01*
X88323085Y-98980315D01*
X88290859Y-98950313D01*
X88247546Y-98892454D01*
X88224709Y-98875358D01*
X88132335Y-98806206D01*
X88132328Y-98806202D01*
X87997482Y-98755908D01*
X87997483Y-98755908D01*
X87937883Y-98749501D01*
X87937881Y-98749500D01*
X87937873Y-98749500D01*
X87937864Y-98749500D01*
X85842129Y-98749500D01*
X85842123Y-98749501D01*
X85782516Y-98755908D01*
X85647671Y-98806202D01*
X85647664Y-98806206D01*
X85532456Y-98892452D01*
X85532455Y-98892453D01*
X85532454Y-98892454D01*
X85489141Y-98950312D01*
X85433209Y-98992182D01*
X85389876Y-99000000D01*
X84500124Y-99000000D01*
X84433085Y-98980315D01*
X84400859Y-98950313D01*
X84357546Y-98892454D01*
X84334709Y-98875358D01*
X84242335Y-98806206D01*
X84234546Y-98801953D01*
X84235837Y-98799588D01*
X84191063Y-98766059D01*
X84166657Y-98700591D01*
X84181521Y-98632321D01*
X84230935Y-98582924D01*
X84251331Y-98574063D01*
X84294334Y-98559814D01*
X84443656Y-98467712D01*
X84567712Y-98343656D01*
X84567715Y-98343650D01*
X84572193Y-98337989D01*
X84574015Y-98339430D01*
X84617665Y-98300175D01*
X84671248Y-98288000D01*
X85136420Y-98288000D01*
X85233962Y-98268596D01*
X85281413Y-98259158D01*
X85417995Y-98202584D01*
X85488469Y-98155495D01*
X85540916Y-98120452D01*
X85969549Y-97691819D01*
X86030872Y-97658334D01*
X86057230Y-97655500D01*
X86917672Y-97655500D01*
X86952267Y-97660424D01*
X87097426Y-97702597D01*
X87097429Y-97702597D01*
X87097431Y-97702598D01*
X87134306Y-97705500D01*
X87134314Y-97705500D01*
X88715686Y-97705500D01*
X88715694Y-97705500D01*
X88752569Y-97702598D01*
X88752571Y-97702597D01*
X88752573Y-97702597D01*
X88794191Y-97690505D01*
X88910398Y-97656744D01*
X89051865Y-97573081D01*
X89168081Y-97456865D01*
X89251744Y-97315398D01*
X89285505Y-97199191D01*
X89297597Y-97157573D01*
X89297598Y-97157567D01*
X89297800Y-97155001D01*
X91702704Y-97155001D01*
X91702899Y-97157486D01*
X91748718Y-97315198D01*
X91832314Y-97456552D01*
X91832321Y-97456561D01*
X91948438Y-97572678D01*
X91948447Y-97572685D01*
X92089803Y-97656282D01*
X92089806Y-97656283D01*
X92247504Y-97702099D01*
X92247510Y-97702100D01*
X92284350Y-97704999D01*
X92284366Y-97705000D01*
X92825000Y-97705000D01*
X92825000Y-97155000D01*
X93325000Y-97155000D01*
X93325000Y-97705000D01*
X93865634Y-97705000D01*
X93865649Y-97704999D01*
X93902489Y-97702100D01*
X93902495Y-97702099D01*
X94060193Y-97656283D01*
X94060196Y-97656282D01*
X94201552Y-97572685D01*
X94201561Y-97572678D01*
X94317678Y-97456561D01*
X94317685Y-97456552D01*
X94401281Y-97315198D01*
X94447100Y-97157486D01*
X94447295Y-97155001D01*
X94447295Y-97155000D01*
X93325000Y-97155000D01*
X92825000Y-97155000D01*
X91702705Y-97155000D01*
X91702704Y-97155001D01*
X89297800Y-97155001D01*
X89300500Y-97120694D01*
X89300500Y-96689306D01*
X89297800Y-96654998D01*
X91702704Y-96654998D01*
X91702705Y-96655000D01*
X92825000Y-96655000D01*
X92825000Y-95885000D01*
X91702705Y-95885000D01*
X91702704Y-95885001D01*
X91702899Y-95887486D01*
X91748718Y-96045198D01*
X91832314Y-96186552D01*
X91837100Y-96192722D01*
X91834753Y-96194542D01*
X91861564Y-96243642D01*
X91856580Y-96313334D01*
X91835541Y-96346069D01*
X91837100Y-96347278D01*
X91832314Y-96353447D01*
X91748718Y-96494801D01*
X91702899Y-96652513D01*
X91702704Y-96654998D01*
X89297800Y-96654998D01*
X89297598Y-96652431D01*
X89295048Y-96643655D01*
X89251745Y-96494606D01*
X89251744Y-96494603D01*
X89251744Y-96494602D01*
X89168081Y-96353135D01*
X89168078Y-96353132D01*
X89163298Y-96346969D01*
X89165750Y-96345066D01*
X89139155Y-96296421D01*
X89144104Y-96226726D01*
X89164940Y-96194304D01*
X89163298Y-96193031D01*
X89168075Y-96186870D01*
X89168081Y-96186865D01*
X89251744Y-96045398D01*
X89289158Y-95916620D01*
X89297597Y-95887573D01*
X89297598Y-95887567D01*
X89297604Y-95887489D01*
X89300500Y-95850694D01*
X89300500Y-95419306D01*
X89297598Y-95382431D01*
X89251744Y-95224602D01*
X89168081Y-95083135D01*
X89168078Y-95083132D01*
X89163298Y-95076969D01*
X89165750Y-95075066D01*
X89139155Y-95026421D01*
X89144104Y-94956726D01*
X89164940Y-94924304D01*
X89163298Y-94923031D01*
X89168075Y-94916870D01*
X89168081Y-94916865D01*
X89251744Y-94775398D01*
X89297598Y-94617569D01*
X89300500Y-94580694D01*
X89300500Y-94149306D01*
X89297598Y-94112431D01*
X89292389Y-94094503D01*
X89251745Y-93954606D01*
X89251744Y-93954603D01*
X89251744Y-93954602D01*
X89168081Y-93813135D01*
X89168078Y-93813132D01*
X89163298Y-93806969D01*
X89165750Y-93805066D01*
X89139155Y-93756421D01*
X89144104Y-93686726D01*
X89164940Y-93654304D01*
X89163298Y-93653031D01*
X89168075Y-93646870D01*
X89168081Y-93646865D01*
X89251744Y-93505398D01*
X89297598Y-93347569D01*
X89300500Y-93310694D01*
X89300500Y-92879306D01*
X89297598Y-92842431D01*
X89251744Y-92684602D01*
X89168081Y-92543135D01*
X89168079Y-92543133D01*
X89168076Y-92543129D01*
X89051870Y-92426923D01*
X89051862Y-92426917D01*
X88910396Y-92343255D01*
X88910393Y-92343254D01*
X88752573Y-92297402D01*
X88752567Y-92297401D01*
X88715701Y-92294500D01*
X88715694Y-92294500D01*
X87157229Y-92294500D01*
X87090190Y-92274815D01*
X87069548Y-92258181D01*
X86648876Y-91837508D01*
X86615391Y-91776185D01*
X86620375Y-91706493D01*
X86662247Y-91650560D01*
X86727711Y-91626143D01*
X86771494Y-91630850D01*
X86785744Y-91635035D01*
X86785745Y-91635035D01*
X86785748Y-91635036D01*
X86828183Y-91641136D01*
X86928059Y-91655497D01*
X86984399Y-91655497D01*
X86984409Y-91655500D01*
X87035764Y-91655500D01*
X87515573Y-91655500D01*
X87515601Y-91655497D01*
X87571940Y-91655497D01*
X87571941Y-91655497D01*
X87705479Y-91636297D01*
X87705481Y-91636297D01*
X87711612Y-91635415D01*
X87714256Y-91635035D01*
X87714257Y-91635035D01*
X87852309Y-91594498D01*
X87983094Y-91534770D01*
X88104130Y-91456986D01*
X88134366Y-91430786D01*
X88197921Y-91401762D01*
X88215568Y-91400500D01*
X88537770Y-91400500D01*
X88604809Y-91420185D01*
G37*
%TD.AperFunction*%
%TA.AperFunction,Conductor*%
G36*
X100923260Y-86022989D02*
G01*
X100954844Y-86067933D01*
X101097202Y-86415037D01*
X101097205Y-86415043D01*
X101125753Y-86467764D01*
X101125755Y-86467766D01*
X101223454Y-86573441D01*
X101223461Y-86573446D01*
X101259216Y-86594829D01*
X101306649Y-86646131D01*
X101318816Y-86714933D01*
X101315613Y-86732335D01*
X101305168Y-86772667D01*
X101305168Y-86772668D01*
X101309803Y-86916523D01*
X101326491Y-86974098D01*
X101326493Y-86974104D01*
X101557850Y-87538210D01*
X101657447Y-87781053D01*
X101664673Y-87850548D01*
X101633180Y-87912918D01*
X101608961Y-87932931D01*
X101462386Y-88025554D01*
X101449874Y-88032039D01*
X101449877Y-88032044D01*
X101444507Y-88034914D01*
X101392338Y-88069771D01*
X101389693Y-88071490D01*
X101336603Y-88105040D01*
X101331793Y-88108787D01*
X101331789Y-88108782D01*
X101326291Y-88113178D01*
X101326295Y-88113183D01*
X101321580Y-88117052D01*
X101277189Y-88161442D01*
X101274930Y-88163645D01*
X101229430Y-88206883D01*
X101225450Y-88211489D01*
X101225446Y-88211486D01*
X101220905Y-88216877D01*
X101220909Y-88216881D01*
X101217041Y-88221593D01*
X101182161Y-88273794D01*
X101180374Y-88276396D01*
X101144193Y-88327668D01*
X101141183Y-88332968D01*
X101141180Y-88332966D01*
X101137783Y-88339131D01*
X101137787Y-88339133D01*
X101134917Y-88344503D01*
X101110905Y-88402470D01*
X101109661Y-88405369D01*
X101084157Y-88462762D01*
X101082240Y-88468547D01*
X101082235Y-88468545D01*
X101080106Y-88475252D01*
X101080111Y-88475254D01*
X101078342Y-88481086D01*
X101066096Y-88542647D01*
X101065440Y-88545737D01*
X101051628Y-88606968D01*
X101050878Y-88613013D01*
X101050872Y-88613012D01*
X101050092Y-88620019D01*
X101050097Y-88620020D01*
X101049500Y-88626082D01*
X101049500Y-88688849D01*
X101049460Y-88692008D01*
X101047982Y-88750000D01*
X101047860Y-88754769D01*
X101048302Y-88760838D01*
X101048297Y-88760838D01*
X101049500Y-88774886D01*
X101049500Y-91678756D01*
X101049353Y-91684785D01*
X101046794Y-91737337D01*
X101046795Y-91737349D01*
X101048150Y-91746454D01*
X101049500Y-91764703D01*
X101049500Y-91773922D01*
X101059771Y-91825558D01*
X101060803Y-91831495D01*
X101068553Y-91883569D01*
X101068554Y-91883576D01*
X101071662Y-91892249D01*
X101076543Y-91909873D01*
X101078341Y-91918912D01*
X101098485Y-91967543D01*
X101100656Y-91973168D01*
X101118420Y-92022745D01*
X101123168Y-92030659D01*
X101131390Y-92046985D01*
X101134914Y-92055493D01*
X101134916Y-92055496D01*
X101164167Y-92099274D01*
X101167381Y-92104347D01*
X101931829Y-93378426D01*
X101949500Y-93442222D01*
X101949500Y-93545146D01*
X101929815Y-93612185D01*
X101877011Y-93657940D01*
X101807853Y-93667884D01*
X101760404Y-93650685D01*
X101744127Y-93640646D01*
X101744118Y-93640641D01*
X101577696Y-93585494D01*
X101577689Y-93585493D01*
X101474985Y-93575000D01*
X101175000Y-93575000D01*
X101175000Y-96925000D01*
X101474973Y-96925000D01*
X101474985Y-96924999D01*
X101577689Y-96914506D01*
X101577696Y-96914505D01*
X101744118Y-96859358D01*
X101744127Y-96859354D01*
X101760401Y-96849316D01*
X101827793Y-96830874D01*
X101894457Y-96851795D01*
X101939228Y-96905436D01*
X101949500Y-96954853D01*
X101949500Y-97237769D01*
X101929815Y-97304808D01*
X101913181Y-97325450D01*
X101417052Y-97821578D01*
X101417049Y-97821581D01*
X101369333Y-97892993D01*
X101369334Y-97892994D01*
X101334918Y-97944501D01*
X101334914Y-97944508D01*
X101278342Y-98081086D01*
X101278340Y-98081092D01*
X101249500Y-98226079D01*
X101249500Y-98625500D01*
X101229815Y-98692539D01*
X101177011Y-98738294D01*
X101125501Y-98749500D01*
X100952130Y-98749500D01*
X100952123Y-98749501D01*
X100892516Y-98755908D01*
X100757671Y-98806202D01*
X100757664Y-98806206D01*
X100642456Y-98892452D01*
X100642455Y-98892453D01*
X100642454Y-98892454D01*
X100599141Y-98950312D01*
X100543209Y-98992182D01*
X100499876Y-99000000D01*
X99790124Y-99000000D01*
X99723085Y-98980315D01*
X99690859Y-98950313D01*
X99647546Y-98892454D01*
X99624709Y-98875358D01*
X99532335Y-98806206D01*
X99532328Y-98806202D01*
X99397482Y-98755908D01*
X99397483Y-98755908D01*
X99337883Y-98749501D01*
X99337881Y-98749500D01*
X99337873Y-98749500D01*
X99337865Y-98749500D01*
X99164500Y-98749500D01*
X99097461Y-98729815D01*
X99051706Y-98677011D01*
X99040500Y-98625500D01*
X99040500Y-98216079D01*
X99011659Y-98071092D01*
X99011658Y-98071089D01*
X99011658Y-98071087D01*
X98993727Y-98027797D01*
X98955087Y-97934511D01*
X98955080Y-97934498D01*
X98872952Y-97811585D01*
X98821466Y-97760099D01*
X98768416Y-97707049D01*
X98461819Y-97400451D01*
X98428334Y-97339128D01*
X98425500Y-97312770D01*
X98425500Y-96970908D01*
X98445185Y-96903869D01*
X98489271Y-96865364D01*
X98488187Y-96863606D01*
X98564972Y-96816243D01*
X98643655Y-96767711D01*
X98767711Y-96643655D01*
X98859814Y-96494334D01*
X98914999Y-96327797D01*
X98925500Y-96225008D01*
X98925500Y-95500000D01*
X99675000Y-95500000D01*
X99675000Y-96224985D01*
X99685493Y-96327689D01*
X99685494Y-96327696D01*
X99740641Y-96494118D01*
X99740643Y-96494123D01*
X99832684Y-96643344D01*
X99956655Y-96767315D01*
X99956654Y-96767315D01*
X100105876Y-96859356D01*
X100105881Y-96859358D01*
X100272303Y-96914505D01*
X100272310Y-96914506D01*
X100375014Y-96924999D01*
X100375027Y-96925000D01*
X100675000Y-96925000D01*
X100675000Y-95500000D01*
X99675000Y-95500000D01*
X98925500Y-95500000D01*
X98925500Y-95000000D01*
X99675000Y-95000000D01*
X100675000Y-95000000D01*
X100675000Y-93575000D01*
X100375014Y-93575000D01*
X100272310Y-93585493D01*
X100272303Y-93585494D01*
X100105881Y-93640641D01*
X100105876Y-93640643D01*
X99956655Y-93732684D01*
X99832684Y-93856655D01*
X99740643Y-94005876D01*
X99740641Y-94005881D01*
X99685494Y-94172303D01*
X99685493Y-94172310D01*
X99675000Y-94275014D01*
X99675000Y-95000000D01*
X98925500Y-95000000D01*
X98925500Y-94274992D01*
X98914999Y-94172203D01*
X98859814Y-94005666D01*
X98859548Y-94005235D01*
X98767713Y-93856348D01*
X98767710Y-93856344D01*
X98643655Y-93732289D01*
X98643651Y-93732286D01*
X98494337Y-93640187D01*
X98494335Y-93640186D01*
X98409833Y-93612185D01*
X98327797Y-93585001D01*
X98327795Y-93585000D01*
X98225015Y-93574500D01*
X98225008Y-93574500D01*
X97124992Y-93574500D01*
X97124984Y-93574500D01*
X97022204Y-93585000D01*
X97022203Y-93585001D01*
X96855664Y-93640186D01*
X96855662Y-93640187D01*
X96706348Y-93732286D01*
X96706344Y-93732289D01*
X96582289Y-93856344D01*
X96582286Y-93856348D01*
X96490187Y-94005662D01*
X96490186Y-94005664D01*
X96435001Y-94172203D01*
X96435000Y-94172204D01*
X96424500Y-94274984D01*
X96424500Y-94375500D01*
X96404815Y-94442539D01*
X96352011Y-94488294D01*
X96300500Y-94499500D01*
X95612230Y-94499500D01*
X95545191Y-94479815D01*
X95524549Y-94463181D01*
X94943931Y-93882562D01*
X94910446Y-93821239D01*
X94915430Y-93751547D01*
X94957302Y-93695614D01*
X94962726Y-93691776D01*
X94983412Y-93677955D01*
X94983412Y-93677954D01*
X94983416Y-93677952D01*
X96157952Y-92503415D01*
X96207062Y-92429916D01*
X96240084Y-92380495D01*
X96270038Y-92308181D01*
X96281725Y-92279966D01*
X96296657Y-92243916D01*
X96296659Y-92243912D01*
X96325500Y-92098917D01*
X96325500Y-91951082D01*
X96325500Y-90720908D01*
X96345185Y-90653869D01*
X96389271Y-90615364D01*
X96388187Y-90613606D01*
X96520022Y-90532288D01*
X96543655Y-90517711D01*
X96667711Y-90393655D01*
X96759814Y-90244334D01*
X96814999Y-90077797D01*
X96825500Y-89975008D01*
X96825500Y-89250000D01*
X97575000Y-89250000D01*
X97575000Y-89974985D01*
X97585493Y-90077689D01*
X97585494Y-90077696D01*
X97640641Y-90244118D01*
X97640643Y-90244123D01*
X97732684Y-90393344D01*
X97856655Y-90517315D01*
X98005876Y-90609356D01*
X98005881Y-90609358D01*
X98172303Y-90664505D01*
X98172310Y-90664506D01*
X98275014Y-90674999D01*
X98275027Y-90675000D01*
X98575000Y-90675000D01*
X98575000Y-89250000D01*
X99075000Y-89250000D01*
X99075000Y-90675000D01*
X99374973Y-90675000D01*
X99374985Y-90674999D01*
X99477689Y-90664506D01*
X99477696Y-90664505D01*
X99644118Y-90609358D01*
X99644123Y-90609356D01*
X99793344Y-90517315D01*
X99917315Y-90393344D01*
X100009356Y-90244123D01*
X100009358Y-90244118D01*
X100064505Y-90077696D01*
X100064506Y-90077689D01*
X100074999Y-89974985D01*
X100075000Y-89974972D01*
X100075000Y-89250000D01*
X99075000Y-89250000D01*
X98575000Y-89250000D01*
X97575000Y-89250000D01*
X96825500Y-89250000D01*
X96825500Y-88750000D01*
X97575000Y-88750000D01*
X98575000Y-88750000D01*
X98575000Y-87325000D01*
X99075000Y-87325000D01*
X99075000Y-88750000D01*
X100075000Y-88750000D01*
X100075000Y-88025027D01*
X100074999Y-88025014D01*
X100064506Y-87922310D01*
X100064505Y-87922303D01*
X100009358Y-87755881D01*
X100009356Y-87755876D01*
X99917315Y-87606655D01*
X99793344Y-87482684D01*
X99644123Y-87390643D01*
X99644118Y-87390641D01*
X99477696Y-87335494D01*
X99477689Y-87335493D01*
X99374985Y-87325000D01*
X99075000Y-87325000D01*
X98575000Y-87325000D01*
X98275014Y-87325000D01*
X98172310Y-87335493D01*
X98172303Y-87335494D01*
X98005881Y-87390641D01*
X98005876Y-87390643D01*
X97856655Y-87482684D01*
X97732684Y-87606655D01*
X97640643Y-87755876D01*
X97640641Y-87755881D01*
X97585494Y-87922303D01*
X97585493Y-87922310D01*
X97575000Y-88025014D01*
X97575000Y-88750000D01*
X96825500Y-88750000D01*
X96825500Y-88024992D01*
X96814999Y-87922203D01*
X96759814Y-87755666D01*
X96667711Y-87606345D01*
X96549047Y-87487681D01*
X96515562Y-87426358D01*
X96520546Y-87356666D01*
X96549045Y-87312321D01*
X97074548Y-86786819D01*
X97135871Y-86753334D01*
X97162229Y-86750500D01*
X98820415Y-86750500D01*
X98831109Y-86751473D01*
X98831149Y-86751005D01*
X98837204Y-86751510D01*
X98837211Y-86751512D01*
X98837217Y-86751511D01*
X98837219Y-86751512D01*
X98904573Y-86750514D01*
X98906411Y-86750500D01*
X98973920Y-86750500D01*
X98979446Y-86749955D01*
X98985016Y-86749322D01*
X98985030Y-86749322D01*
X99051121Y-86735153D01*
X99052626Y-86734842D01*
X99118913Y-86721658D01*
X99118918Y-86721655D01*
X99124313Y-86720018D01*
X99129566Y-86718339D01*
X99129582Y-86718336D01*
X99191592Y-86691565D01*
X99193170Y-86690898D01*
X99255495Y-86665084D01*
X99255498Y-86665081D01*
X99255505Y-86665079D01*
X99260879Y-86662207D01*
X99261105Y-86662630D01*
X99270518Y-86657495D01*
X100790973Y-86001140D01*
X100860324Y-85992643D01*
X100923260Y-86022989D01*
G37*
%TD.AperFunction*%
%TA.AperFunction,Conductor*%
G36*
X102755703Y-90493960D02*
G01*
X102789225Y-90540619D01*
X102928231Y-90879550D01*
X103525721Y-92336380D01*
X103525726Y-92336390D01*
X103529444Y-92343256D01*
X103554272Y-92389107D01*
X103554274Y-92389109D01*
X103651973Y-92494784D01*
X103651977Y-92494787D01*
X103686087Y-92515186D01*
X103775493Y-92568655D01*
X103914819Y-92604735D01*
X104058666Y-92600099D01*
X104116250Y-92583410D01*
X105336406Y-92082986D01*
X105405898Y-92075761D01*
X105468268Y-92107253D01*
X105494118Y-92141768D01*
X107507569Y-96124500D01*
X108703772Y-98490665D01*
X108743655Y-98569555D01*
X108756334Y-98638265D01*
X108729853Y-98702922D01*
X108672620Y-98742998D01*
X108632994Y-98749500D01*
X108552130Y-98749500D01*
X108552123Y-98749501D01*
X108492516Y-98755908D01*
X108357671Y-98806202D01*
X108357664Y-98806206D01*
X108242456Y-98892452D01*
X108242455Y-98892453D01*
X108242454Y-98892454D01*
X108199141Y-98950312D01*
X108143209Y-98992182D01*
X108099876Y-99000000D01*
X103500124Y-99000000D01*
X103433085Y-98980315D01*
X103400859Y-98950313D01*
X103357546Y-98892454D01*
X103334709Y-98875358D01*
X103242335Y-98806206D01*
X103242328Y-98806202D01*
X103107482Y-98755908D01*
X103107483Y-98755908D01*
X103047883Y-98749501D01*
X103047881Y-98749500D01*
X103047873Y-98749500D01*
X103047865Y-98749500D01*
X102911229Y-98749500D01*
X102844190Y-98729815D01*
X102798435Y-98677011D01*
X102788491Y-98607853D01*
X102817516Y-98544297D01*
X102823548Y-98537819D01*
X103282948Y-98078419D01*
X103282951Y-98078416D01*
X103365084Y-97955495D01*
X103421658Y-97818913D01*
X103434090Y-97756413D01*
X103444894Y-97702099D01*
X103450500Y-97673919D01*
X103450500Y-93221263D01*
X103450647Y-93215234D01*
X103453206Y-93162662D01*
X103453205Y-93162657D01*
X103453206Y-93162652D01*
X103451850Y-93153537D01*
X103450500Y-93135290D01*
X103450500Y-93126082D01*
X103443691Y-93091854D01*
X103440224Y-93074426D01*
X103439197Y-93068514D01*
X103431447Y-93016427D01*
X103428340Y-93007756D01*
X103423455Y-92990120D01*
X103421659Y-92981093D01*
X103421658Y-92981087D01*
X103401502Y-92932427D01*
X103399350Y-92926852D01*
X103381579Y-92877255D01*
X103376834Y-92869347D01*
X103368606Y-92853008D01*
X103365086Y-92844510D01*
X103365084Y-92844505D01*
X103363695Y-92842426D01*
X103335828Y-92800721D01*
X103332615Y-92795649D01*
X102714048Y-91764703D01*
X102568171Y-91521574D01*
X102550500Y-91457777D01*
X102550500Y-90587673D01*
X102570185Y-90520634D01*
X102622989Y-90474879D01*
X102692147Y-90464935D01*
X102755703Y-90493960D01*
G37*
%TD.AperFunction*%
%TD*%
M02*
