%TF.GenerationSoftware,KiCad,Pcbnew,8.0.0*%
%TF.CreationDate,2025-10-17T20:28:49+03:00*%
%TF.ProjectId,SCART_Cable_Breakout,53434152-545f-4436-9162-6c655f427265,rev?*%
%TF.SameCoordinates,Original*%
%TF.FileFunction,Legend,Top*%
%TF.FilePolarity,Positive*%
%FSLAX46Y46*%
G04 Gerber Fmt 4.6, Leading zero omitted, Abs format (unit mm)*
G04 Created by KiCad (PCBNEW 8.0.0) date 2025-10-17 20:28:49*
%MOMM*%
%LPD*%
G01*
G04 APERTURE LIST*
%ADD10C,0.150000*%
%ADD11C,0.120000*%
G04 APERTURE END LIST*
D10*
X100617438Y-101939411D02*
X100569819Y-102034649D01*
X100569819Y-102034649D02*
X100569819Y-102177506D01*
X100569819Y-102177506D02*
X100617438Y-102320363D01*
X100617438Y-102320363D02*
X100712676Y-102415601D01*
X100712676Y-102415601D02*
X100807914Y-102463220D01*
X100807914Y-102463220D02*
X100998390Y-102510839D01*
X100998390Y-102510839D02*
X101141247Y-102510839D01*
X101141247Y-102510839D02*
X101331723Y-102463220D01*
X101331723Y-102463220D02*
X101426961Y-102415601D01*
X101426961Y-102415601D02*
X101522200Y-102320363D01*
X101522200Y-102320363D02*
X101569819Y-102177506D01*
X101569819Y-102177506D02*
X101569819Y-102082268D01*
X101569819Y-102082268D02*
X101522200Y-101939411D01*
X101522200Y-101939411D02*
X101474580Y-101891792D01*
X101474580Y-101891792D02*
X101141247Y-101891792D01*
X101141247Y-101891792D02*
X101141247Y-102082268D01*
X101569819Y-101463220D02*
X100569819Y-101463220D01*
X100569819Y-101463220D02*
X101569819Y-100891792D01*
X101569819Y-100891792D02*
X100569819Y-100891792D01*
X101569819Y-100415601D02*
X100569819Y-100415601D01*
X100569819Y-100415601D02*
X100569819Y-100177506D01*
X100569819Y-100177506D02*
X100617438Y-100034649D01*
X100617438Y-100034649D02*
X100712676Y-99939411D01*
X100712676Y-99939411D02*
X100807914Y-99891792D01*
X100807914Y-99891792D02*
X100998390Y-99844173D01*
X100998390Y-99844173D02*
X101141247Y-99844173D01*
X101141247Y-99844173D02*
X101331723Y-99891792D01*
X101331723Y-99891792D02*
X101426961Y-99939411D01*
X101426961Y-99939411D02*
X101522200Y-100034649D01*
X101522200Y-100034649D02*
X101569819Y-100177506D01*
X101569819Y-100177506D02*
X101569819Y-100415601D01*
X82569819Y-101691792D02*
X82093628Y-102025125D01*
X82569819Y-102263220D02*
X81569819Y-102263220D01*
X81569819Y-102263220D02*
X81569819Y-101882268D01*
X81569819Y-101882268D02*
X81617438Y-101787030D01*
X81617438Y-101787030D02*
X81665057Y-101739411D01*
X81665057Y-101739411D02*
X81760295Y-101691792D01*
X81760295Y-101691792D02*
X81903152Y-101691792D01*
X81903152Y-101691792D02*
X81998390Y-101739411D01*
X81998390Y-101739411D02*
X82046009Y-101787030D01*
X82046009Y-101787030D02*
X82093628Y-101882268D01*
X82093628Y-101882268D02*
X82093628Y-102263220D01*
X82046009Y-101263220D02*
X82046009Y-100929887D01*
X82569819Y-100787030D02*
X82569819Y-101263220D01*
X82569819Y-101263220D02*
X81569819Y-101263220D01*
X81569819Y-101263220D02*
X81569819Y-100787030D01*
X82569819Y-100358458D02*
X81569819Y-100358458D01*
X81569819Y-100358458D02*
X81569819Y-100120363D01*
X81569819Y-100120363D02*
X81617438Y-99977506D01*
X81617438Y-99977506D02*
X81712676Y-99882268D01*
X81712676Y-99882268D02*
X81807914Y-99834649D01*
X81807914Y-99834649D02*
X81998390Y-99787030D01*
X81998390Y-99787030D02*
X82141247Y-99787030D01*
X82141247Y-99787030D02*
X82331723Y-99834649D01*
X82331723Y-99834649D02*
X82426961Y-99882268D01*
X82426961Y-99882268D02*
X82522200Y-99977506D01*
X82522200Y-99977506D02*
X82569819Y-100120363D01*
X82569819Y-100120363D02*
X82569819Y-100358458D01*
X74484104Y-103010839D02*
X74484104Y-102534649D01*
X74769819Y-103106077D02*
X73769819Y-102772744D01*
X73769819Y-102772744D02*
X74769819Y-102439411D01*
X73769819Y-102248934D02*
X74769819Y-101915601D01*
X74769819Y-101915601D02*
X73769819Y-101582268D01*
X74865057Y-101487030D02*
X74865057Y-100725125D01*
X73769819Y-100296553D02*
X73769819Y-100106077D01*
X73769819Y-100106077D02*
X73817438Y-100010839D01*
X73817438Y-100010839D02*
X73912676Y-99915601D01*
X73912676Y-99915601D02*
X74103152Y-99867982D01*
X74103152Y-99867982D02*
X74436485Y-99867982D01*
X74436485Y-99867982D02*
X74626961Y-99915601D01*
X74626961Y-99915601D02*
X74722200Y-100010839D01*
X74722200Y-100010839D02*
X74769819Y-100106077D01*
X74769819Y-100106077D02*
X74769819Y-100296553D01*
X74769819Y-100296553D02*
X74722200Y-100391791D01*
X74722200Y-100391791D02*
X74626961Y-100487029D01*
X74626961Y-100487029D02*
X74436485Y-100534648D01*
X74436485Y-100534648D02*
X74103152Y-100534648D01*
X74103152Y-100534648D02*
X73912676Y-100487029D01*
X73912676Y-100487029D02*
X73817438Y-100391791D01*
X73817438Y-100391791D02*
X73769819Y-100296553D01*
X73769819Y-99439410D02*
X74579342Y-99439410D01*
X74579342Y-99439410D02*
X74674580Y-99391791D01*
X74674580Y-99391791D02*
X74722200Y-99344172D01*
X74722200Y-99344172D02*
X74769819Y-99248934D01*
X74769819Y-99248934D02*
X74769819Y-99058458D01*
X74769819Y-99058458D02*
X74722200Y-98963220D01*
X74722200Y-98963220D02*
X74674580Y-98915601D01*
X74674580Y-98915601D02*
X74579342Y-98867982D01*
X74579342Y-98867982D02*
X73769819Y-98867982D01*
X73769819Y-98534648D02*
X73769819Y-97963220D01*
X74769819Y-98248934D02*
X73769819Y-98248934D01*
X97246009Y-102529887D02*
X97293628Y-102387030D01*
X97293628Y-102387030D02*
X97341247Y-102339411D01*
X97341247Y-102339411D02*
X97436485Y-102291792D01*
X97436485Y-102291792D02*
X97579342Y-102291792D01*
X97579342Y-102291792D02*
X97674580Y-102339411D01*
X97674580Y-102339411D02*
X97722200Y-102387030D01*
X97722200Y-102387030D02*
X97769819Y-102482268D01*
X97769819Y-102482268D02*
X97769819Y-102863220D01*
X97769819Y-102863220D02*
X96769819Y-102863220D01*
X96769819Y-102863220D02*
X96769819Y-102529887D01*
X96769819Y-102529887D02*
X96817438Y-102434649D01*
X96817438Y-102434649D02*
X96865057Y-102387030D01*
X96865057Y-102387030D02*
X96960295Y-102339411D01*
X96960295Y-102339411D02*
X97055533Y-102339411D01*
X97055533Y-102339411D02*
X97150771Y-102387030D01*
X97150771Y-102387030D02*
X97198390Y-102434649D01*
X97198390Y-102434649D02*
X97246009Y-102529887D01*
X97246009Y-102529887D02*
X97246009Y-102863220D01*
X97769819Y-101387030D02*
X97769819Y-101863220D01*
X97769819Y-101863220D02*
X96769819Y-101863220D01*
X96769819Y-101053696D02*
X97579342Y-101053696D01*
X97579342Y-101053696D02*
X97674580Y-101006077D01*
X97674580Y-101006077D02*
X97722200Y-100958458D01*
X97722200Y-100958458D02*
X97769819Y-100863220D01*
X97769819Y-100863220D02*
X97769819Y-100672744D01*
X97769819Y-100672744D02*
X97722200Y-100577506D01*
X97722200Y-100577506D02*
X97674580Y-100529887D01*
X97674580Y-100529887D02*
X97579342Y-100482268D01*
X97579342Y-100482268D02*
X96769819Y-100482268D01*
X97246009Y-100006077D02*
X97246009Y-99672744D01*
X97769819Y-99529887D02*
X97769819Y-100006077D01*
X97769819Y-100006077D02*
X96769819Y-100006077D01*
X96769819Y-100006077D02*
X96769819Y-99529887D01*
X89217438Y-101939411D02*
X89169819Y-102034649D01*
X89169819Y-102034649D02*
X89169819Y-102177506D01*
X89169819Y-102177506D02*
X89217438Y-102320363D01*
X89217438Y-102320363D02*
X89312676Y-102415601D01*
X89312676Y-102415601D02*
X89407914Y-102463220D01*
X89407914Y-102463220D02*
X89598390Y-102510839D01*
X89598390Y-102510839D02*
X89741247Y-102510839D01*
X89741247Y-102510839D02*
X89931723Y-102463220D01*
X89931723Y-102463220D02*
X90026961Y-102415601D01*
X90026961Y-102415601D02*
X90122200Y-102320363D01*
X90122200Y-102320363D02*
X90169819Y-102177506D01*
X90169819Y-102177506D02*
X90169819Y-102082268D01*
X90169819Y-102082268D02*
X90122200Y-101939411D01*
X90122200Y-101939411D02*
X90074580Y-101891792D01*
X90074580Y-101891792D02*
X89741247Y-101891792D01*
X89741247Y-101891792D02*
X89741247Y-102082268D01*
X90169819Y-100891792D02*
X89693628Y-101225125D01*
X90169819Y-101463220D02*
X89169819Y-101463220D01*
X89169819Y-101463220D02*
X89169819Y-101082268D01*
X89169819Y-101082268D02*
X89217438Y-100987030D01*
X89217438Y-100987030D02*
X89265057Y-100939411D01*
X89265057Y-100939411D02*
X89360295Y-100891792D01*
X89360295Y-100891792D02*
X89503152Y-100891792D01*
X89503152Y-100891792D02*
X89598390Y-100939411D01*
X89598390Y-100939411D02*
X89646009Y-100987030D01*
X89646009Y-100987030D02*
X89693628Y-101082268D01*
X89693628Y-101082268D02*
X89693628Y-101463220D01*
X90169819Y-100463220D02*
X89169819Y-100463220D01*
X89169819Y-100463220D02*
X90169819Y-99891792D01*
X90169819Y-99891792D02*
X89169819Y-99891792D01*
X108169819Y-102872744D02*
X108169819Y-102682268D01*
X108169819Y-102682268D02*
X108217438Y-102587030D01*
X108217438Y-102587030D02*
X108312676Y-102491792D01*
X108312676Y-102491792D02*
X108503152Y-102444173D01*
X108503152Y-102444173D02*
X108836485Y-102444173D01*
X108836485Y-102444173D02*
X109026961Y-102491792D01*
X109026961Y-102491792D02*
X109122200Y-102587030D01*
X109122200Y-102587030D02*
X109169819Y-102682268D01*
X109169819Y-102682268D02*
X109169819Y-102872744D01*
X109169819Y-102872744D02*
X109122200Y-102967982D01*
X109122200Y-102967982D02*
X109026961Y-103063220D01*
X109026961Y-103063220D02*
X108836485Y-103110839D01*
X108836485Y-103110839D02*
X108503152Y-103110839D01*
X108503152Y-103110839D02*
X108312676Y-103063220D01*
X108312676Y-103063220D02*
X108217438Y-102967982D01*
X108217438Y-102967982D02*
X108169819Y-102872744D01*
X108169819Y-102015601D02*
X108979342Y-102015601D01*
X108979342Y-102015601D02*
X109074580Y-101967982D01*
X109074580Y-101967982D02*
X109122200Y-101920363D01*
X109122200Y-101920363D02*
X109169819Y-101825125D01*
X109169819Y-101825125D02*
X109169819Y-101634649D01*
X109169819Y-101634649D02*
X109122200Y-101539411D01*
X109122200Y-101539411D02*
X109074580Y-101491792D01*
X109074580Y-101491792D02*
X108979342Y-101444173D01*
X108979342Y-101444173D02*
X108169819Y-101444173D01*
X108169819Y-101110839D02*
X108169819Y-100539411D01*
X109169819Y-100825125D02*
X108169819Y-100825125D01*
X109265057Y-100444173D02*
X109265057Y-99682268D01*
X109169819Y-98872744D02*
X108693628Y-99206077D01*
X109169819Y-99444172D02*
X108169819Y-99444172D01*
X108169819Y-99444172D02*
X108169819Y-99063220D01*
X108169819Y-99063220D02*
X108217438Y-98967982D01*
X108217438Y-98967982D02*
X108265057Y-98920363D01*
X108265057Y-98920363D02*
X108360295Y-98872744D01*
X108360295Y-98872744D02*
X108503152Y-98872744D01*
X108503152Y-98872744D02*
X108598390Y-98920363D01*
X108598390Y-98920363D02*
X108646009Y-98967982D01*
X108646009Y-98967982D02*
X108693628Y-99063220D01*
X108693628Y-99063220D02*
X108693628Y-99444172D01*
X85417438Y-101839411D02*
X85369819Y-101934649D01*
X85369819Y-101934649D02*
X85369819Y-102077506D01*
X85369819Y-102077506D02*
X85417438Y-102220363D01*
X85417438Y-102220363D02*
X85512676Y-102315601D01*
X85512676Y-102315601D02*
X85607914Y-102363220D01*
X85607914Y-102363220D02*
X85798390Y-102410839D01*
X85798390Y-102410839D02*
X85941247Y-102410839D01*
X85941247Y-102410839D02*
X86131723Y-102363220D01*
X86131723Y-102363220D02*
X86226961Y-102315601D01*
X86226961Y-102315601D02*
X86322200Y-102220363D01*
X86322200Y-102220363D02*
X86369819Y-102077506D01*
X86369819Y-102077506D02*
X86369819Y-101982268D01*
X86369819Y-101982268D02*
X86322200Y-101839411D01*
X86322200Y-101839411D02*
X86274580Y-101791792D01*
X86274580Y-101791792D02*
X85941247Y-101791792D01*
X85941247Y-101791792D02*
X85941247Y-101982268D01*
X86369819Y-101363220D02*
X85369819Y-101363220D01*
X85369819Y-101363220D02*
X86369819Y-100791792D01*
X86369819Y-100791792D02*
X85369819Y-100791792D01*
X86369819Y-100315601D02*
X85369819Y-100315601D01*
X85369819Y-100315601D02*
X85369819Y-100077506D01*
X85369819Y-100077506D02*
X85417438Y-99934649D01*
X85417438Y-99934649D02*
X85512676Y-99839411D01*
X85512676Y-99839411D02*
X85607914Y-99791792D01*
X85607914Y-99791792D02*
X85798390Y-99744173D01*
X85798390Y-99744173D02*
X85941247Y-99744173D01*
X85941247Y-99744173D02*
X86131723Y-99791792D01*
X86131723Y-99791792D02*
X86226961Y-99839411D01*
X86226961Y-99839411D02*
X86322200Y-99934649D01*
X86322200Y-99934649D02*
X86369819Y-100077506D01*
X86369819Y-100077506D02*
X86369819Y-100315601D01*
X77817438Y-101839411D02*
X77769819Y-101934649D01*
X77769819Y-101934649D02*
X77769819Y-102077506D01*
X77769819Y-102077506D02*
X77817438Y-102220363D01*
X77817438Y-102220363D02*
X77912676Y-102315601D01*
X77912676Y-102315601D02*
X78007914Y-102363220D01*
X78007914Y-102363220D02*
X78198390Y-102410839D01*
X78198390Y-102410839D02*
X78341247Y-102410839D01*
X78341247Y-102410839D02*
X78531723Y-102363220D01*
X78531723Y-102363220D02*
X78626961Y-102315601D01*
X78626961Y-102315601D02*
X78722200Y-102220363D01*
X78722200Y-102220363D02*
X78769819Y-102077506D01*
X78769819Y-102077506D02*
X78769819Y-101982268D01*
X78769819Y-101982268D02*
X78722200Y-101839411D01*
X78722200Y-101839411D02*
X78674580Y-101791792D01*
X78674580Y-101791792D02*
X78341247Y-101791792D01*
X78341247Y-101791792D02*
X78341247Y-101982268D01*
X78769819Y-101363220D02*
X77769819Y-101363220D01*
X77769819Y-101363220D02*
X78769819Y-100791792D01*
X78769819Y-100791792D02*
X77769819Y-100791792D01*
X78769819Y-100315601D02*
X77769819Y-100315601D01*
X77769819Y-100315601D02*
X77769819Y-100077506D01*
X77769819Y-100077506D02*
X77817438Y-99934649D01*
X77817438Y-99934649D02*
X77912676Y-99839411D01*
X77912676Y-99839411D02*
X78007914Y-99791792D01*
X78007914Y-99791792D02*
X78198390Y-99744173D01*
X78198390Y-99744173D02*
X78341247Y-99744173D01*
X78341247Y-99744173D02*
X78531723Y-99791792D01*
X78531723Y-99791792D02*
X78626961Y-99839411D01*
X78626961Y-99839411D02*
X78722200Y-99934649D01*
X78722200Y-99934649D02*
X78769819Y-100077506D01*
X78769819Y-100077506D02*
X78769819Y-100315601D01*
X93017438Y-101939411D02*
X92969819Y-102034649D01*
X92969819Y-102034649D02*
X92969819Y-102177506D01*
X92969819Y-102177506D02*
X93017438Y-102320363D01*
X93017438Y-102320363D02*
X93112676Y-102415601D01*
X93112676Y-102415601D02*
X93207914Y-102463220D01*
X93207914Y-102463220D02*
X93398390Y-102510839D01*
X93398390Y-102510839D02*
X93541247Y-102510839D01*
X93541247Y-102510839D02*
X93731723Y-102463220D01*
X93731723Y-102463220D02*
X93826961Y-102415601D01*
X93826961Y-102415601D02*
X93922200Y-102320363D01*
X93922200Y-102320363D02*
X93969819Y-102177506D01*
X93969819Y-102177506D02*
X93969819Y-102082268D01*
X93969819Y-102082268D02*
X93922200Y-101939411D01*
X93922200Y-101939411D02*
X93874580Y-101891792D01*
X93874580Y-101891792D02*
X93541247Y-101891792D01*
X93541247Y-101891792D02*
X93541247Y-102082268D01*
X93969819Y-101463220D02*
X92969819Y-101463220D01*
X92969819Y-101463220D02*
X93969819Y-100891792D01*
X93969819Y-100891792D02*
X92969819Y-100891792D01*
X93969819Y-100415601D02*
X92969819Y-100415601D01*
X92969819Y-100415601D02*
X92969819Y-100177506D01*
X92969819Y-100177506D02*
X93017438Y-100034649D01*
X93017438Y-100034649D02*
X93112676Y-99939411D01*
X93112676Y-99939411D02*
X93207914Y-99891792D01*
X93207914Y-99891792D02*
X93398390Y-99844173D01*
X93398390Y-99844173D02*
X93541247Y-99844173D01*
X93541247Y-99844173D02*
X93731723Y-99891792D01*
X93731723Y-99891792D02*
X93826961Y-99939411D01*
X93826961Y-99939411D02*
X93922200Y-100034649D01*
X93922200Y-100034649D02*
X93969819Y-100177506D01*
X93969819Y-100177506D02*
X93969819Y-100415601D01*
X104369819Y-102872744D02*
X104369819Y-102682268D01*
X104369819Y-102682268D02*
X104417438Y-102587030D01*
X104417438Y-102587030D02*
X104512676Y-102491792D01*
X104512676Y-102491792D02*
X104703152Y-102444173D01*
X104703152Y-102444173D02*
X105036485Y-102444173D01*
X105036485Y-102444173D02*
X105226961Y-102491792D01*
X105226961Y-102491792D02*
X105322200Y-102587030D01*
X105322200Y-102587030D02*
X105369819Y-102682268D01*
X105369819Y-102682268D02*
X105369819Y-102872744D01*
X105369819Y-102872744D02*
X105322200Y-102967982D01*
X105322200Y-102967982D02*
X105226961Y-103063220D01*
X105226961Y-103063220D02*
X105036485Y-103110839D01*
X105036485Y-103110839D02*
X104703152Y-103110839D01*
X104703152Y-103110839D02*
X104512676Y-103063220D01*
X104512676Y-103063220D02*
X104417438Y-102967982D01*
X104417438Y-102967982D02*
X104369819Y-102872744D01*
X104369819Y-102015601D02*
X105179342Y-102015601D01*
X105179342Y-102015601D02*
X105274580Y-101967982D01*
X105274580Y-101967982D02*
X105322200Y-101920363D01*
X105322200Y-101920363D02*
X105369819Y-101825125D01*
X105369819Y-101825125D02*
X105369819Y-101634649D01*
X105369819Y-101634649D02*
X105322200Y-101539411D01*
X105322200Y-101539411D02*
X105274580Y-101491792D01*
X105274580Y-101491792D02*
X105179342Y-101444173D01*
X105179342Y-101444173D02*
X104369819Y-101444173D01*
X104369819Y-101110839D02*
X104369819Y-100539411D01*
X105369819Y-100825125D02*
X104369819Y-100825125D01*
X105465057Y-100444173D02*
X105465057Y-99682268D01*
X105369819Y-98967982D02*
X105369819Y-99444172D01*
X105369819Y-99444172D02*
X104369819Y-99444172D01*
X85500000Y-97900057D02*
X85547619Y-97852438D01*
X85547619Y-97852438D02*
X85642857Y-97804819D01*
X85642857Y-97804819D02*
X85880952Y-97804819D01*
X85880952Y-97804819D02*
X85976190Y-97852438D01*
X85976190Y-97852438D02*
X86023809Y-97900057D01*
X86023809Y-97900057D02*
X86071428Y-97995295D01*
X86071428Y-97995295D02*
X86071428Y-98090533D01*
X86071428Y-98090533D02*
X86023809Y-98233390D01*
X86023809Y-98233390D02*
X85452381Y-98804819D01*
X85452381Y-98804819D02*
X86071428Y-98804819D01*
X86452381Y-97900057D02*
X86500000Y-97852438D01*
X86500000Y-97852438D02*
X86595238Y-97804819D01*
X86595238Y-97804819D02*
X86833333Y-97804819D01*
X86833333Y-97804819D02*
X86928571Y-97852438D01*
X86928571Y-97852438D02*
X86976190Y-97900057D01*
X86976190Y-97900057D02*
X87023809Y-97995295D01*
X87023809Y-97995295D02*
X87023809Y-98090533D01*
X87023809Y-98090533D02*
X86976190Y-98233390D01*
X86976190Y-98233390D02*
X86404762Y-98804819D01*
X86404762Y-98804819D02*
X87023809Y-98804819D01*
X87642857Y-97804819D02*
X87738095Y-97804819D01*
X87738095Y-97804819D02*
X87833333Y-97852438D01*
X87833333Y-97852438D02*
X87880952Y-97900057D01*
X87880952Y-97900057D02*
X87928571Y-97995295D01*
X87928571Y-97995295D02*
X87976190Y-98185771D01*
X87976190Y-98185771D02*
X87976190Y-98423866D01*
X87976190Y-98423866D02*
X87928571Y-98614342D01*
X87928571Y-98614342D02*
X87880952Y-98709580D01*
X87880952Y-98709580D02*
X87833333Y-98757200D01*
X87833333Y-98757200D02*
X87738095Y-98804819D01*
X87738095Y-98804819D02*
X87642857Y-98804819D01*
X87642857Y-98804819D02*
X87547619Y-98757200D01*
X87547619Y-98757200D02*
X87500000Y-98709580D01*
X87500000Y-98709580D02*
X87452381Y-98614342D01*
X87452381Y-98614342D02*
X87404762Y-98423866D01*
X87404762Y-98423866D02*
X87404762Y-98185771D01*
X87404762Y-98185771D02*
X87452381Y-97995295D01*
X87452381Y-97995295D02*
X87500000Y-97900057D01*
X87500000Y-97900057D02*
X87547619Y-97852438D01*
X87547619Y-97852438D02*
X87642857Y-97804819D01*
X89595238Y-98138152D02*
X89595238Y-98804819D01*
X89166667Y-98138152D02*
X89166667Y-98661961D01*
X89166667Y-98661961D02*
X89214286Y-98757200D01*
X89214286Y-98757200D02*
X89309524Y-98804819D01*
X89309524Y-98804819D02*
X89452381Y-98804819D01*
X89452381Y-98804819D02*
X89547619Y-98757200D01*
X89547619Y-98757200D02*
X89595238Y-98709580D01*
X90404762Y-98281009D02*
X90071429Y-98281009D01*
X90071429Y-98804819D02*
X90071429Y-97804819D01*
X90071429Y-97804819D02*
X90547619Y-97804819D01*
X77500000Y-97900057D02*
X77547619Y-97852438D01*
X77547619Y-97852438D02*
X77642857Y-97804819D01*
X77642857Y-97804819D02*
X77880952Y-97804819D01*
X77880952Y-97804819D02*
X77976190Y-97852438D01*
X77976190Y-97852438D02*
X78023809Y-97900057D01*
X78023809Y-97900057D02*
X78071428Y-97995295D01*
X78071428Y-97995295D02*
X78071428Y-98090533D01*
X78071428Y-98090533D02*
X78023809Y-98233390D01*
X78023809Y-98233390D02*
X77452381Y-98804819D01*
X77452381Y-98804819D02*
X78071428Y-98804819D01*
X78452381Y-97900057D02*
X78500000Y-97852438D01*
X78500000Y-97852438D02*
X78595238Y-97804819D01*
X78595238Y-97804819D02*
X78833333Y-97804819D01*
X78833333Y-97804819D02*
X78928571Y-97852438D01*
X78928571Y-97852438D02*
X78976190Y-97900057D01*
X78976190Y-97900057D02*
X79023809Y-97995295D01*
X79023809Y-97995295D02*
X79023809Y-98090533D01*
X79023809Y-98090533D02*
X78976190Y-98233390D01*
X78976190Y-98233390D02*
X78404762Y-98804819D01*
X78404762Y-98804819D02*
X79023809Y-98804819D01*
X79642857Y-97804819D02*
X79738095Y-97804819D01*
X79738095Y-97804819D02*
X79833333Y-97852438D01*
X79833333Y-97852438D02*
X79880952Y-97900057D01*
X79880952Y-97900057D02*
X79928571Y-97995295D01*
X79928571Y-97995295D02*
X79976190Y-98185771D01*
X79976190Y-98185771D02*
X79976190Y-98423866D01*
X79976190Y-98423866D02*
X79928571Y-98614342D01*
X79928571Y-98614342D02*
X79880952Y-98709580D01*
X79880952Y-98709580D02*
X79833333Y-98757200D01*
X79833333Y-98757200D02*
X79738095Y-98804819D01*
X79738095Y-98804819D02*
X79642857Y-98804819D01*
X79642857Y-98804819D02*
X79547619Y-98757200D01*
X79547619Y-98757200D02*
X79500000Y-98709580D01*
X79500000Y-98709580D02*
X79452381Y-98614342D01*
X79452381Y-98614342D02*
X79404762Y-98423866D01*
X79404762Y-98423866D02*
X79404762Y-98185771D01*
X79404762Y-98185771D02*
X79452381Y-97995295D01*
X79452381Y-97995295D02*
X79500000Y-97900057D01*
X79500000Y-97900057D02*
X79547619Y-97852438D01*
X79547619Y-97852438D02*
X79642857Y-97804819D01*
X81595238Y-98138152D02*
X81595238Y-98804819D01*
X81166667Y-98138152D02*
X81166667Y-98661961D01*
X81166667Y-98661961D02*
X81214286Y-98757200D01*
X81214286Y-98757200D02*
X81309524Y-98804819D01*
X81309524Y-98804819D02*
X81452381Y-98804819D01*
X81452381Y-98804819D02*
X81547619Y-98757200D01*
X81547619Y-98757200D02*
X81595238Y-98709580D01*
X82404762Y-98281009D02*
X82071429Y-98281009D01*
X82071429Y-98804819D02*
X82071429Y-97804819D01*
X82071429Y-97804819D02*
X82547619Y-97804819D01*
X101894986Y-84704707D02*
X101892264Y-84811152D01*
X101892264Y-84811152D02*
X101952863Y-84940519D01*
X101952863Y-84940519D02*
X102056586Y-85049686D01*
X102056586Y-85049686D02*
X102183230Y-85095531D01*
X102183230Y-85095531D02*
X102289675Y-85098253D01*
X102289675Y-85098253D02*
X102482364Y-85060575D01*
X102482364Y-85060575D02*
X102611731Y-84999975D01*
X102611731Y-84999975D02*
X102764021Y-84876053D01*
X102764021Y-84876053D02*
X102830065Y-84792531D01*
X102830065Y-84792531D02*
X102875910Y-84665886D01*
X102875910Y-84665886D02*
X102858432Y-84516319D01*
X102858432Y-84516319D02*
X102818032Y-84430075D01*
X102818032Y-84430075D02*
X102714310Y-84320908D01*
X102714310Y-84320908D02*
X102650988Y-84297985D01*
X102650988Y-84297985D02*
X102349132Y-84439385D01*
X102349132Y-84439385D02*
X102429931Y-84611875D01*
X104991642Y-91315359D02*
X104988920Y-91421804D01*
X104988920Y-91421804D02*
X105049519Y-91551171D01*
X105049519Y-91551171D02*
X105153242Y-91660338D01*
X105153242Y-91660338D02*
X105279886Y-91706183D01*
X105279886Y-91706183D02*
X105386331Y-91708905D01*
X105386331Y-91708905D02*
X105579020Y-91671227D01*
X105579020Y-91671227D02*
X105708387Y-91610627D01*
X105708387Y-91610627D02*
X105860677Y-91486705D01*
X105860677Y-91486705D02*
X105926721Y-91403183D01*
X105926721Y-91403183D02*
X105972566Y-91276538D01*
X105972566Y-91276538D02*
X105955088Y-91126971D01*
X105955088Y-91126971D02*
X105914688Y-91040727D01*
X105914688Y-91040727D02*
X105810966Y-90931560D01*
X105810966Y-90931560D02*
X105747644Y-90908637D01*
X105747644Y-90908637D02*
X105445788Y-91050037D01*
X105445788Y-91050037D02*
X105526587Y-91222527D01*
X105652089Y-90480137D02*
X104746520Y-90904336D01*
X104746520Y-90904336D02*
X105409689Y-89962669D01*
X105409689Y-89962669D02*
X104504120Y-90386868D01*
X105207689Y-89531446D02*
X104302121Y-89955645D01*
X104302121Y-89955645D02*
X104201121Y-89740033D01*
X104201121Y-89740033D02*
X104183643Y-89590466D01*
X104183643Y-89590466D02*
X104229488Y-89463822D01*
X104229488Y-89463822D02*
X104295532Y-89380300D01*
X104295532Y-89380300D02*
X104447822Y-89256377D01*
X104447822Y-89256377D02*
X104577189Y-89195777D01*
X104577189Y-89195777D02*
X104769878Y-89158100D01*
X104769878Y-89158100D02*
X104876323Y-89160822D01*
X104876323Y-89160822D02*
X105002967Y-89206667D01*
X105002967Y-89206667D02*
X105106689Y-89315834D01*
X105106689Y-89315834D02*
X105207689Y-89531446D01*
X103721325Y-87593217D02*
X103703847Y-87443650D01*
X103703847Y-87443650D02*
X103726770Y-87380328D01*
X103726770Y-87380328D02*
X103792814Y-87296805D01*
X103792814Y-87296805D02*
X103922181Y-87236205D01*
X103922181Y-87236205D02*
X104028626Y-87238928D01*
X104028626Y-87238928D02*
X104091948Y-87261850D01*
X104091948Y-87261850D02*
X104175470Y-87327895D01*
X104175470Y-87327895D02*
X104337070Y-87672873D01*
X104337070Y-87672873D02*
X103431501Y-88097073D01*
X103431501Y-88097073D02*
X103290102Y-87795217D01*
X103290102Y-87795217D02*
X103292824Y-87688772D01*
X103292824Y-87688772D02*
X103315746Y-87625450D01*
X103315746Y-87625450D02*
X103381791Y-87541927D01*
X103381791Y-87541927D02*
X103468036Y-87501527D01*
X103468036Y-87501527D02*
X103574480Y-87504250D01*
X103574480Y-87504250D02*
X103637802Y-87527172D01*
X103637802Y-87527172D02*
X103721325Y-87593217D01*
X103721325Y-87593217D02*
X103862725Y-87895073D01*
X101470351Y-81317345D02*
X101180528Y-81821201D01*
X101712751Y-81834812D02*
X100807182Y-82259012D01*
X100807182Y-82259012D02*
X100645583Y-81914033D01*
X100645583Y-81914033D02*
X100648305Y-81807589D01*
X100648305Y-81807589D02*
X100671227Y-81744266D01*
X100671227Y-81744266D02*
X100737272Y-81660744D01*
X100737272Y-81660744D02*
X100866639Y-81600144D01*
X100866639Y-81600144D02*
X100973084Y-81602867D01*
X100973084Y-81602867D02*
X101036406Y-81625789D01*
X101036406Y-81625789D02*
X101119928Y-81691834D01*
X101119928Y-81691834D02*
X101281528Y-82036812D01*
X93000000Y-97900057D02*
X93047619Y-97852438D01*
X93047619Y-97852438D02*
X93142857Y-97804819D01*
X93142857Y-97804819D02*
X93380952Y-97804819D01*
X93380952Y-97804819D02*
X93476190Y-97852438D01*
X93476190Y-97852438D02*
X93523809Y-97900057D01*
X93523809Y-97900057D02*
X93571428Y-97995295D01*
X93571428Y-97995295D02*
X93571428Y-98090533D01*
X93571428Y-98090533D02*
X93523809Y-98233390D01*
X93523809Y-98233390D02*
X92952381Y-98804819D01*
X92952381Y-98804819D02*
X93571428Y-98804819D01*
X93952381Y-97900057D02*
X94000000Y-97852438D01*
X94000000Y-97852438D02*
X94095238Y-97804819D01*
X94095238Y-97804819D02*
X94333333Y-97804819D01*
X94333333Y-97804819D02*
X94428571Y-97852438D01*
X94428571Y-97852438D02*
X94476190Y-97900057D01*
X94476190Y-97900057D02*
X94523809Y-97995295D01*
X94523809Y-97995295D02*
X94523809Y-98090533D01*
X94523809Y-98090533D02*
X94476190Y-98233390D01*
X94476190Y-98233390D02*
X93904762Y-98804819D01*
X93904762Y-98804819D02*
X94523809Y-98804819D01*
X95142857Y-97804819D02*
X95238095Y-97804819D01*
X95238095Y-97804819D02*
X95333333Y-97852438D01*
X95333333Y-97852438D02*
X95380952Y-97900057D01*
X95380952Y-97900057D02*
X95428571Y-97995295D01*
X95428571Y-97995295D02*
X95476190Y-98185771D01*
X95476190Y-98185771D02*
X95476190Y-98423866D01*
X95476190Y-98423866D02*
X95428571Y-98614342D01*
X95428571Y-98614342D02*
X95380952Y-98709580D01*
X95380952Y-98709580D02*
X95333333Y-98757200D01*
X95333333Y-98757200D02*
X95238095Y-98804819D01*
X95238095Y-98804819D02*
X95142857Y-98804819D01*
X95142857Y-98804819D02*
X95047619Y-98757200D01*
X95047619Y-98757200D02*
X95000000Y-98709580D01*
X95000000Y-98709580D02*
X94952381Y-98614342D01*
X94952381Y-98614342D02*
X94904762Y-98423866D01*
X94904762Y-98423866D02*
X94904762Y-98185771D01*
X94904762Y-98185771D02*
X94952381Y-97995295D01*
X94952381Y-97995295D02*
X95000000Y-97900057D01*
X95000000Y-97900057D02*
X95047619Y-97852438D01*
X95047619Y-97852438D02*
X95142857Y-97804819D01*
X97095238Y-98138152D02*
X97095238Y-98804819D01*
X96666667Y-98138152D02*
X96666667Y-98661961D01*
X96666667Y-98661961D02*
X96714286Y-98757200D01*
X96714286Y-98757200D02*
X96809524Y-98804819D01*
X96809524Y-98804819D02*
X96952381Y-98804819D01*
X96952381Y-98804819D02*
X97047619Y-98757200D01*
X97047619Y-98757200D02*
X97095238Y-98709580D01*
X97904762Y-98281009D02*
X97571429Y-98281009D01*
X97571429Y-98804819D02*
X97571429Y-97804819D01*
X97571429Y-97804819D02*
X98047619Y-97804819D01*
D11*
%TO.C,JP2*%
X93000000Y-94600000D02*
X93000000Y-93200000D01*
X93700000Y-92500000D02*
X94300000Y-92500000D01*
X94300000Y-95300000D02*
X93700000Y-95300000D01*
X95000000Y-93200000D02*
X95000000Y-94600000D01*
X93000000Y-93200000D02*
G75*
G02*
X93700000Y-92500000I700000J0D01*
G01*
X93700000Y-95300000D02*
G75*
G02*
X93000000Y-94600000I-1J699999D01*
G01*
X94300000Y-92500000D02*
G75*
G02*
X95000000Y-93200000I0J-700000D01*
G01*
X95000000Y-94600000D02*
G75*
G02*
X94300000Y-95300000I-699999J-1D01*
G01*
%TO.C,C2*%
X88340000Y-91554437D02*
X88340000Y-97310000D01*
X88340000Y-97310000D02*
X90690000Y-97310000D01*
X89404437Y-90490000D02*
X88340000Y-91554437D01*
X89404437Y-90490000D02*
X90690000Y-90490000D01*
X93597500Y-89462500D02*
X93597500Y-90250000D01*
X93991250Y-89856250D02*
X93203750Y-89856250D01*
X94095563Y-90490000D02*
X92810000Y-90490000D01*
X94095563Y-90490000D02*
X95160000Y-91554437D01*
X95160000Y-91554437D02*
X95160000Y-97310000D01*
X95160000Y-97310000D02*
X92810000Y-97310000D01*
%TO.C,C1*%
X80590000Y-91554437D02*
X80590000Y-97310000D01*
X80590000Y-97310000D02*
X82940000Y-97310000D01*
X81654437Y-90490000D02*
X80590000Y-91554437D01*
X81654437Y-90490000D02*
X82940000Y-90490000D01*
X85847500Y-89462500D02*
X85847500Y-90250000D01*
X86241250Y-89856250D02*
X85453750Y-89856250D01*
X86345563Y-90490000D02*
X85060000Y-90490000D01*
X86345563Y-90490000D02*
X87410000Y-91554437D01*
X87410000Y-91554437D02*
X87410000Y-97310000D01*
X87410000Y-97310000D02*
X85060000Y-97310000D01*
%TO.C,JP1*%
X85250000Y-94450000D02*
X85250000Y-93050000D01*
X85950000Y-92350000D02*
X86550000Y-92350000D01*
X86550000Y-95150000D02*
X85950000Y-95150000D01*
X87250000Y-93050000D02*
X87250000Y-94450000D01*
X85250000Y-93050000D02*
G75*
G02*
X85950000Y-92350000I700000J0D01*
G01*
X85950000Y-95150000D02*
G75*
G02*
X85250000Y-94450000I-1J699999D01*
G01*
X86550000Y-92350000D02*
G75*
G02*
X87250000Y-93050000I0J-700000D01*
G01*
X87250000Y-94450000D02*
G75*
G02*
X86550000Y-95150000I-699999J-1D01*
G01*
%TO.C,JP3*%
X100500000Y-94600000D02*
X100500000Y-93200000D01*
X101200000Y-92500000D02*
X101800000Y-92500000D01*
X101800000Y-95300000D02*
X101200000Y-95300000D01*
X102500000Y-93200000D02*
X102500000Y-94600000D01*
X100500000Y-93200000D02*
G75*
G02*
X101200000Y-92500000I700000J0D01*
G01*
X101200000Y-95300000D02*
G75*
G02*
X100500000Y-94600000I-1J699999D01*
G01*
X101800000Y-92500000D02*
G75*
G02*
X102500000Y-93200000I0J-700000D01*
G01*
X102500000Y-94600000D02*
G75*
G02*
X101800000Y-95300000I-699999J-1D01*
G01*
%TO.C,C3*%
X95840000Y-91554437D02*
X95840000Y-97310000D01*
X95840000Y-97310000D02*
X98190000Y-97310000D01*
X96904437Y-90490000D02*
X95840000Y-91554437D01*
X96904437Y-90490000D02*
X98190000Y-90490000D01*
X101097500Y-89462500D02*
X101097500Y-90250000D01*
X101491250Y-89856250D02*
X100703750Y-89856250D01*
X101595563Y-90490000D02*
X100310000Y-90490000D01*
X101595563Y-90490000D02*
X102660000Y-91554437D01*
X102660000Y-91554437D02*
X102660000Y-97310000D01*
X102660000Y-97310000D02*
X100310000Y-97310000D01*
%TD*%
M02*
