%TF.GenerationSoftware,KiCad,Pcbnew,8.0.0*%
%TF.CreationDate,2025-10-17T20:28:49+03:00*%
%TF.ProjectId,SCART_Cable_Breakout,53434152-545f-4436-9162-6c655f427265,rev?*%
%TF.SameCoordinates,Original*%
%TF.FileFunction,Legend,Bot*%
%TF.FilePolarity,Positive*%
%FSLAX46Y46*%
G04 Gerber Fmt 4.6, Leading zero omitted, Abs format (unit mm)*
G04 Created by KiCad (PCBNEW 8.0.0) date 2025-10-17 20:28:49*
%MOMM*%
%LPD*%
G01*
G04 APERTURE LIST*
%ADD10C,0.150000*%
%ADD11C,0.120000*%
G04 APERTURE END LIST*
D10*
X77484104Y-99489160D02*
X77484104Y-99965350D01*
X77769819Y-99393922D02*
X76769819Y-99727255D01*
X76769819Y-99727255D02*
X77769819Y-100060588D01*
X76769819Y-100251065D02*
X77769819Y-100584398D01*
X77769819Y-100584398D02*
X76769819Y-100917731D01*
X77865057Y-101012970D02*
X77865057Y-101774874D01*
X77769819Y-102012970D02*
X76769819Y-102012970D01*
X77769819Y-102489160D02*
X76769819Y-102489160D01*
X76769819Y-102489160D02*
X77769819Y-103060588D01*
X77769819Y-103060588D02*
X76769819Y-103060588D01*
X85330149Y-91704761D02*
X85368245Y-91657142D01*
X85368245Y-91657142D02*
X85406340Y-91514285D01*
X85406340Y-91514285D02*
X85406340Y-91419047D01*
X85406340Y-91419047D02*
X85368245Y-91276190D01*
X85368245Y-91276190D02*
X85292054Y-91180952D01*
X85292054Y-91180952D02*
X85215864Y-91133333D01*
X85215864Y-91133333D02*
X85063483Y-91085714D01*
X85063483Y-91085714D02*
X84949197Y-91085714D01*
X84949197Y-91085714D02*
X84796816Y-91133333D01*
X84796816Y-91133333D02*
X84720625Y-91180952D01*
X84720625Y-91180952D02*
X84644435Y-91276190D01*
X84644435Y-91276190D02*
X84606340Y-91419047D01*
X84606340Y-91419047D02*
X84606340Y-91514285D01*
X84606340Y-91514285D02*
X84644435Y-91657142D01*
X84644435Y-91657142D02*
X84682530Y-91704761D01*
X85406340Y-92609523D02*
X85406340Y-92133333D01*
X85406340Y-92133333D02*
X84606340Y-92133333D01*
X84606340Y-93133333D02*
X84606340Y-93323809D01*
X84606340Y-93323809D02*
X84644435Y-93419047D01*
X84644435Y-93419047D02*
X84720625Y-93514285D01*
X84720625Y-93514285D02*
X84873006Y-93561904D01*
X84873006Y-93561904D02*
X85139673Y-93561904D01*
X85139673Y-93561904D02*
X85292054Y-93514285D01*
X85292054Y-93514285D02*
X85368245Y-93419047D01*
X85368245Y-93419047D02*
X85406340Y-93323809D01*
X85406340Y-93323809D02*
X85406340Y-93133333D01*
X85406340Y-93133333D02*
X85368245Y-93038095D01*
X85368245Y-93038095D02*
X85292054Y-92942857D01*
X85292054Y-92942857D02*
X85139673Y-92895238D01*
X85139673Y-92895238D02*
X84873006Y-92895238D01*
X84873006Y-92895238D02*
X84720625Y-92942857D01*
X84720625Y-92942857D02*
X84644435Y-93038095D01*
X84644435Y-93038095D02*
X84606340Y-93133333D01*
X85368245Y-93942857D02*
X85406340Y-94085714D01*
X85406340Y-94085714D02*
X85406340Y-94323809D01*
X85406340Y-94323809D02*
X85368245Y-94419047D01*
X85368245Y-94419047D02*
X85330149Y-94466666D01*
X85330149Y-94466666D02*
X85253959Y-94514285D01*
X85253959Y-94514285D02*
X85177768Y-94514285D01*
X85177768Y-94514285D02*
X85101578Y-94466666D01*
X85101578Y-94466666D02*
X85063483Y-94419047D01*
X85063483Y-94419047D02*
X85025387Y-94323809D01*
X85025387Y-94323809D02*
X84987292Y-94133333D01*
X84987292Y-94133333D02*
X84949197Y-94038095D01*
X84949197Y-94038095D02*
X84911102Y-93990476D01*
X84911102Y-93990476D02*
X84834911Y-93942857D01*
X84834911Y-93942857D02*
X84758721Y-93942857D01*
X84758721Y-93942857D02*
X84682530Y-93990476D01*
X84682530Y-93990476D02*
X84644435Y-94038095D01*
X84644435Y-94038095D02*
X84606340Y-94133333D01*
X84606340Y-94133333D02*
X84606340Y-94371428D01*
X84606340Y-94371428D02*
X84644435Y-94514285D01*
X84987292Y-94942857D02*
X84987292Y-95276190D01*
X85406340Y-95419047D02*
X85406340Y-94942857D01*
X85406340Y-94942857D02*
X84606340Y-94942857D01*
X84606340Y-94942857D02*
X84606340Y-95419047D01*
X85406340Y-96609524D02*
X84606340Y-96609524D01*
X84987292Y-97419047D02*
X84987292Y-97085714D01*
X85406340Y-97085714D02*
X84606340Y-97085714D01*
X84606340Y-97085714D02*
X84606340Y-97561904D01*
X86694295Y-91728571D02*
X85894295Y-91728571D01*
X85894295Y-91728571D02*
X86694295Y-92299999D01*
X86694295Y-92299999D02*
X85894295Y-92299999D01*
X85894295Y-92966666D02*
X85894295Y-93157142D01*
X85894295Y-93157142D02*
X85932390Y-93252380D01*
X85932390Y-93252380D02*
X86008580Y-93347618D01*
X86008580Y-93347618D02*
X86160961Y-93395237D01*
X86160961Y-93395237D02*
X86427628Y-93395237D01*
X86427628Y-93395237D02*
X86580009Y-93347618D01*
X86580009Y-93347618D02*
X86656200Y-93252380D01*
X86656200Y-93252380D02*
X86694295Y-93157142D01*
X86694295Y-93157142D02*
X86694295Y-92966666D01*
X86694295Y-92966666D02*
X86656200Y-92871428D01*
X86656200Y-92871428D02*
X86580009Y-92776190D01*
X86580009Y-92776190D02*
X86427628Y-92728571D01*
X86427628Y-92728571D02*
X86160961Y-92728571D01*
X86160961Y-92728571D02*
X86008580Y-92776190D01*
X86008580Y-92776190D02*
X85932390Y-92871428D01*
X85932390Y-92871428D02*
X85894295Y-92966666D01*
X86694295Y-95109523D02*
X86694295Y-94538095D01*
X86694295Y-94823809D02*
X85894295Y-94823809D01*
X85894295Y-94823809D02*
X86008580Y-94728571D01*
X86008580Y-94728571D02*
X86084771Y-94633333D01*
X86084771Y-94633333D02*
X86122866Y-94538095D01*
X85970485Y-95490476D02*
X85932390Y-95538095D01*
X85932390Y-95538095D02*
X85894295Y-95633333D01*
X85894295Y-95633333D02*
X85894295Y-95871428D01*
X85894295Y-95871428D02*
X85932390Y-95966666D01*
X85932390Y-95966666D02*
X85970485Y-96014285D01*
X85970485Y-96014285D02*
X86046676Y-96061904D01*
X86046676Y-96061904D02*
X86122866Y-96061904D01*
X86122866Y-96061904D02*
X86237152Y-96014285D01*
X86237152Y-96014285D02*
X86694295Y-95442857D01*
X86694295Y-95442857D02*
X86694295Y-96061904D01*
X85894295Y-96347619D02*
X86694295Y-96680952D01*
X86694295Y-96680952D02*
X85894295Y-97014285D01*
X107317438Y-100660588D02*
X107269819Y-100565350D01*
X107269819Y-100565350D02*
X107269819Y-100422493D01*
X107269819Y-100422493D02*
X107317438Y-100279636D01*
X107317438Y-100279636D02*
X107412676Y-100184398D01*
X107412676Y-100184398D02*
X107507914Y-100136779D01*
X107507914Y-100136779D02*
X107698390Y-100089160D01*
X107698390Y-100089160D02*
X107841247Y-100089160D01*
X107841247Y-100089160D02*
X108031723Y-100136779D01*
X108031723Y-100136779D02*
X108126961Y-100184398D01*
X108126961Y-100184398D02*
X108222200Y-100279636D01*
X108222200Y-100279636D02*
X108269819Y-100422493D01*
X108269819Y-100422493D02*
X108269819Y-100517731D01*
X108269819Y-100517731D02*
X108222200Y-100660588D01*
X108222200Y-100660588D02*
X108174580Y-100708207D01*
X108174580Y-100708207D02*
X107841247Y-100708207D01*
X107841247Y-100708207D02*
X107841247Y-100517731D01*
X108269819Y-101136779D02*
X107269819Y-101136779D01*
X107269819Y-101136779D02*
X108269819Y-101708207D01*
X108269819Y-101708207D02*
X107269819Y-101708207D01*
X108269819Y-102184398D02*
X107269819Y-102184398D01*
X107269819Y-102184398D02*
X107269819Y-102422493D01*
X107269819Y-102422493D02*
X107317438Y-102565350D01*
X107317438Y-102565350D02*
X107412676Y-102660588D01*
X107412676Y-102660588D02*
X107507914Y-102708207D01*
X107507914Y-102708207D02*
X107698390Y-102755826D01*
X107698390Y-102755826D02*
X107841247Y-102755826D01*
X107841247Y-102755826D02*
X108031723Y-102708207D01*
X108031723Y-102708207D02*
X108126961Y-102660588D01*
X108126961Y-102660588D02*
X108222200Y-102565350D01*
X108222200Y-102565350D02*
X108269819Y-102422493D01*
X108269819Y-102422493D02*
X108269819Y-102184398D01*
X111437030Y-94509875D02*
X111913220Y-94509875D01*
X111913220Y-94509875D02*
X111960839Y-94986065D01*
X111960839Y-94986065D02*
X111913220Y-94938446D01*
X111913220Y-94938446D02*
X111817982Y-94890827D01*
X111817982Y-94890827D02*
X111579887Y-94890827D01*
X111579887Y-94890827D02*
X111484649Y-94938446D01*
X111484649Y-94938446D02*
X111437030Y-94986065D01*
X111437030Y-94986065D02*
X111389411Y-95081303D01*
X111389411Y-95081303D02*
X111389411Y-95319398D01*
X111389411Y-95319398D02*
X111437030Y-95414636D01*
X111437030Y-95414636D02*
X111484649Y-95462256D01*
X111484649Y-95462256D02*
X111579887Y-95509875D01*
X111579887Y-95509875D02*
X111817982Y-95509875D01*
X111817982Y-95509875D02*
X111913220Y-95462256D01*
X111913220Y-95462256D02*
X111960839Y-95414636D01*
X111103696Y-94509875D02*
X110770363Y-95509875D01*
X110770363Y-95509875D02*
X110437030Y-94509875D01*
X110103696Y-95128922D02*
X109341792Y-95128922D01*
X108865601Y-94843208D02*
X108103697Y-95128922D01*
X108103697Y-95128922D02*
X108865601Y-95414636D01*
X107103697Y-95509875D02*
X107675125Y-95509875D01*
X107389411Y-95509875D02*
X107389411Y-94509875D01*
X107389411Y-94509875D02*
X107484649Y-94652732D01*
X107484649Y-94652732D02*
X107579887Y-94747970D01*
X107579887Y-94747970D02*
X107675125Y-94795589D01*
X106722744Y-94605113D02*
X106675125Y-94557494D01*
X106675125Y-94557494D02*
X106579887Y-94509875D01*
X106579887Y-94509875D02*
X106341792Y-94509875D01*
X106341792Y-94509875D02*
X106246554Y-94557494D01*
X106246554Y-94557494D02*
X106198935Y-94605113D01*
X106198935Y-94605113D02*
X106151316Y-94700351D01*
X106151316Y-94700351D02*
X106151316Y-94795589D01*
X106151316Y-94795589D02*
X106198935Y-94938446D01*
X106198935Y-94938446D02*
X106770363Y-95509875D01*
X106770363Y-95509875D02*
X106151316Y-95509875D01*
X105865601Y-94509875D02*
X105532268Y-95509875D01*
X105532268Y-95509875D02*
X105198935Y-94509875D01*
X111722744Y-96119819D02*
X111532268Y-96119819D01*
X111532268Y-96119819D02*
X111437030Y-96167438D01*
X111437030Y-96167438D02*
X111341792Y-96262676D01*
X111341792Y-96262676D02*
X111294173Y-96453152D01*
X111294173Y-96453152D02*
X111294173Y-96786485D01*
X111294173Y-96786485D02*
X111341792Y-96976961D01*
X111341792Y-96976961D02*
X111437030Y-97072200D01*
X111437030Y-97072200D02*
X111532268Y-97119819D01*
X111532268Y-97119819D02*
X111722744Y-97119819D01*
X111722744Y-97119819D02*
X111817982Y-97072200D01*
X111817982Y-97072200D02*
X111913220Y-96976961D01*
X111913220Y-96976961D02*
X111960839Y-96786485D01*
X111960839Y-96786485D02*
X111960839Y-96453152D01*
X111960839Y-96453152D02*
X111913220Y-96262676D01*
X111913220Y-96262676D02*
X111817982Y-96167438D01*
X111817982Y-96167438D02*
X111722744Y-96119819D01*
X110865601Y-97119819D02*
X110865601Y-96119819D01*
X110865601Y-96119819D02*
X110484649Y-96119819D01*
X110484649Y-96119819D02*
X110389411Y-96167438D01*
X110389411Y-96167438D02*
X110341792Y-96215057D01*
X110341792Y-96215057D02*
X110294173Y-96310295D01*
X110294173Y-96310295D02*
X110294173Y-96453152D01*
X110294173Y-96453152D02*
X110341792Y-96548390D01*
X110341792Y-96548390D02*
X110389411Y-96596009D01*
X110389411Y-96596009D02*
X110484649Y-96643628D01*
X110484649Y-96643628D02*
X110865601Y-96643628D01*
X110008458Y-96119819D02*
X109437030Y-96119819D01*
X109722744Y-97119819D02*
X109722744Y-96119819D01*
X109103696Y-97119819D02*
X109103696Y-96119819D01*
X108437030Y-96119819D02*
X108246554Y-96119819D01*
X108246554Y-96119819D02*
X108151316Y-96167438D01*
X108151316Y-96167438D02*
X108056078Y-96262676D01*
X108056078Y-96262676D02*
X108008459Y-96453152D01*
X108008459Y-96453152D02*
X108008459Y-96786485D01*
X108008459Y-96786485D02*
X108056078Y-96976961D01*
X108056078Y-96976961D02*
X108151316Y-97072200D01*
X108151316Y-97072200D02*
X108246554Y-97119819D01*
X108246554Y-97119819D02*
X108437030Y-97119819D01*
X108437030Y-97119819D02*
X108532268Y-97072200D01*
X108532268Y-97072200D02*
X108627506Y-96976961D01*
X108627506Y-96976961D02*
X108675125Y-96786485D01*
X108675125Y-96786485D02*
X108675125Y-96453152D01*
X108675125Y-96453152D02*
X108627506Y-96262676D01*
X108627506Y-96262676D02*
X108532268Y-96167438D01*
X108532268Y-96167438D02*
X108437030Y-96119819D01*
X107579887Y-97119819D02*
X107579887Y-96119819D01*
X107579887Y-96119819D02*
X107008459Y-97119819D01*
X107008459Y-97119819D02*
X107008459Y-96119819D01*
X74430149Y-93767731D02*
X74468245Y-93722493D01*
X74468245Y-93722493D02*
X74506340Y-93586779D01*
X74506340Y-93586779D02*
X74506340Y-93496303D01*
X74506340Y-93496303D02*
X74468245Y-93360588D01*
X74468245Y-93360588D02*
X74392054Y-93270112D01*
X74392054Y-93270112D02*
X74315864Y-93224874D01*
X74315864Y-93224874D02*
X74163483Y-93179636D01*
X74163483Y-93179636D02*
X74049197Y-93179636D01*
X74049197Y-93179636D02*
X73896816Y-93224874D01*
X73896816Y-93224874D02*
X73820625Y-93270112D01*
X73820625Y-93270112D02*
X73744435Y-93360588D01*
X73744435Y-93360588D02*
X73706340Y-93496303D01*
X73706340Y-93496303D02*
X73706340Y-93586779D01*
X73706340Y-93586779D02*
X73744435Y-93722493D01*
X73744435Y-93722493D02*
X73782530Y-93767731D01*
X74506340Y-94627255D02*
X74506340Y-94174874D01*
X74506340Y-94174874D02*
X73706340Y-94174874D01*
X73706340Y-95124874D02*
X73706340Y-95305827D01*
X73706340Y-95305827D02*
X73744435Y-95396303D01*
X73744435Y-95396303D02*
X73820625Y-95486779D01*
X73820625Y-95486779D02*
X73973006Y-95532017D01*
X73973006Y-95532017D02*
X74239673Y-95532017D01*
X74239673Y-95532017D02*
X74392054Y-95486779D01*
X74392054Y-95486779D02*
X74468245Y-95396303D01*
X74468245Y-95396303D02*
X74506340Y-95305827D01*
X74506340Y-95305827D02*
X74506340Y-95124874D01*
X74506340Y-95124874D02*
X74468245Y-95034398D01*
X74468245Y-95034398D02*
X74392054Y-94943922D01*
X74392054Y-94943922D02*
X74239673Y-94898684D01*
X74239673Y-94898684D02*
X73973006Y-94898684D01*
X73973006Y-94898684D02*
X73820625Y-94943922D01*
X73820625Y-94943922D02*
X73744435Y-95034398D01*
X73744435Y-95034398D02*
X73706340Y-95124874D01*
X74468245Y-95893922D02*
X74506340Y-96029636D01*
X74506340Y-96029636D02*
X74506340Y-96255827D01*
X74506340Y-96255827D02*
X74468245Y-96346303D01*
X74468245Y-96346303D02*
X74430149Y-96391541D01*
X74430149Y-96391541D02*
X74353959Y-96436779D01*
X74353959Y-96436779D02*
X74277768Y-96436779D01*
X74277768Y-96436779D02*
X74201578Y-96391541D01*
X74201578Y-96391541D02*
X74163483Y-96346303D01*
X74163483Y-96346303D02*
X74125387Y-96255827D01*
X74125387Y-96255827D02*
X74087292Y-96074874D01*
X74087292Y-96074874D02*
X74049197Y-95984398D01*
X74049197Y-95984398D02*
X74011102Y-95939160D01*
X74011102Y-95939160D02*
X73934911Y-95893922D01*
X73934911Y-95893922D02*
X73858721Y-95893922D01*
X73858721Y-95893922D02*
X73782530Y-95939160D01*
X73782530Y-95939160D02*
X73744435Y-95984398D01*
X73744435Y-95984398D02*
X73706340Y-96074874D01*
X73706340Y-96074874D02*
X73706340Y-96301065D01*
X73706340Y-96301065D02*
X73744435Y-96436779D01*
X74087292Y-96843922D02*
X74087292Y-97160589D01*
X74506340Y-97296303D02*
X74506340Y-96843922D01*
X74506340Y-96843922D02*
X73706340Y-96843922D01*
X73706340Y-96843922D02*
X73706340Y-97296303D01*
X74506340Y-98427256D02*
X73706340Y-98427256D01*
X74087292Y-99196304D02*
X74087292Y-98879637D01*
X74506340Y-98879637D02*
X73706340Y-98879637D01*
X73706340Y-98879637D02*
X73706340Y-99332018D01*
X75794295Y-93224874D02*
X74994295Y-93224874D01*
X74994295Y-93224874D02*
X75794295Y-93767731D01*
X75794295Y-93767731D02*
X74994295Y-93767731D01*
X74994295Y-94401064D02*
X74994295Y-94582017D01*
X74994295Y-94582017D02*
X75032390Y-94672493D01*
X75032390Y-94672493D02*
X75108580Y-94762969D01*
X75108580Y-94762969D02*
X75260961Y-94808207D01*
X75260961Y-94808207D02*
X75527628Y-94808207D01*
X75527628Y-94808207D02*
X75680009Y-94762969D01*
X75680009Y-94762969D02*
X75756200Y-94672493D01*
X75756200Y-94672493D02*
X75794295Y-94582017D01*
X75794295Y-94582017D02*
X75794295Y-94401064D01*
X75794295Y-94401064D02*
X75756200Y-94310588D01*
X75756200Y-94310588D02*
X75680009Y-94220112D01*
X75680009Y-94220112D02*
X75527628Y-94174874D01*
X75527628Y-94174874D02*
X75260961Y-94174874D01*
X75260961Y-94174874D02*
X75108580Y-94220112D01*
X75108580Y-94220112D02*
X75032390Y-94310588D01*
X75032390Y-94310588D02*
X74994295Y-94401064D01*
X75489533Y-95939160D02*
X75489533Y-96662970D01*
X75794295Y-96301065D02*
X75184771Y-96301065D01*
X74994295Y-97567731D02*
X74994295Y-97115350D01*
X74994295Y-97115350D02*
X75375247Y-97070112D01*
X75375247Y-97070112D02*
X75337152Y-97115350D01*
X75337152Y-97115350D02*
X75299057Y-97205826D01*
X75299057Y-97205826D02*
X75299057Y-97432017D01*
X75299057Y-97432017D02*
X75337152Y-97522493D01*
X75337152Y-97522493D02*
X75375247Y-97567731D01*
X75375247Y-97567731D02*
X75451438Y-97612969D01*
X75451438Y-97612969D02*
X75641914Y-97612969D01*
X75641914Y-97612969D02*
X75718104Y-97567731D01*
X75718104Y-97567731D02*
X75756200Y-97522493D01*
X75756200Y-97522493D02*
X75794295Y-97432017D01*
X75794295Y-97432017D02*
X75794295Y-97205826D01*
X75794295Y-97205826D02*
X75756200Y-97115350D01*
X75756200Y-97115350D02*
X75718104Y-97070112D01*
X74994295Y-97884398D02*
X75794295Y-98201064D01*
X75794295Y-98201064D02*
X74994295Y-98517731D01*
X80717438Y-100660588D02*
X80669819Y-100565350D01*
X80669819Y-100565350D02*
X80669819Y-100422493D01*
X80669819Y-100422493D02*
X80717438Y-100279636D01*
X80717438Y-100279636D02*
X80812676Y-100184398D01*
X80812676Y-100184398D02*
X80907914Y-100136779D01*
X80907914Y-100136779D02*
X81098390Y-100089160D01*
X81098390Y-100089160D02*
X81241247Y-100089160D01*
X81241247Y-100089160D02*
X81431723Y-100136779D01*
X81431723Y-100136779D02*
X81526961Y-100184398D01*
X81526961Y-100184398D02*
X81622200Y-100279636D01*
X81622200Y-100279636D02*
X81669819Y-100422493D01*
X81669819Y-100422493D02*
X81669819Y-100517731D01*
X81669819Y-100517731D02*
X81622200Y-100660588D01*
X81622200Y-100660588D02*
X81574580Y-100708207D01*
X81574580Y-100708207D02*
X81241247Y-100708207D01*
X81241247Y-100708207D02*
X81241247Y-100517731D01*
X81669819Y-101136779D02*
X80669819Y-101136779D01*
X80669819Y-101136779D02*
X81669819Y-101708207D01*
X81669819Y-101708207D02*
X80669819Y-101708207D01*
X81669819Y-102184398D02*
X80669819Y-102184398D01*
X80669819Y-102184398D02*
X80669819Y-102422493D01*
X80669819Y-102422493D02*
X80717438Y-102565350D01*
X80717438Y-102565350D02*
X80812676Y-102660588D01*
X80812676Y-102660588D02*
X80907914Y-102708207D01*
X80907914Y-102708207D02*
X81098390Y-102755826D01*
X81098390Y-102755826D02*
X81241247Y-102755826D01*
X81241247Y-102755826D02*
X81431723Y-102708207D01*
X81431723Y-102708207D02*
X81526961Y-102660588D01*
X81526961Y-102660588D02*
X81622200Y-102565350D01*
X81622200Y-102565350D02*
X81669819Y-102422493D01*
X81669819Y-102422493D02*
X81669819Y-102184398D01*
X84946009Y-99270112D02*
X84993628Y-99412969D01*
X84993628Y-99412969D02*
X85041247Y-99460588D01*
X85041247Y-99460588D02*
X85136485Y-99508207D01*
X85136485Y-99508207D02*
X85279342Y-99508207D01*
X85279342Y-99508207D02*
X85374580Y-99460588D01*
X85374580Y-99460588D02*
X85422200Y-99412969D01*
X85422200Y-99412969D02*
X85469819Y-99317731D01*
X85469819Y-99317731D02*
X85469819Y-98936779D01*
X85469819Y-98936779D02*
X84469819Y-98936779D01*
X84469819Y-98936779D02*
X84469819Y-99270112D01*
X84469819Y-99270112D02*
X84517438Y-99365350D01*
X84517438Y-99365350D02*
X84565057Y-99412969D01*
X84565057Y-99412969D02*
X84660295Y-99460588D01*
X84660295Y-99460588D02*
X84755533Y-99460588D01*
X84755533Y-99460588D02*
X84850771Y-99412969D01*
X84850771Y-99412969D02*
X84898390Y-99365350D01*
X84898390Y-99365350D02*
X84946009Y-99270112D01*
X84946009Y-99270112D02*
X84946009Y-98936779D01*
X85469819Y-100412969D02*
X85469819Y-99936779D01*
X85469819Y-99936779D02*
X84469819Y-99936779D01*
X85184104Y-100698684D02*
X85184104Y-101174874D01*
X85469819Y-100603446D02*
X84469819Y-100936779D01*
X84469819Y-100936779D02*
X85469819Y-101270112D01*
X85469819Y-101603446D02*
X84469819Y-101603446D01*
X84469819Y-101603446D02*
X85469819Y-102174874D01*
X85469819Y-102174874D02*
X84469819Y-102174874D01*
X85469819Y-102651065D02*
X84469819Y-102651065D01*
X85469819Y-103222493D02*
X84898390Y-102793922D01*
X84469819Y-103222493D02*
X85041247Y-102651065D01*
X100622200Y-99889160D02*
X100669819Y-100032017D01*
X100669819Y-100032017D02*
X100669819Y-100270112D01*
X100669819Y-100270112D02*
X100622200Y-100365350D01*
X100622200Y-100365350D02*
X100574580Y-100412969D01*
X100574580Y-100412969D02*
X100479342Y-100460588D01*
X100479342Y-100460588D02*
X100384104Y-100460588D01*
X100384104Y-100460588D02*
X100288866Y-100412969D01*
X100288866Y-100412969D02*
X100241247Y-100365350D01*
X100241247Y-100365350D02*
X100193628Y-100270112D01*
X100193628Y-100270112D02*
X100146009Y-100079636D01*
X100146009Y-100079636D02*
X100098390Y-99984398D01*
X100098390Y-99984398D02*
X100050771Y-99936779D01*
X100050771Y-99936779D02*
X99955533Y-99889160D01*
X99955533Y-99889160D02*
X99860295Y-99889160D01*
X99860295Y-99889160D02*
X99765057Y-99936779D01*
X99765057Y-99936779D02*
X99717438Y-99984398D01*
X99717438Y-99984398D02*
X99669819Y-100079636D01*
X99669819Y-100079636D02*
X99669819Y-100317731D01*
X99669819Y-100317731D02*
X99717438Y-100460588D01*
X99669819Y-100746303D02*
X99669819Y-101317731D01*
X100669819Y-101032017D02*
X99669819Y-101032017D01*
X100384104Y-101603446D02*
X100384104Y-102079636D01*
X100669819Y-101508208D02*
X99669819Y-101841541D01*
X99669819Y-101841541D02*
X100669819Y-102174874D01*
X99669819Y-102365351D02*
X99669819Y-102936779D01*
X100669819Y-102651065D02*
X99669819Y-102651065D01*
X104369819Y-100712969D02*
X104369819Y-100236779D01*
X104369819Y-100236779D02*
X103369819Y-100236779D01*
X104369819Y-101808208D02*
X103369819Y-101808208D01*
X104369819Y-102284398D02*
X103369819Y-102284398D01*
X103369819Y-102284398D02*
X104369819Y-102855826D01*
X104369819Y-102855826D02*
X103369819Y-102855826D01*
X112069819Y-100608207D02*
X111593628Y-100274874D01*
X112069819Y-100036779D02*
X111069819Y-100036779D01*
X111069819Y-100036779D02*
X111069819Y-100417731D01*
X111069819Y-100417731D02*
X111117438Y-100512969D01*
X111117438Y-100512969D02*
X111165057Y-100560588D01*
X111165057Y-100560588D02*
X111260295Y-100608207D01*
X111260295Y-100608207D02*
X111403152Y-100608207D01*
X111403152Y-100608207D02*
X111498390Y-100560588D01*
X111498390Y-100560588D02*
X111546009Y-100512969D01*
X111546009Y-100512969D02*
X111593628Y-100417731D01*
X111593628Y-100417731D02*
X111593628Y-100036779D01*
X112069819Y-101798684D02*
X111069819Y-101798684D01*
X112069819Y-102274874D02*
X111069819Y-102274874D01*
X111069819Y-102274874D02*
X112069819Y-102846302D01*
X112069819Y-102846302D02*
X111069819Y-102846302D01*
X101129174Y-80701265D02*
X101232896Y-80810432D01*
X101232896Y-80810432D02*
X101333896Y-81026043D01*
X101333896Y-81026043D02*
X101331174Y-81132488D01*
X101331174Y-81132488D02*
X101308251Y-81195810D01*
X101308251Y-81195810D02*
X101242207Y-81279332D01*
X101242207Y-81279332D02*
X101155962Y-81319732D01*
X101155962Y-81319732D02*
X101049517Y-81317010D01*
X101049517Y-81317010D02*
X100986195Y-81294088D01*
X100986195Y-81294088D02*
X100902673Y-81228043D01*
X100902673Y-81228043D02*
X100778751Y-81075754D01*
X100778751Y-81075754D02*
X100695228Y-81009709D01*
X100695228Y-81009709D02*
X100631906Y-80986787D01*
X100631906Y-80986787D02*
X100525461Y-80984064D01*
X100525461Y-80984064D02*
X100439217Y-81024464D01*
X100439217Y-81024464D02*
X100373172Y-81107986D01*
X100373172Y-81107986D02*
X100350250Y-81171309D01*
X100350250Y-81171309D02*
X100347527Y-81277753D01*
X100347527Y-81277753D02*
X100448527Y-81493365D01*
X100448527Y-81493365D02*
X100552249Y-81602532D01*
X101246072Y-81961122D02*
X101677296Y-81759123D01*
X100630327Y-81881466D02*
X101246072Y-81961122D01*
X101246072Y-81961122D02*
X100913127Y-82485178D01*
X101960095Y-82362835D02*
X101054526Y-82787035D01*
X101054526Y-82787035D02*
X102202495Y-82880303D01*
X102202495Y-82880303D02*
X101296926Y-83304503D01*
X102077695Y-83511935D02*
X102400894Y-84201892D01*
X102584273Y-83695314D02*
X101894316Y-84018513D01*
X102244303Y-85326938D02*
X102042304Y-84895715D01*
X102042304Y-84895715D02*
X102453327Y-84650593D01*
X102453327Y-84650593D02*
X102430405Y-84713915D01*
X102430405Y-84713915D02*
X102427682Y-84820359D01*
X102427682Y-84820359D02*
X102528682Y-85035971D01*
X102528682Y-85035971D02*
X102612204Y-85102016D01*
X102612204Y-85102016D02*
X102675527Y-85124938D01*
X102675527Y-85124938D02*
X102781971Y-85127660D01*
X102781971Y-85127660D02*
X102997583Y-85026661D01*
X102997583Y-85026661D02*
X103063628Y-84943138D01*
X103063628Y-84943138D02*
X103086550Y-84879816D01*
X103086550Y-84879816D02*
X103089272Y-84773371D01*
X103089272Y-84773371D02*
X102988272Y-84557760D01*
X102988272Y-84557760D02*
X102904750Y-84491715D01*
X102904750Y-84491715D02*
X102841428Y-84468793D01*
X102385703Y-85628794D02*
X103432672Y-85506451D01*
X103432672Y-85506451D02*
X102668503Y-86232507D01*
X105756013Y-90701989D02*
X105183390Y-90602132D01*
X105513613Y-90184521D02*
X104608044Y-90608720D01*
X104608044Y-90608720D02*
X104769644Y-90953699D01*
X104769644Y-90953699D02*
X104853166Y-91019744D01*
X104853166Y-91019744D02*
X104916489Y-91042666D01*
X104916489Y-91042666D02*
X105022933Y-91045388D01*
X105022933Y-91045388D02*
X105152300Y-90984788D01*
X105152300Y-90984788D02*
X105218345Y-90901266D01*
X105218345Y-90901266D02*
X105241267Y-90837944D01*
X105241267Y-90837944D02*
X105243990Y-90731499D01*
X105243990Y-90731499D02*
X105082390Y-90386521D01*
X104400594Y-87808481D02*
X104198594Y-87377258D01*
X104198594Y-87377258D02*
X103293025Y-87801457D01*
X81370057Y-90080952D02*
X81322438Y-90128571D01*
X81322438Y-90128571D02*
X81274819Y-90223809D01*
X81274819Y-90223809D02*
X81274819Y-90461904D01*
X81274819Y-90461904D02*
X81322438Y-90557142D01*
X81322438Y-90557142D02*
X81370057Y-90604761D01*
X81370057Y-90604761D02*
X81465295Y-90652380D01*
X81465295Y-90652380D02*
X81560533Y-90652380D01*
X81560533Y-90652380D02*
X81703390Y-90604761D01*
X81703390Y-90604761D02*
X82274819Y-90033333D01*
X82274819Y-90033333D02*
X82274819Y-90652380D01*
X81370057Y-91033333D02*
X81322438Y-91080952D01*
X81322438Y-91080952D02*
X81274819Y-91176190D01*
X81274819Y-91176190D02*
X81274819Y-91414285D01*
X81274819Y-91414285D02*
X81322438Y-91509523D01*
X81322438Y-91509523D02*
X81370057Y-91557142D01*
X81370057Y-91557142D02*
X81465295Y-91604761D01*
X81465295Y-91604761D02*
X81560533Y-91604761D01*
X81560533Y-91604761D02*
X81703390Y-91557142D01*
X81703390Y-91557142D02*
X82274819Y-90985714D01*
X82274819Y-90985714D02*
X82274819Y-91604761D01*
X81274819Y-92223809D02*
X81274819Y-92319047D01*
X81274819Y-92319047D02*
X81322438Y-92414285D01*
X81322438Y-92414285D02*
X81370057Y-92461904D01*
X81370057Y-92461904D02*
X81465295Y-92509523D01*
X81465295Y-92509523D02*
X81655771Y-92557142D01*
X81655771Y-92557142D02*
X81893866Y-92557142D01*
X81893866Y-92557142D02*
X82084342Y-92509523D01*
X82084342Y-92509523D02*
X82179580Y-92461904D01*
X82179580Y-92461904D02*
X82227200Y-92414285D01*
X82227200Y-92414285D02*
X82274819Y-92319047D01*
X82274819Y-92319047D02*
X82274819Y-92223809D01*
X82274819Y-92223809D02*
X82227200Y-92128571D01*
X82227200Y-92128571D02*
X82179580Y-92080952D01*
X82179580Y-92080952D02*
X82084342Y-92033333D01*
X82084342Y-92033333D02*
X81893866Y-91985714D01*
X81893866Y-91985714D02*
X81655771Y-91985714D01*
X81655771Y-91985714D02*
X81465295Y-92033333D01*
X81465295Y-92033333D02*
X81370057Y-92080952D01*
X81370057Y-92080952D02*
X81322438Y-92128571D01*
X81322438Y-92128571D02*
X81274819Y-92223809D01*
X81608152Y-92985714D02*
X82274819Y-92985714D01*
X81703390Y-92985714D02*
X81655771Y-93033333D01*
X81655771Y-93033333D02*
X81608152Y-93128571D01*
X81608152Y-93128571D02*
X81608152Y-93271428D01*
X81608152Y-93271428D02*
X81655771Y-93366666D01*
X81655771Y-93366666D02*
X81751009Y-93414285D01*
X81751009Y-93414285D02*
X82274819Y-93414285D01*
X81751009Y-94223809D02*
X81751009Y-93890476D01*
X82274819Y-93890476D02*
X81274819Y-93890476D01*
X81274819Y-93890476D02*
X81274819Y-94366666D01*
X100761904Y-90288152D02*
X100761904Y-90954819D01*
X100999999Y-89907200D02*
X101238094Y-90621485D01*
X101238094Y-90621485D02*
X100619047Y-90621485D01*
X100238094Y-90859580D02*
X100190475Y-90907200D01*
X100190475Y-90907200D02*
X100238094Y-90954819D01*
X100238094Y-90954819D02*
X100285713Y-90907200D01*
X100285713Y-90907200D02*
X100238094Y-90859580D01*
X100238094Y-90859580D02*
X100238094Y-90954819D01*
X99857142Y-89954819D02*
X99190476Y-89954819D01*
X99190476Y-89954819D02*
X99619047Y-90954819D01*
X98380952Y-90288152D02*
X98380952Y-90954819D01*
X98809523Y-90288152D02*
X98809523Y-90811961D01*
X98809523Y-90811961D02*
X98761904Y-90907200D01*
X98761904Y-90907200D02*
X98666666Y-90954819D01*
X98666666Y-90954819D02*
X98523809Y-90954819D01*
X98523809Y-90954819D02*
X98428571Y-90907200D01*
X98428571Y-90907200D02*
X98380952Y-90859580D01*
X98047618Y-90288152D02*
X97666666Y-90288152D01*
X97904761Y-90954819D02*
X97904761Y-90097676D01*
X97904761Y-90097676D02*
X97857142Y-90002438D01*
X97857142Y-90002438D02*
X97761904Y-89954819D01*
X97761904Y-89954819D02*
X97666666Y-89954819D01*
X81350057Y-94780952D02*
X81302438Y-94828571D01*
X81302438Y-94828571D02*
X81254819Y-94923809D01*
X81254819Y-94923809D02*
X81254819Y-95161904D01*
X81254819Y-95161904D02*
X81302438Y-95257142D01*
X81302438Y-95257142D02*
X81350057Y-95304761D01*
X81350057Y-95304761D02*
X81445295Y-95352380D01*
X81445295Y-95352380D02*
X81540533Y-95352380D01*
X81540533Y-95352380D02*
X81683390Y-95304761D01*
X81683390Y-95304761D02*
X82254819Y-94733333D01*
X82254819Y-94733333D02*
X82254819Y-95352380D01*
X81350057Y-95733333D02*
X81302438Y-95780952D01*
X81302438Y-95780952D02*
X81254819Y-95876190D01*
X81254819Y-95876190D02*
X81254819Y-96114285D01*
X81254819Y-96114285D02*
X81302438Y-96209523D01*
X81302438Y-96209523D02*
X81350057Y-96257142D01*
X81350057Y-96257142D02*
X81445295Y-96304761D01*
X81445295Y-96304761D02*
X81540533Y-96304761D01*
X81540533Y-96304761D02*
X81683390Y-96257142D01*
X81683390Y-96257142D02*
X82254819Y-95685714D01*
X82254819Y-95685714D02*
X82254819Y-96304761D01*
X81254819Y-96923809D02*
X81254819Y-97019047D01*
X81254819Y-97019047D02*
X81302438Y-97114285D01*
X81302438Y-97114285D02*
X81350057Y-97161904D01*
X81350057Y-97161904D02*
X81445295Y-97209523D01*
X81445295Y-97209523D02*
X81635771Y-97257142D01*
X81635771Y-97257142D02*
X81873866Y-97257142D01*
X81873866Y-97257142D02*
X82064342Y-97209523D01*
X82064342Y-97209523D02*
X82159580Y-97161904D01*
X82159580Y-97161904D02*
X82207200Y-97114285D01*
X82207200Y-97114285D02*
X82254819Y-97019047D01*
X82254819Y-97019047D02*
X82254819Y-96923809D01*
X82254819Y-96923809D02*
X82207200Y-96828571D01*
X82207200Y-96828571D02*
X82159580Y-96780952D01*
X82159580Y-96780952D02*
X82064342Y-96733333D01*
X82064342Y-96733333D02*
X81873866Y-96685714D01*
X81873866Y-96685714D02*
X81635771Y-96685714D01*
X81635771Y-96685714D02*
X81445295Y-96733333D01*
X81445295Y-96733333D02*
X81350057Y-96780952D01*
X81350057Y-96780952D02*
X81302438Y-96828571D01*
X81302438Y-96828571D02*
X81254819Y-96923809D01*
X81588152Y-97685714D02*
X82254819Y-97685714D01*
X81683390Y-97685714D02*
X81635771Y-97733333D01*
X81635771Y-97733333D02*
X81588152Y-97828571D01*
X81588152Y-97828571D02*
X81588152Y-97971428D01*
X81588152Y-97971428D02*
X81635771Y-98066666D01*
X81635771Y-98066666D02*
X81731009Y-98114285D01*
X81731009Y-98114285D02*
X82254819Y-98114285D01*
X81731009Y-98923809D02*
X81731009Y-98590476D01*
X82254819Y-98590476D02*
X81254819Y-98590476D01*
X81254819Y-98590476D02*
X81254819Y-99066666D01*
X90024819Y-88452380D02*
X90024819Y-87880952D01*
X90024819Y-88166666D02*
X89024819Y-88166666D01*
X89024819Y-88166666D02*
X89167676Y-88071428D01*
X89167676Y-88071428D02*
X89262914Y-87976190D01*
X89262914Y-87976190D02*
X89310533Y-87880952D01*
X89024819Y-89071428D02*
X89024819Y-89166666D01*
X89024819Y-89166666D02*
X89072438Y-89261904D01*
X89072438Y-89261904D02*
X89120057Y-89309523D01*
X89120057Y-89309523D02*
X89215295Y-89357142D01*
X89215295Y-89357142D02*
X89405771Y-89404761D01*
X89405771Y-89404761D02*
X89643866Y-89404761D01*
X89643866Y-89404761D02*
X89834342Y-89357142D01*
X89834342Y-89357142D02*
X89929580Y-89309523D01*
X89929580Y-89309523D02*
X89977200Y-89261904D01*
X89977200Y-89261904D02*
X90024819Y-89166666D01*
X90024819Y-89166666D02*
X90024819Y-89071428D01*
X90024819Y-89071428D02*
X89977200Y-88976190D01*
X89977200Y-88976190D02*
X89929580Y-88928571D01*
X89929580Y-88928571D02*
X89834342Y-88880952D01*
X89834342Y-88880952D02*
X89643866Y-88833333D01*
X89643866Y-88833333D02*
X89405771Y-88833333D01*
X89405771Y-88833333D02*
X89215295Y-88880952D01*
X89215295Y-88880952D02*
X89120057Y-88928571D01*
X89120057Y-88928571D02*
X89072438Y-88976190D01*
X89072438Y-88976190D02*
X89024819Y-89071428D01*
X89024819Y-90023809D02*
X89024819Y-90119047D01*
X89024819Y-90119047D02*
X89072438Y-90214285D01*
X89072438Y-90214285D02*
X89120057Y-90261904D01*
X89120057Y-90261904D02*
X89215295Y-90309523D01*
X89215295Y-90309523D02*
X89405771Y-90357142D01*
X89405771Y-90357142D02*
X89643866Y-90357142D01*
X89643866Y-90357142D02*
X89834342Y-90309523D01*
X89834342Y-90309523D02*
X89929580Y-90261904D01*
X89929580Y-90261904D02*
X89977200Y-90214285D01*
X89977200Y-90214285D02*
X90024819Y-90119047D01*
X90024819Y-90119047D02*
X90024819Y-90023809D01*
X90024819Y-90023809D02*
X89977200Y-89928571D01*
X89977200Y-89928571D02*
X89929580Y-89880952D01*
X89929580Y-89880952D02*
X89834342Y-89833333D01*
X89834342Y-89833333D02*
X89643866Y-89785714D01*
X89643866Y-89785714D02*
X89405771Y-89785714D01*
X89405771Y-89785714D02*
X89215295Y-89833333D01*
X89215295Y-89833333D02*
X89120057Y-89880952D01*
X89120057Y-89880952D02*
X89072438Y-89928571D01*
X89072438Y-89928571D02*
X89024819Y-90023809D01*
X89358152Y-90785714D02*
X90024819Y-90785714D01*
X89453390Y-90785714D02*
X89405771Y-90833333D01*
X89405771Y-90833333D02*
X89358152Y-90928571D01*
X89358152Y-90928571D02*
X89358152Y-91071428D01*
X89358152Y-91071428D02*
X89405771Y-91166666D01*
X89405771Y-91166666D02*
X89501009Y-91214285D01*
X89501009Y-91214285D02*
X90024819Y-91214285D01*
X89501009Y-92023809D02*
X89501009Y-91690476D01*
X90024819Y-91690476D02*
X89024819Y-91690476D01*
X89024819Y-91690476D02*
X89024819Y-92166666D01*
X80466666Y-93704819D02*
X81038094Y-93704819D01*
X80752380Y-93704819D02*
X80752380Y-92704819D01*
X80752380Y-92704819D02*
X80847618Y-92847676D01*
X80847618Y-92847676D02*
X80942856Y-92942914D01*
X80942856Y-92942914D02*
X81038094Y-92990533D01*
X79895237Y-93133390D02*
X79990475Y-93085771D01*
X79990475Y-93085771D02*
X80038094Y-93038152D01*
X80038094Y-93038152D02*
X80085713Y-92942914D01*
X80085713Y-92942914D02*
X80085713Y-92895295D01*
X80085713Y-92895295D02*
X80038094Y-92800057D01*
X80038094Y-92800057D02*
X79990475Y-92752438D01*
X79990475Y-92752438D02*
X79895237Y-92704819D01*
X79895237Y-92704819D02*
X79704761Y-92704819D01*
X79704761Y-92704819D02*
X79609523Y-92752438D01*
X79609523Y-92752438D02*
X79561904Y-92800057D01*
X79561904Y-92800057D02*
X79514285Y-92895295D01*
X79514285Y-92895295D02*
X79514285Y-92942914D01*
X79514285Y-92942914D02*
X79561904Y-93038152D01*
X79561904Y-93038152D02*
X79609523Y-93085771D01*
X79609523Y-93085771D02*
X79704761Y-93133390D01*
X79704761Y-93133390D02*
X79895237Y-93133390D01*
X79895237Y-93133390D02*
X79990475Y-93181009D01*
X79990475Y-93181009D02*
X80038094Y-93228628D01*
X80038094Y-93228628D02*
X80085713Y-93323866D01*
X80085713Y-93323866D02*
X80085713Y-93514342D01*
X80085713Y-93514342D02*
X80038094Y-93609580D01*
X80038094Y-93609580D02*
X79990475Y-93657200D01*
X79990475Y-93657200D02*
X79895237Y-93704819D01*
X79895237Y-93704819D02*
X79704761Y-93704819D01*
X79704761Y-93704819D02*
X79609523Y-93657200D01*
X79609523Y-93657200D02*
X79561904Y-93609580D01*
X79561904Y-93609580D02*
X79514285Y-93514342D01*
X79514285Y-93514342D02*
X79514285Y-93323866D01*
X79514285Y-93323866D02*
X79561904Y-93228628D01*
X79561904Y-93228628D02*
X79609523Y-93181009D01*
X79609523Y-93181009D02*
X79704761Y-93133390D01*
X78895237Y-92704819D02*
X78799999Y-92704819D01*
X78799999Y-92704819D02*
X78704761Y-92752438D01*
X78704761Y-92752438D02*
X78657142Y-92800057D01*
X78657142Y-92800057D02*
X78609523Y-92895295D01*
X78609523Y-92895295D02*
X78561904Y-93085771D01*
X78561904Y-93085771D02*
X78561904Y-93323866D01*
X78561904Y-93323866D02*
X78609523Y-93514342D01*
X78609523Y-93514342D02*
X78657142Y-93609580D01*
X78657142Y-93609580D02*
X78704761Y-93657200D01*
X78704761Y-93657200D02*
X78799999Y-93704819D01*
X78799999Y-93704819D02*
X78895237Y-93704819D01*
X78895237Y-93704819D02*
X78990475Y-93657200D01*
X78990475Y-93657200D02*
X79038094Y-93609580D01*
X79038094Y-93609580D02*
X79085713Y-93514342D01*
X79085713Y-93514342D02*
X79133332Y-93323866D01*
X79133332Y-93323866D02*
X79133332Y-93085771D01*
X79133332Y-93085771D02*
X79085713Y-92895295D01*
X79085713Y-92895295D02*
X79038094Y-92800057D01*
X79038094Y-92800057D02*
X78990475Y-92752438D01*
X78990475Y-92752438D02*
X78895237Y-92704819D01*
X77561904Y-93704819D02*
X77895237Y-93228628D01*
X78133332Y-93704819D02*
X78133332Y-92704819D01*
X78133332Y-92704819D02*
X77752380Y-92704819D01*
X77752380Y-92704819D02*
X77657142Y-92752438D01*
X77657142Y-92752438D02*
X77609523Y-92800057D01*
X77609523Y-92800057D02*
X77561904Y-92895295D01*
X77561904Y-92895295D02*
X77561904Y-93038152D01*
X77561904Y-93038152D02*
X77609523Y-93133390D01*
X77609523Y-93133390D02*
X77657142Y-93181009D01*
X77657142Y-93181009D02*
X77752380Y-93228628D01*
X77752380Y-93228628D02*
X78133332Y-93228628D01*
X102204760Y-97388151D02*
X102204760Y-98054818D01*
X102442855Y-97007199D02*
X102680950Y-97721484D01*
X102680950Y-97721484D02*
X102061903Y-97721484D01*
X101680950Y-97959579D02*
X101633331Y-98007199D01*
X101633331Y-98007199D02*
X101680950Y-98054818D01*
X101680950Y-98054818D02*
X101728569Y-98007199D01*
X101728569Y-98007199D02*
X101680950Y-97959579D01*
X101680950Y-97959579D02*
X101680950Y-98054818D01*
X101299998Y-97054818D02*
X100633332Y-97054818D01*
X100633332Y-97054818D02*
X101061903Y-98054818D01*
X99823808Y-97388151D02*
X99823808Y-98054818D01*
X100252379Y-97388151D02*
X100252379Y-97911960D01*
X100252379Y-97911960D02*
X100204760Y-98007199D01*
X100204760Y-98007199D02*
X100109522Y-98054818D01*
X100109522Y-98054818D02*
X99966665Y-98054818D01*
X99966665Y-98054818D02*
X99871427Y-98007199D01*
X99871427Y-98007199D02*
X99823808Y-97959579D01*
X99014284Y-97531008D02*
X99347617Y-97531008D01*
X99347617Y-98054818D02*
X99347617Y-97054818D01*
X99347617Y-97054818D02*
X98871427Y-97054818D01*
X93023809Y-98907200D02*
X92880952Y-98954819D01*
X92880952Y-98954819D02*
X92642857Y-98954819D01*
X92642857Y-98954819D02*
X92547619Y-98907200D01*
X92547619Y-98907200D02*
X92500000Y-98859580D01*
X92500000Y-98859580D02*
X92452381Y-98764342D01*
X92452381Y-98764342D02*
X92452381Y-98669104D01*
X92452381Y-98669104D02*
X92500000Y-98573866D01*
X92500000Y-98573866D02*
X92547619Y-98526247D01*
X92547619Y-98526247D02*
X92642857Y-98478628D01*
X92642857Y-98478628D02*
X92833333Y-98431009D01*
X92833333Y-98431009D02*
X92928571Y-98383390D01*
X92928571Y-98383390D02*
X92976190Y-98335771D01*
X92976190Y-98335771D02*
X93023809Y-98240533D01*
X93023809Y-98240533D02*
X93023809Y-98145295D01*
X93023809Y-98145295D02*
X92976190Y-98050057D01*
X92976190Y-98050057D02*
X92928571Y-98002438D01*
X92928571Y-98002438D02*
X92833333Y-97954819D01*
X92833333Y-97954819D02*
X92595238Y-97954819D01*
X92595238Y-97954819D02*
X92452381Y-98002438D01*
X92166666Y-97954819D02*
X91595238Y-97954819D01*
X91880952Y-98954819D02*
X91880952Y-97954819D01*
X90833333Y-97954819D02*
X91023809Y-97954819D01*
X91023809Y-97954819D02*
X91119047Y-98002438D01*
X91119047Y-98002438D02*
X91166666Y-98050057D01*
X91166666Y-98050057D02*
X91261904Y-98192914D01*
X91261904Y-98192914D02*
X91309523Y-98383390D01*
X91309523Y-98383390D02*
X91309523Y-98764342D01*
X91309523Y-98764342D02*
X91261904Y-98859580D01*
X91261904Y-98859580D02*
X91214285Y-98907200D01*
X91214285Y-98907200D02*
X91119047Y-98954819D01*
X91119047Y-98954819D02*
X90928571Y-98954819D01*
X90928571Y-98954819D02*
X90833333Y-98907200D01*
X90833333Y-98907200D02*
X90785714Y-98859580D01*
X90785714Y-98859580D02*
X90738095Y-98764342D01*
X90738095Y-98764342D02*
X90738095Y-98526247D01*
X90738095Y-98526247D02*
X90785714Y-98431009D01*
X90785714Y-98431009D02*
X90833333Y-98383390D01*
X90833333Y-98383390D02*
X90928571Y-98335771D01*
X90928571Y-98335771D02*
X91119047Y-98335771D01*
X91119047Y-98335771D02*
X91214285Y-98383390D01*
X91214285Y-98383390D02*
X91261904Y-98431009D01*
X91261904Y-98431009D02*
X91309523Y-98526247D01*
X89880952Y-97954819D02*
X90071428Y-97954819D01*
X90071428Y-97954819D02*
X90166666Y-98002438D01*
X90166666Y-98002438D02*
X90214285Y-98050057D01*
X90214285Y-98050057D02*
X90309523Y-98192914D01*
X90309523Y-98192914D02*
X90357142Y-98383390D01*
X90357142Y-98383390D02*
X90357142Y-98764342D01*
X90357142Y-98764342D02*
X90309523Y-98859580D01*
X90309523Y-98859580D02*
X90261904Y-98907200D01*
X90261904Y-98907200D02*
X90166666Y-98954819D01*
X90166666Y-98954819D02*
X89976190Y-98954819D01*
X89976190Y-98954819D02*
X89880952Y-98907200D01*
X89880952Y-98907200D02*
X89833333Y-98859580D01*
X89833333Y-98859580D02*
X89785714Y-98764342D01*
X89785714Y-98764342D02*
X89785714Y-98526247D01*
X89785714Y-98526247D02*
X89833333Y-98431009D01*
X89833333Y-98431009D02*
X89880952Y-98383390D01*
X89880952Y-98383390D02*
X89976190Y-98335771D01*
X89976190Y-98335771D02*
X90166666Y-98335771D01*
X90166666Y-98335771D02*
X90261904Y-98383390D01*
X90261904Y-98383390D02*
X90309523Y-98431009D01*
X90309523Y-98431009D02*
X90357142Y-98526247D01*
X89404761Y-98050057D02*
X89357142Y-98002438D01*
X89357142Y-98002438D02*
X89261904Y-97954819D01*
X89261904Y-97954819D02*
X89023809Y-97954819D01*
X89023809Y-97954819D02*
X88928571Y-98002438D01*
X88928571Y-98002438D02*
X88880952Y-98050057D01*
X88880952Y-98050057D02*
X88833333Y-98145295D01*
X88833333Y-98145295D02*
X88833333Y-98240533D01*
X88833333Y-98240533D02*
X88880952Y-98383390D01*
X88880952Y-98383390D02*
X89452380Y-98954819D01*
X89452380Y-98954819D02*
X88833333Y-98954819D01*
X88452380Y-98669104D02*
X87976190Y-98669104D01*
X88547618Y-98954819D02*
X88214285Y-97954819D01*
X88214285Y-97954819D02*
X87880952Y-98954819D01*
D11*
%TO.C,JP4*%
X76400000Y-96450000D02*
X76400000Y-95050000D01*
X77100000Y-94350000D02*
X77700000Y-94350000D01*
X77700000Y-97150000D02*
X77100000Y-97150000D01*
X78400000Y-95050000D02*
X78400000Y-96450000D01*
X76400000Y-95050000D02*
G75*
G02*
X77100000Y-94350000I699999J1D01*
G01*
X77100000Y-97150000D02*
G75*
G02*
X76400000Y-96450000I0J700000D01*
G01*
X77700000Y-94350000D02*
G75*
G02*
X78400000Y-95050000I1J-699999D01*
G01*
X78400000Y-96450000D02*
G75*
G02*
X77700000Y-97150000I-700000J0D01*
G01*
%TO.C,JP5*%
X86250000Y-90700000D02*
X86250000Y-89300000D01*
X86950000Y-88600000D02*
X87550000Y-88600000D01*
X87550000Y-91400000D02*
X86950000Y-91400000D01*
X88250000Y-89300000D02*
X88250000Y-90700000D01*
X86250000Y-89300000D02*
G75*
G02*
X86950000Y-88600000I700000J0D01*
G01*
X86950000Y-91400000D02*
G75*
G02*
X86250000Y-90700000I-1J699999D01*
G01*
X87550000Y-88600000D02*
G75*
G02*
X88250000Y-89300000I0J-700000D01*
G01*
X88250000Y-90700000D02*
G75*
G02*
X87550000Y-91400000I-699999J-1D01*
G01*
%TO.C,C5*%
X82765000Y-92238748D02*
X82765000Y-92761252D01*
X84235000Y-92238748D02*
X84235000Y-92761252D01*
%TO.C,C7*%
X94206250Y-89453750D02*
X94206250Y-90241250D01*
X94600000Y-89847500D02*
X93812500Y-89847500D01*
X94840000Y-86940000D02*
X94840000Y-85654437D01*
X94840000Y-89060000D02*
X94840000Y-90345563D01*
X95904437Y-84590000D02*
X94840000Y-85654437D01*
X95904437Y-91410000D02*
X94840000Y-90345563D01*
X101660000Y-84590000D02*
X95904437Y-84590000D01*
X101660000Y-86940000D02*
X101660000Y-84590000D01*
X101660000Y-89060000D02*
X101660000Y-91410000D01*
X101660000Y-91410000D02*
X95904437Y-91410000D01*
%TO.C,C4*%
X82765000Y-96238748D02*
X82765000Y-96761252D01*
X84235000Y-96238748D02*
X84235000Y-96761252D01*
%TO.C,C6*%
X90515000Y-89738748D02*
X90515000Y-90261252D01*
X91985000Y-89738748D02*
X91985000Y-90261252D01*
%TO.C,R1*%
X79365000Y-95522936D02*
X79365000Y-95977064D01*
X80835000Y-95522936D02*
X80835000Y-95977064D01*
%TO.C,C8*%
X95706250Y-96703750D02*
X95706250Y-97491250D01*
X96100000Y-97097500D02*
X95312500Y-97097500D01*
X96340000Y-94190000D02*
X96340000Y-92904437D01*
X96340000Y-96310000D02*
X96340000Y-97595563D01*
X97404437Y-91840000D02*
X96340000Y-92904437D01*
X97404437Y-98660000D02*
X96340000Y-97595563D01*
X103160000Y-91840000D02*
X97404437Y-91840000D01*
X103160000Y-94190000D02*
X103160000Y-91840000D01*
X103160000Y-96310000D02*
X103160000Y-98660000D01*
X103160000Y-98660000D02*
X97404437Y-98660000D01*
%TO.C,U1*%
X88550000Y-92440000D02*
X90500000Y-92440000D01*
X88550000Y-97560000D02*
X90500000Y-97560000D01*
X92450000Y-92440000D02*
X90500000Y-92440000D01*
X92450000Y-97560000D02*
X90500000Y-97560000D01*
X88040000Y-97795000D02*
X87560000Y-97795000D01*
X87800000Y-97465000D01*
X88040000Y-97795000D01*
G36*
X88040000Y-97795000D02*
G01*
X87560000Y-97795000D01*
X87800000Y-97465000D01*
X88040000Y-97795000D01*
G37*
%TD*%
M02*
