%TF.GenerationSoftware,KiCad,Pcbnew,8.0.0*%
%TF.CreationDate,2025-10-26T17:29:43+03:00*%
%TF.ProjectId,SCART_Cable_Breakout,53434152-545f-4436-9162-6c655f427265,rev?*%
%TF.SameCoordinates,Original*%
%TF.FileFunction,Legend,Top*%
%TF.FilePolarity,Positive*%
%FSLAX46Y46*%
G04 Gerber Fmt 4.6, Leading zero omitted, Abs format (unit mm)*
G04 Created by KiCad (PCBNEW 8.0.0) date 2025-10-26 17:29:43*
%MOMM*%
%LPD*%
G01*
G04 APERTURE LIST*
%ADD10C,0.000000*%
%ADD11C,0.150000*%
%ADD12C,0.120000*%
G04 APERTURE END LIST*
D10*
G36*
X103345326Y-98049288D02*
G01*
X102861332Y-98049288D01*
X102861332Y-97565294D01*
X103345326Y-97565294D01*
X103345326Y-98049288D01*
G37*
G36*
X103667988Y-98371951D02*
G01*
X102538669Y-98371951D01*
X102538669Y-97403963D01*
X102700000Y-97403963D01*
X102700000Y-98210620D01*
X103506657Y-98210620D01*
X103506657Y-97403963D01*
X102700000Y-97403963D01*
X102538669Y-97403963D01*
X102538669Y-97242632D01*
X103667988Y-97242632D01*
X103667988Y-98371951D01*
G37*
G36*
X107539939Y-93854675D02*
G01*
X107055945Y-93854675D01*
X107055945Y-93370681D01*
X107539939Y-93370681D01*
X107539939Y-93854675D01*
G37*
G36*
X103345326Y-93854675D02*
G01*
X102861332Y-93854675D01*
X102861332Y-93370681D01*
X103345326Y-93370681D01*
X103345326Y-93854675D01*
G37*
G36*
X107862602Y-94177337D02*
G01*
X106733283Y-94177337D01*
X106733283Y-93209349D01*
X106894614Y-93209349D01*
X106894614Y-94016006D01*
X107701271Y-94016006D01*
X107701271Y-93209349D01*
X106894614Y-93209349D01*
X106733283Y-93209349D01*
X106733283Y-93048018D01*
X107862602Y-93048018D01*
X107862602Y-94177337D01*
G37*
G36*
X103667988Y-94177337D02*
G01*
X102538669Y-94177337D01*
X102538669Y-93209349D01*
X102700000Y-93209349D01*
X102700000Y-94016006D01*
X103506657Y-94016006D01*
X103506657Y-93209349D01*
X102700000Y-93209349D01*
X102538669Y-93209349D01*
X102538669Y-93048018D01*
X103667988Y-93048018D01*
X103667988Y-94177337D01*
G37*
G36*
X107701271Y-98371951D02*
G01*
X107539939Y-98371951D01*
X107539939Y-98210620D01*
X107701271Y-98210620D01*
X107701271Y-98371951D01*
G37*
G36*
X106894614Y-98371951D02*
G01*
X106733283Y-98371951D01*
X106733283Y-98210620D01*
X106894614Y-98210620D01*
X106894614Y-98371951D01*
G37*
G36*
X106571952Y-98371951D02*
G01*
X106410620Y-98371951D01*
X106410620Y-98210620D01*
X106571952Y-98210620D01*
X106571952Y-98371951D01*
G37*
G36*
X105926626Y-98371951D02*
G01*
X105765295Y-98371951D01*
X105765295Y-98210620D01*
X105926626Y-98210620D01*
X105926626Y-98371951D01*
G37*
G36*
X105442633Y-98371951D02*
G01*
X105281301Y-98371951D01*
X105281301Y-98210620D01*
X105442633Y-98210620D01*
X105442633Y-98371951D01*
G37*
G36*
X105281301Y-98371951D02*
G01*
X105119970Y-98371951D01*
X105119970Y-98210620D01*
X105281301Y-98210620D01*
X105281301Y-98371951D01*
G37*
G36*
X105119970Y-98371951D02*
G01*
X104958639Y-98371951D01*
X104958639Y-98210620D01*
X105119970Y-98210620D01*
X105119970Y-98371951D01*
G37*
G36*
X104635976Y-98371951D02*
G01*
X104474645Y-98371951D01*
X104474645Y-98210620D01*
X104635976Y-98210620D01*
X104635976Y-98371951D01*
G37*
G36*
X104474645Y-98371951D02*
G01*
X104313313Y-98371951D01*
X104313313Y-98210620D01*
X104474645Y-98210620D01*
X104474645Y-98371951D01*
G37*
G36*
X104313313Y-98371951D02*
G01*
X104151982Y-98371951D01*
X104151982Y-98210620D01*
X104313313Y-98210620D01*
X104313313Y-98371951D01*
G37*
G36*
X103990651Y-98371951D02*
G01*
X103829320Y-98371951D01*
X103829320Y-98210620D01*
X103990651Y-98210620D01*
X103990651Y-98371951D01*
G37*
G36*
X107862602Y-98210620D02*
G01*
X107701271Y-98210620D01*
X107701271Y-98049288D01*
X107862602Y-98049288D01*
X107862602Y-98210620D01*
G37*
G36*
X107701271Y-98210620D02*
G01*
X107539939Y-98210620D01*
X107539939Y-98049288D01*
X107701271Y-98049288D01*
X107701271Y-98210620D01*
G37*
G36*
X107539939Y-98210620D02*
G01*
X107378608Y-98210620D01*
X107378608Y-98049288D01*
X107539939Y-98049288D01*
X107539939Y-98210620D01*
G37*
G36*
X107217277Y-98210620D02*
G01*
X107055945Y-98210620D01*
X107055945Y-98049288D01*
X107217277Y-98049288D01*
X107217277Y-98210620D01*
G37*
G36*
X106733283Y-98210620D02*
G01*
X106571952Y-98210620D01*
X106571952Y-98049288D01*
X106733283Y-98049288D01*
X106733283Y-98210620D01*
G37*
G36*
X106087958Y-98210620D02*
G01*
X105926626Y-98210620D01*
X105926626Y-98049288D01*
X106087958Y-98049288D01*
X106087958Y-98210620D01*
G37*
G36*
X105926626Y-98210620D02*
G01*
X105765295Y-98210620D01*
X105765295Y-98049288D01*
X105926626Y-98049288D01*
X105926626Y-98210620D01*
G37*
G36*
X105765295Y-98210620D02*
G01*
X105603964Y-98210620D01*
X105603964Y-98049288D01*
X105765295Y-98049288D01*
X105765295Y-98210620D01*
G37*
G36*
X105603964Y-98210620D02*
G01*
X105442633Y-98210620D01*
X105442633Y-98049288D01*
X105603964Y-98049288D01*
X105603964Y-98210620D01*
G37*
G36*
X105442633Y-98210620D02*
G01*
X105281301Y-98210620D01*
X105281301Y-98049288D01*
X105442633Y-98049288D01*
X105442633Y-98210620D01*
G37*
G36*
X105119970Y-98210620D02*
G01*
X104958639Y-98210620D01*
X104958639Y-98049288D01*
X105119970Y-98049288D01*
X105119970Y-98210620D01*
G37*
G36*
X104958639Y-98210620D02*
G01*
X104797307Y-98210620D01*
X104797307Y-98049288D01*
X104958639Y-98049288D01*
X104958639Y-98210620D01*
G37*
G36*
X104797307Y-98210620D02*
G01*
X104635976Y-98210620D01*
X104635976Y-98049288D01*
X104797307Y-98049288D01*
X104797307Y-98210620D01*
G37*
G36*
X104635976Y-98210620D02*
G01*
X104474645Y-98210620D01*
X104474645Y-98049288D01*
X104635976Y-98049288D01*
X104635976Y-98210620D01*
G37*
G36*
X104313313Y-98210620D02*
G01*
X104151982Y-98210620D01*
X104151982Y-98049288D01*
X104313313Y-98049288D01*
X104313313Y-98210620D01*
G37*
G36*
X107539939Y-98049288D02*
G01*
X107378608Y-98049288D01*
X107378608Y-97887957D01*
X107539939Y-97887957D01*
X107539939Y-98049288D01*
G37*
G36*
X107378608Y-98049288D02*
G01*
X107217277Y-98049288D01*
X107217277Y-97887957D01*
X107378608Y-97887957D01*
X107378608Y-98049288D01*
G37*
G36*
X107055945Y-98049288D02*
G01*
X106894614Y-98049288D01*
X106894614Y-97887957D01*
X107055945Y-97887957D01*
X107055945Y-98049288D01*
G37*
G36*
X106894614Y-98049288D02*
G01*
X106733283Y-98049288D01*
X106733283Y-97887957D01*
X106894614Y-97887957D01*
X106894614Y-98049288D01*
G37*
G36*
X106733283Y-98049288D02*
G01*
X106571952Y-98049288D01*
X106571952Y-97887957D01*
X106733283Y-97887957D01*
X106733283Y-98049288D01*
G37*
G36*
X106571952Y-98049288D02*
G01*
X106410620Y-98049288D01*
X106410620Y-97887957D01*
X106571952Y-97887957D01*
X106571952Y-98049288D01*
G37*
G36*
X106410620Y-98049288D02*
G01*
X106249289Y-98049288D01*
X106249289Y-97887957D01*
X106410620Y-97887957D01*
X106410620Y-98049288D01*
G37*
G36*
X106249289Y-98049288D02*
G01*
X106087958Y-98049288D01*
X106087958Y-97887957D01*
X106249289Y-97887957D01*
X106249289Y-98049288D01*
G37*
G36*
X105765295Y-98049288D02*
G01*
X105603964Y-98049288D01*
X105603964Y-97887957D01*
X105765295Y-97887957D01*
X105765295Y-98049288D01*
G37*
G36*
X105442633Y-98049288D02*
G01*
X105281301Y-98049288D01*
X105281301Y-97887957D01*
X105442633Y-97887957D01*
X105442633Y-98049288D01*
G37*
G36*
X105281301Y-98049288D02*
G01*
X105119970Y-98049288D01*
X105119970Y-97887957D01*
X105281301Y-97887957D01*
X105281301Y-98049288D01*
G37*
G36*
X105119970Y-98049288D02*
G01*
X104958639Y-98049288D01*
X104958639Y-97887957D01*
X105119970Y-97887957D01*
X105119970Y-98049288D01*
G37*
G36*
X104958639Y-98049288D02*
G01*
X104797307Y-98049288D01*
X104797307Y-97887957D01*
X104958639Y-97887957D01*
X104958639Y-98049288D01*
G37*
G36*
X104797307Y-98049288D02*
G01*
X104635976Y-98049288D01*
X104635976Y-97887957D01*
X104797307Y-97887957D01*
X104797307Y-98049288D01*
G37*
G36*
X104635976Y-98049288D02*
G01*
X104474645Y-98049288D01*
X104474645Y-97887957D01*
X104635976Y-97887957D01*
X104635976Y-98049288D01*
G37*
G36*
X104474645Y-98049288D02*
G01*
X104313313Y-98049288D01*
X104313313Y-97887957D01*
X104474645Y-97887957D01*
X104474645Y-98049288D01*
G37*
G36*
X103990651Y-98049288D02*
G01*
X103829320Y-98049288D01*
X103829320Y-97887957D01*
X103990651Y-97887957D01*
X103990651Y-98049288D01*
G37*
G36*
X107701271Y-97887957D02*
G01*
X107539939Y-97887957D01*
X107539939Y-97726626D01*
X107701271Y-97726626D01*
X107701271Y-97887957D01*
G37*
G36*
X107539939Y-97887957D02*
G01*
X107378608Y-97887957D01*
X107378608Y-97726626D01*
X107539939Y-97726626D01*
X107539939Y-97887957D01*
G37*
G36*
X107378608Y-97887957D02*
G01*
X107217277Y-97887957D01*
X107217277Y-97726626D01*
X107378608Y-97726626D01*
X107378608Y-97887957D01*
G37*
G36*
X107055945Y-97887957D02*
G01*
X106894614Y-97887957D01*
X106894614Y-97726626D01*
X107055945Y-97726626D01*
X107055945Y-97887957D01*
G37*
G36*
X106894614Y-97887957D02*
G01*
X106733283Y-97887957D01*
X106733283Y-97726626D01*
X106894614Y-97726626D01*
X106894614Y-97887957D01*
G37*
G36*
X106733283Y-97887957D02*
G01*
X106571952Y-97887957D01*
X106571952Y-97726626D01*
X106733283Y-97726626D01*
X106733283Y-97887957D01*
G37*
G36*
X106249289Y-97887957D02*
G01*
X106087958Y-97887957D01*
X106087958Y-97726626D01*
X106249289Y-97726626D01*
X106249289Y-97887957D01*
G37*
G36*
X106087958Y-97887957D02*
G01*
X105926626Y-97887957D01*
X105926626Y-97726626D01*
X106087958Y-97726626D01*
X106087958Y-97887957D01*
G37*
G36*
X105765295Y-97887957D02*
G01*
X105603964Y-97887957D01*
X105603964Y-97726626D01*
X105765295Y-97726626D01*
X105765295Y-97887957D01*
G37*
G36*
X105603964Y-97887957D02*
G01*
X105442633Y-97887957D01*
X105442633Y-97726626D01*
X105603964Y-97726626D01*
X105603964Y-97887957D01*
G37*
G36*
X105119970Y-97887957D02*
G01*
X104958639Y-97887957D01*
X104958639Y-97726626D01*
X105119970Y-97726626D01*
X105119970Y-97887957D01*
G37*
G36*
X104958639Y-97887957D02*
G01*
X104797307Y-97887957D01*
X104797307Y-97726626D01*
X104958639Y-97726626D01*
X104958639Y-97887957D01*
G37*
G36*
X104797307Y-97887957D02*
G01*
X104635976Y-97887957D01*
X104635976Y-97726626D01*
X104797307Y-97726626D01*
X104797307Y-97887957D01*
G37*
G36*
X104635976Y-97887957D02*
G01*
X104474645Y-97887957D01*
X104474645Y-97726626D01*
X104635976Y-97726626D01*
X104635976Y-97887957D01*
G37*
G36*
X104313313Y-97887957D02*
G01*
X104151982Y-97887957D01*
X104151982Y-97726626D01*
X104313313Y-97726626D01*
X104313313Y-97887957D01*
G37*
G36*
X104151982Y-97887957D02*
G01*
X103990651Y-97887957D01*
X103990651Y-97726626D01*
X104151982Y-97726626D01*
X104151982Y-97887957D01*
G37*
G36*
X103990651Y-97887957D02*
G01*
X103829320Y-97887957D01*
X103829320Y-97726626D01*
X103990651Y-97726626D01*
X103990651Y-97887957D01*
G37*
G36*
X107701271Y-97726626D02*
G01*
X107539939Y-97726626D01*
X107539939Y-97565294D01*
X107701271Y-97565294D01*
X107701271Y-97726626D01*
G37*
G36*
X107539939Y-97726626D02*
G01*
X107378608Y-97726626D01*
X107378608Y-97565294D01*
X107539939Y-97565294D01*
X107539939Y-97726626D01*
G37*
G36*
X107217277Y-97726626D02*
G01*
X107055945Y-97726626D01*
X107055945Y-97565294D01*
X107217277Y-97565294D01*
X107217277Y-97726626D01*
G37*
G36*
X107055945Y-97726626D02*
G01*
X106894614Y-97726626D01*
X106894614Y-97565294D01*
X107055945Y-97565294D01*
X107055945Y-97726626D01*
G37*
G36*
X106894614Y-97726626D02*
G01*
X106733283Y-97726626D01*
X106733283Y-97565294D01*
X106894614Y-97565294D01*
X106894614Y-97726626D01*
G37*
G36*
X106733283Y-97726626D02*
G01*
X106571952Y-97726626D01*
X106571952Y-97565294D01*
X106733283Y-97565294D01*
X106733283Y-97726626D01*
G37*
G36*
X106571952Y-97726626D02*
G01*
X106410620Y-97726626D01*
X106410620Y-97565294D01*
X106571952Y-97565294D01*
X106571952Y-97726626D01*
G37*
G36*
X106087958Y-97726626D02*
G01*
X105926626Y-97726626D01*
X105926626Y-97565294D01*
X106087958Y-97565294D01*
X106087958Y-97726626D01*
G37*
G36*
X105926626Y-97726626D02*
G01*
X105765295Y-97726626D01*
X105765295Y-97565294D01*
X105926626Y-97565294D01*
X105926626Y-97726626D01*
G37*
G36*
X105281301Y-97726626D02*
G01*
X105119970Y-97726626D01*
X105119970Y-97565294D01*
X105281301Y-97565294D01*
X105281301Y-97726626D01*
G37*
G36*
X105119970Y-97726626D02*
G01*
X104958639Y-97726626D01*
X104958639Y-97565294D01*
X105119970Y-97565294D01*
X105119970Y-97726626D01*
G37*
G36*
X104474645Y-97726626D02*
G01*
X104313313Y-97726626D01*
X104313313Y-97565294D01*
X104474645Y-97565294D01*
X104474645Y-97726626D01*
G37*
G36*
X104151982Y-97726626D02*
G01*
X103990651Y-97726626D01*
X103990651Y-97565294D01*
X104151982Y-97565294D01*
X104151982Y-97726626D01*
G37*
G36*
X103990651Y-97726626D02*
G01*
X103829320Y-97726626D01*
X103829320Y-97565294D01*
X103990651Y-97565294D01*
X103990651Y-97726626D01*
G37*
G36*
X107862602Y-97565294D02*
G01*
X107701271Y-97565294D01*
X107701271Y-97403963D01*
X107862602Y-97403963D01*
X107862602Y-97565294D01*
G37*
G36*
X107701271Y-97565294D02*
G01*
X107539939Y-97565294D01*
X107539939Y-97403963D01*
X107701271Y-97403963D01*
X107701271Y-97565294D01*
G37*
G36*
X107539939Y-97565294D02*
G01*
X107378608Y-97565294D01*
X107378608Y-97403963D01*
X107539939Y-97403963D01*
X107539939Y-97565294D01*
G37*
G36*
X107378608Y-97565294D02*
G01*
X107217277Y-97565294D01*
X107217277Y-97403963D01*
X107378608Y-97403963D01*
X107378608Y-97565294D01*
G37*
G36*
X107217277Y-97565294D02*
G01*
X107055945Y-97565294D01*
X107055945Y-97403963D01*
X107217277Y-97403963D01*
X107217277Y-97565294D01*
G37*
G36*
X106571952Y-97565294D02*
G01*
X106410620Y-97565294D01*
X106410620Y-97403963D01*
X106571952Y-97403963D01*
X106571952Y-97565294D01*
G37*
G36*
X106410620Y-97565294D02*
G01*
X106249289Y-97565294D01*
X106249289Y-97403963D01*
X106410620Y-97403963D01*
X106410620Y-97565294D01*
G37*
G36*
X106087958Y-97565294D02*
G01*
X105926626Y-97565294D01*
X105926626Y-97403963D01*
X106087958Y-97403963D01*
X106087958Y-97565294D01*
G37*
G36*
X105926626Y-97565294D02*
G01*
X105765295Y-97565294D01*
X105765295Y-97403963D01*
X105926626Y-97403963D01*
X105926626Y-97565294D01*
G37*
G36*
X105765295Y-97565294D02*
G01*
X105603964Y-97565294D01*
X105603964Y-97403963D01*
X105765295Y-97403963D01*
X105765295Y-97565294D01*
G37*
G36*
X105603964Y-97565294D02*
G01*
X105442633Y-97565294D01*
X105442633Y-97403963D01*
X105603964Y-97403963D01*
X105603964Y-97565294D01*
G37*
G36*
X105442633Y-97565294D02*
G01*
X105281301Y-97565294D01*
X105281301Y-97403963D01*
X105442633Y-97403963D01*
X105442633Y-97565294D01*
G37*
G36*
X105281301Y-97565294D02*
G01*
X105119970Y-97565294D01*
X105119970Y-97403963D01*
X105281301Y-97403963D01*
X105281301Y-97565294D01*
G37*
G36*
X104958639Y-97565294D02*
G01*
X104797307Y-97565294D01*
X104797307Y-97403963D01*
X104958639Y-97403963D01*
X104958639Y-97565294D01*
G37*
G36*
X104635976Y-97565294D02*
G01*
X104474645Y-97565294D01*
X104474645Y-97403963D01*
X104635976Y-97403963D01*
X104635976Y-97565294D01*
G37*
G36*
X104474645Y-97565294D02*
G01*
X104313313Y-97565294D01*
X104313313Y-97403963D01*
X104474645Y-97403963D01*
X104474645Y-97565294D01*
G37*
G36*
X104151982Y-97565294D02*
G01*
X103990651Y-97565294D01*
X103990651Y-97403963D01*
X104151982Y-97403963D01*
X104151982Y-97565294D01*
G37*
G36*
X103990651Y-97565294D02*
G01*
X103829320Y-97565294D01*
X103829320Y-97403963D01*
X103990651Y-97403963D01*
X103990651Y-97565294D01*
G37*
G36*
X107378608Y-97403963D02*
G01*
X107217277Y-97403963D01*
X107217277Y-97242632D01*
X107378608Y-97242632D01*
X107378608Y-97403963D01*
G37*
G36*
X107217277Y-97403963D02*
G01*
X107055945Y-97403963D01*
X107055945Y-97242632D01*
X107217277Y-97242632D01*
X107217277Y-97403963D01*
G37*
G36*
X106894614Y-97403963D02*
G01*
X106733283Y-97403963D01*
X106733283Y-97242632D01*
X106894614Y-97242632D01*
X106894614Y-97403963D01*
G37*
G36*
X106571952Y-97403963D02*
G01*
X106410620Y-97403963D01*
X106410620Y-97242632D01*
X106571952Y-97242632D01*
X106571952Y-97403963D01*
G37*
G36*
X106410620Y-97403963D02*
G01*
X106249289Y-97403963D01*
X106249289Y-97242632D01*
X106410620Y-97242632D01*
X106410620Y-97403963D01*
G37*
G36*
X106249289Y-97403963D02*
G01*
X106087958Y-97403963D01*
X106087958Y-97242632D01*
X106249289Y-97242632D01*
X106249289Y-97403963D01*
G37*
G36*
X105765295Y-97403963D02*
G01*
X105603964Y-97403963D01*
X105603964Y-97242632D01*
X105765295Y-97242632D01*
X105765295Y-97403963D01*
G37*
G36*
X105442633Y-97403963D02*
G01*
X105281301Y-97403963D01*
X105281301Y-97242632D01*
X105442633Y-97242632D01*
X105442633Y-97403963D01*
G37*
G36*
X105281301Y-97403963D02*
G01*
X105119970Y-97403963D01*
X105119970Y-97242632D01*
X105281301Y-97242632D01*
X105281301Y-97403963D01*
G37*
G36*
X105119970Y-97403963D02*
G01*
X104958639Y-97403963D01*
X104958639Y-97242632D01*
X105119970Y-97242632D01*
X105119970Y-97403963D01*
G37*
G36*
X104958639Y-97403963D02*
G01*
X104797307Y-97403963D01*
X104797307Y-97242632D01*
X104958639Y-97242632D01*
X104958639Y-97403963D01*
G37*
G36*
X104797307Y-97403963D02*
G01*
X104635976Y-97403963D01*
X104635976Y-97242632D01*
X104797307Y-97242632D01*
X104797307Y-97403963D01*
G37*
G36*
X104474645Y-97403963D02*
G01*
X104313313Y-97403963D01*
X104313313Y-97242632D01*
X104474645Y-97242632D01*
X104474645Y-97403963D01*
G37*
G36*
X107862602Y-97242632D02*
G01*
X107701271Y-97242632D01*
X107701271Y-97081301D01*
X107862602Y-97081301D01*
X107862602Y-97242632D01*
G37*
G36*
X107539939Y-97242632D02*
G01*
X107378608Y-97242632D01*
X107378608Y-97081301D01*
X107539939Y-97081301D01*
X107539939Y-97242632D01*
G37*
G36*
X107378608Y-97242632D02*
G01*
X107217277Y-97242632D01*
X107217277Y-97081301D01*
X107378608Y-97081301D01*
X107378608Y-97242632D01*
G37*
G36*
X107217277Y-97242632D02*
G01*
X107055945Y-97242632D01*
X107055945Y-97081301D01*
X107217277Y-97081301D01*
X107217277Y-97242632D01*
G37*
G36*
X106571952Y-97242632D02*
G01*
X106410620Y-97242632D01*
X106410620Y-97081301D01*
X106571952Y-97081301D01*
X106571952Y-97242632D01*
G37*
G36*
X106410620Y-97242632D02*
G01*
X106249289Y-97242632D01*
X106249289Y-97081301D01*
X106410620Y-97081301D01*
X106410620Y-97242632D01*
G37*
G36*
X106087958Y-97242632D02*
G01*
X105926626Y-97242632D01*
X105926626Y-97081301D01*
X106087958Y-97081301D01*
X106087958Y-97242632D01*
G37*
G36*
X105926626Y-97242632D02*
G01*
X105765295Y-97242632D01*
X105765295Y-97081301D01*
X105926626Y-97081301D01*
X105926626Y-97242632D01*
G37*
G36*
X105765295Y-97242632D02*
G01*
X105603964Y-97242632D01*
X105603964Y-97081301D01*
X105765295Y-97081301D01*
X105765295Y-97242632D01*
G37*
G36*
X105603964Y-97242632D02*
G01*
X105442633Y-97242632D01*
X105442633Y-97081301D01*
X105603964Y-97081301D01*
X105603964Y-97242632D01*
G37*
G36*
X105442633Y-97242632D02*
G01*
X105281301Y-97242632D01*
X105281301Y-97081301D01*
X105442633Y-97081301D01*
X105442633Y-97242632D01*
G37*
G36*
X105281301Y-97242632D02*
G01*
X105119970Y-97242632D01*
X105119970Y-97081301D01*
X105281301Y-97081301D01*
X105281301Y-97242632D01*
G37*
G36*
X105119970Y-97242632D02*
G01*
X104958639Y-97242632D01*
X104958639Y-97081301D01*
X105119970Y-97081301D01*
X105119970Y-97242632D01*
G37*
G36*
X104797307Y-97242632D02*
G01*
X104635976Y-97242632D01*
X104635976Y-97081301D01*
X104797307Y-97081301D01*
X104797307Y-97242632D01*
G37*
G36*
X104313313Y-97242632D02*
G01*
X104151982Y-97242632D01*
X104151982Y-97081301D01*
X104313313Y-97081301D01*
X104313313Y-97242632D01*
G37*
G36*
X103990651Y-97242632D02*
G01*
X103829320Y-97242632D01*
X103829320Y-97081301D01*
X103990651Y-97081301D01*
X103990651Y-97242632D01*
G37*
G36*
X107862602Y-97081301D02*
G01*
X107701271Y-97081301D01*
X107701271Y-96919969D01*
X107862602Y-96919969D01*
X107862602Y-97081301D01*
G37*
G36*
X107539939Y-97081301D02*
G01*
X107378608Y-97081301D01*
X107378608Y-96919969D01*
X107539939Y-96919969D01*
X107539939Y-97081301D01*
G37*
G36*
X107378608Y-97081301D02*
G01*
X107217277Y-97081301D01*
X107217277Y-96919969D01*
X107378608Y-96919969D01*
X107378608Y-97081301D01*
G37*
G36*
X107217277Y-97081301D02*
G01*
X107055945Y-97081301D01*
X107055945Y-96919969D01*
X107217277Y-96919969D01*
X107217277Y-97081301D01*
G37*
G36*
X107055945Y-97081301D02*
G01*
X106894614Y-97081301D01*
X106894614Y-96919969D01*
X107055945Y-96919969D01*
X107055945Y-97081301D01*
G37*
G36*
X106894614Y-97081301D02*
G01*
X106733283Y-97081301D01*
X106733283Y-96919969D01*
X106894614Y-96919969D01*
X106894614Y-97081301D01*
G37*
G36*
X106733283Y-97081301D02*
G01*
X106571952Y-97081301D01*
X106571952Y-96919969D01*
X106733283Y-96919969D01*
X106733283Y-97081301D01*
G37*
G36*
X106571952Y-97081301D02*
G01*
X106410620Y-97081301D01*
X106410620Y-96919969D01*
X106571952Y-96919969D01*
X106571952Y-97081301D01*
G37*
G36*
X106249289Y-97081301D02*
G01*
X106087958Y-97081301D01*
X106087958Y-96919969D01*
X106249289Y-96919969D01*
X106249289Y-97081301D01*
G37*
G36*
X105926626Y-97081301D02*
G01*
X105765295Y-97081301D01*
X105765295Y-96919969D01*
X105926626Y-96919969D01*
X105926626Y-97081301D01*
G37*
G36*
X105603964Y-97081301D02*
G01*
X105442633Y-97081301D01*
X105442633Y-96919969D01*
X105603964Y-96919969D01*
X105603964Y-97081301D01*
G37*
G36*
X105442633Y-97081301D02*
G01*
X105281301Y-97081301D01*
X105281301Y-96919969D01*
X105442633Y-96919969D01*
X105442633Y-97081301D01*
G37*
G36*
X104958639Y-97081301D02*
G01*
X104797307Y-97081301D01*
X104797307Y-96919969D01*
X104958639Y-96919969D01*
X104958639Y-97081301D01*
G37*
G36*
X104797307Y-97081301D02*
G01*
X104635976Y-97081301D01*
X104635976Y-96919969D01*
X104797307Y-96919969D01*
X104797307Y-97081301D01*
G37*
G36*
X104635976Y-97081301D02*
G01*
X104474645Y-97081301D01*
X104474645Y-96919969D01*
X104635976Y-96919969D01*
X104635976Y-97081301D01*
G37*
G36*
X104474645Y-97081301D02*
G01*
X104313313Y-97081301D01*
X104313313Y-96919969D01*
X104474645Y-96919969D01*
X104474645Y-97081301D01*
G37*
G36*
X103667988Y-97081301D02*
G01*
X103506657Y-97081301D01*
X103506657Y-96919969D01*
X103667988Y-96919969D01*
X103667988Y-97081301D01*
G37*
G36*
X103506657Y-97081301D02*
G01*
X103345326Y-97081301D01*
X103345326Y-96919969D01*
X103506657Y-96919969D01*
X103506657Y-97081301D01*
G37*
G36*
X103022663Y-97081301D02*
G01*
X102861332Y-97081301D01*
X102861332Y-96919969D01*
X103022663Y-96919969D01*
X103022663Y-97081301D01*
G37*
G36*
X102700000Y-97081301D02*
G01*
X102538669Y-97081301D01*
X102538669Y-96919969D01*
X102700000Y-96919969D01*
X102700000Y-97081301D01*
G37*
G36*
X107862602Y-96919969D02*
G01*
X107701271Y-96919969D01*
X107701271Y-96758638D01*
X107862602Y-96758638D01*
X107862602Y-96919969D01*
G37*
G36*
X107539939Y-96919969D02*
G01*
X107378608Y-96919969D01*
X107378608Y-96758638D01*
X107539939Y-96758638D01*
X107539939Y-96919969D01*
G37*
G36*
X106894614Y-96919969D02*
G01*
X106733283Y-96919969D01*
X106733283Y-96758638D01*
X106894614Y-96758638D01*
X106894614Y-96919969D01*
G37*
G36*
X106410620Y-96919969D02*
G01*
X106249289Y-96919969D01*
X106249289Y-96758638D01*
X106410620Y-96758638D01*
X106410620Y-96919969D01*
G37*
G36*
X105926626Y-96919969D02*
G01*
X105765295Y-96919969D01*
X105765295Y-96758638D01*
X105926626Y-96758638D01*
X105926626Y-96919969D01*
G37*
G36*
X105765295Y-96919969D02*
G01*
X105603964Y-96919969D01*
X105603964Y-96758638D01*
X105765295Y-96758638D01*
X105765295Y-96919969D01*
G37*
G36*
X105603964Y-96919969D02*
G01*
X105442633Y-96919969D01*
X105442633Y-96758638D01*
X105603964Y-96758638D01*
X105603964Y-96919969D01*
G37*
G36*
X105281301Y-96919969D02*
G01*
X105119970Y-96919969D01*
X105119970Y-96758638D01*
X105281301Y-96758638D01*
X105281301Y-96919969D01*
G37*
G36*
X104958639Y-96919969D02*
G01*
X104797307Y-96919969D01*
X104797307Y-96758638D01*
X104958639Y-96758638D01*
X104958639Y-96919969D01*
G37*
G36*
X104635976Y-96919969D02*
G01*
X104474645Y-96919969D01*
X104474645Y-96758638D01*
X104635976Y-96758638D01*
X104635976Y-96919969D01*
G37*
G36*
X104151982Y-96919969D02*
G01*
X103990651Y-96919969D01*
X103990651Y-96758638D01*
X104151982Y-96758638D01*
X104151982Y-96919969D01*
G37*
G36*
X103990651Y-96919969D02*
G01*
X103829320Y-96919969D01*
X103829320Y-96758638D01*
X103990651Y-96758638D01*
X103990651Y-96919969D01*
G37*
G36*
X102700000Y-96919969D02*
G01*
X102538669Y-96919969D01*
X102538669Y-96758638D01*
X102700000Y-96758638D01*
X102700000Y-96919969D01*
G37*
G36*
X107701271Y-96758638D02*
G01*
X107539939Y-96758638D01*
X107539939Y-96597307D01*
X107701271Y-96597307D01*
X107701271Y-96758638D01*
G37*
G36*
X107539939Y-96758638D02*
G01*
X107378608Y-96758638D01*
X107378608Y-96597307D01*
X107539939Y-96597307D01*
X107539939Y-96758638D01*
G37*
G36*
X106571952Y-96758638D02*
G01*
X106410620Y-96758638D01*
X106410620Y-96597307D01*
X106571952Y-96597307D01*
X106571952Y-96758638D01*
G37*
G36*
X106410620Y-96758638D02*
G01*
X106249289Y-96758638D01*
X106249289Y-96597307D01*
X106410620Y-96597307D01*
X106410620Y-96758638D01*
G37*
G36*
X105765295Y-96758638D02*
G01*
X105603964Y-96758638D01*
X105603964Y-96597307D01*
X105765295Y-96597307D01*
X105765295Y-96758638D01*
G37*
G36*
X105442633Y-96758638D02*
G01*
X105281301Y-96758638D01*
X105281301Y-96597307D01*
X105442633Y-96597307D01*
X105442633Y-96758638D01*
G37*
G36*
X104797307Y-96758638D02*
G01*
X104635976Y-96758638D01*
X104635976Y-96597307D01*
X104797307Y-96597307D01*
X104797307Y-96758638D01*
G37*
G36*
X104635976Y-96758638D02*
G01*
X104474645Y-96758638D01*
X104474645Y-96597307D01*
X104635976Y-96597307D01*
X104635976Y-96758638D01*
G37*
G36*
X104474645Y-96758638D02*
G01*
X104313313Y-96758638D01*
X104313313Y-96597307D01*
X104474645Y-96597307D01*
X104474645Y-96758638D01*
G37*
G36*
X104313313Y-96758638D02*
G01*
X104151982Y-96758638D01*
X104151982Y-96597307D01*
X104313313Y-96597307D01*
X104313313Y-96758638D01*
G37*
G36*
X104151982Y-96758638D02*
G01*
X103990651Y-96758638D01*
X103990651Y-96597307D01*
X104151982Y-96597307D01*
X104151982Y-96758638D01*
G37*
G36*
X103990651Y-96758638D02*
G01*
X103829320Y-96758638D01*
X103829320Y-96597307D01*
X103990651Y-96597307D01*
X103990651Y-96758638D01*
G37*
G36*
X103667988Y-96758638D02*
G01*
X103506657Y-96758638D01*
X103506657Y-96597307D01*
X103667988Y-96597307D01*
X103667988Y-96758638D01*
G37*
G36*
X103183994Y-96758638D02*
G01*
X103022663Y-96758638D01*
X103022663Y-96597307D01*
X103183994Y-96597307D01*
X103183994Y-96758638D01*
G37*
G36*
X102700000Y-96758638D02*
G01*
X102538669Y-96758638D01*
X102538669Y-96597307D01*
X102700000Y-96597307D01*
X102700000Y-96758638D01*
G37*
G36*
X107539939Y-96597307D02*
G01*
X107378608Y-96597307D01*
X107378608Y-96435975D01*
X107539939Y-96435975D01*
X107539939Y-96597307D01*
G37*
G36*
X107378608Y-96597307D02*
G01*
X107217277Y-96597307D01*
X107217277Y-96435975D01*
X107378608Y-96435975D01*
X107378608Y-96597307D01*
G37*
G36*
X106733283Y-96597307D02*
G01*
X106571952Y-96597307D01*
X106571952Y-96435975D01*
X106733283Y-96435975D01*
X106733283Y-96597307D01*
G37*
G36*
X106249289Y-96597307D02*
G01*
X106087958Y-96597307D01*
X106087958Y-96435975D01*
X106249289Y-96435975D01*
X106249289Y-96597307D01*
G37*
G36*
X106087958Y-96597307D02*
G01*
X105926626Y-96597307D01*
X105926626Y-96435975D01*
X106087958Y-96435975D01*
X106087958Y-96597307D01*
G37*
G36*
X105926626Y-96597307D02*
G01*
X105765295Y-96597307D01*
X105765295Y-96435975D01*
X105926626Y-96435975D01*
X105926626Y-96597307D01*
G37*
G36*
X105765295Y-96597307D02*
G01*
X105603964Y-96597307D01*
X105603964Y-96435975D01*
X105765295Y-96435975D01*
X105765295Y-96597307D01*
G37*
G36*
X105281301Y-96597307D02*
G01*
X105119970Y-96597307D01*
X105119970Y-96435975D01*
X105281301Y-96435975D01*
X105281301Y-96597307D01*
G37*
G36*
X105119970Y-96597307D02*
G01*
X104958639Y-96597307D01*
X104958639Y-96435975D01*
X105119970Y-96435975D01*
X105119970Y-96597307D01*
G37*
G36*
X104635976Y-96597307D02*
G01*
X104474645Y-96597307D01*
X104474645Y-96435975D01*
X104635976Y-96435975D01*
X104635976Y-96597307D01*
G37*
G36*
X104151982Y-96597307D02*
G01*
X103990651Y-96597307D01*
X103990651Y-96435975D01*
X104151982Y-96435975D01*
X104151982Y-96597307D01*
G37*
G36*
X103990651Y-96597307D02*
G01*
X103829320Y-96597307D01*
X103829320Y-96435975D01*
X103990651Y-96435975D01*
X103990651Y-96597307D01*
G37*
G36*
X103829320Y-96597307D02*
G01*
X103667988Y-96597307D01*
X103667988Y-96435975D01*
X103829320Y-96435975D01*
X103829320Y-96597307D01*
G37*
G36*
X103345326Y-96597307D02*
G01*
X103183994Y-96597307D01*
X103183994Y-96435975D01*
X103345326Y-96435975D01*
X103345326Y-96597307D01*
G37*
G36*
X103022663Y-96597307D02*
G01*
X102861332Y-96597307D01*
X102861332Y-96435975D01*
X103022663Y-96435975D01*
X103022663Y-96597307D01*
G37*
G36*
X102861332Y-96597307D02*
G01*
X102700000Y-96597307D01*
X102700000Y-96435975D01*
X102861332Y-96435975D01*
X102861332Y-96597307D01*
G37*
G36*
X102700000Y-96597307D02*
G01*
X102538669Y-96597307D01*
X102538669Y-96435975D01*
X102700000Y-96435975D01*
X102700000Y-96597307D01*
G37*
G36*
X107539939Y-96435975D02*
G01*
X107378608Y-96435975D01*
X107378608Y-96274644D01*
X107539939Y-96274644D01*
X107539939Y-96435975D01*
G37*
G36*
X107055945Y-96435975D02*
G01*
X106894614Y-96435975D01*
X106894614Y-96274644D01*
X107055945Y-96274644D01*
X107055945Y-96435975D01*
G37*
G36*
X106571952Y-96435975D02*
G01*
X106410620Y-96435975D01*
X106410620Y-96274644D01*
X106571952Y-96274644D01*
X106571952Y-96435975D01*
G37*
G36*
X106249289Y-96435975D02*
G01*
X106087958Y-96435975D01*
X106087958Y-96274644D01*
X106249289Y-96274644D01*
X106249289Y-96435975D01*
G37*
G36*
X106087958Y-96435975D02*
G01*
X105926626Y-96435975D01*
X105926626Y-96274644D01*
X106087958Y-96274644D01*
X106087958Y-96435975D01*
G37*
G36*
X105926626Y-96435975D02*
G01*
X105765295Y-96435975D01*
X105765295Y-96274644D01*
X105926626Y-96274644D01*
X105926626Y-96435975D01*
G37*
G36*
X105603964Y-96435975D02*
G01*
X105442633Y-96435975D01*
X105442633Y-96274644D01*
X105603964Y-96274644D01*
X105603964Y-96435975D01*
G37*
G36*
X105119970Y-96435975D02*
G01*
X104958639Y-96435975D01*
X104958639Y-96274644D01*
X105119970Y-96274644D01*
X105119970Y-96435975D01*
G37*
G36*
X104958639Y-96435975D02*
G01*
X104797307Y-96435975D01*
X104797307Y-96274644D01*
X104958639Y-96274644D01*
X104958639Y-96435975D01*
G37*
G36*
X104797307Y-96435975D02*
G01*
X104635976Y-96435975D01*
X104635976Y-96274644D01*
X104797307Y-96274644D01*
X104797307Y-96435975D01*
G37*
G36*
X104635976Y-96435975D02*
G01*
X104474645Y-96435975D01*
X104474645Y-96274644D01*
X104635976Y-96274644D01*
X104635976Y-96435975D01*
G37*
G36*
X104474645Y-96435975D02*
G01*
X104313313Y-96435975D01*
X104313313Y-96274644D01*
X104474645Y-96274644D01*
X104474645Y-96435975D01*
G37*
G36*
X104151982Y-96435975D02*
G01*
X103990651Y-96435975D01*
X103990651Y-96274644D01*
X104151982Y-96274644D01*
X104151982Y-96435975D01*
G37*
G36*
X103829320Y-96435975D02*
G01*
X103667988Y-96435975D01*
X103667988Y-96274644D01*
X103829320Y-96274644D01*
X103829320Y-96435975D01*
G37*
G36*
X103667988Y-96435975D02*
G01*
X103506657Y-96435975D01*
X103506657Y-96274644D01*
X103667988Y-96274644D01*
X103667988Y-96435975D01*
G37*
G36*
X103506657Y-96435975D02*
G01*
X103345326Y-96435975D01*
X103345326Y-96274644D01*
X103506657Y-96274644D01*
X103506657Y-96435975D01*
G37*
G36*
X103345326Y-96435975D02*
G01*
X103183994Y-96435975D01*
X103183994Y-96274644D01*
X103345326Y-96274644D01*
X103345326Y-96435975D01*
G37*
G36*
X102861332Y-96435975D02*
G01*
X102700000Y-96435975D01*
X102700000Y-96274644D01*
X102861332Y-96274644D01*
X102861332Y-96435975D01*
G37*
G36*
X107862602Y-96274644D02*
G01*
X107701271Y-96274644D01*
X107701271Y-96113313D01*
X107862602Y-96113313D01*
X107862602Y-96274644D01*
G37*
G36*
X107539939Y-96274644D02*
G01*
X107378608Y-96274644D01*
X107378608Y-96113313D01*
X107539939Y-96113313D01*
X107539939Y-96274644D01*
G37*
G36*
X107378608Y-96274644D02*
G01*
X107217277Y-96274644D01*
X107217277Y-96113313D01*
X107378608Y-96113313D01*
X107378608Y-96274644D01*
G37*
G36*
X106894614Y-96274644D02*
G01*
X106733283Y-96274644D01*
X106733283Y-96113313D01*
X106894614Y-96113313D01*
X106894614Y-96274644D01*
G37*
G36*
X106410620Y-96274644D02*
G01*
X106249289Y-96274644D01*
X106249289Y-96113313D01*
X106410620Y-96113313D01*
X106410620Y-96274644D01*
G37*
G36*
X106087958Y-96274644D02*
G01*
X105926626Y-96274644D01*
X105926626Y-96113313D01*
X106087958Y-96113313D01*
X106087958Y-96274644D01*
G37*
G36*
X105926626Y-96274644D02*
G01*
X105765295Y-96274644D01*
X105765295Y-96113313D01*
X105926626Y-96113313D01*
X105926626Y-96274644D01*
G37*
G36*
X105765295Y-96274644D02*
G01*
X105603964Y-96274644D01*
X105603964Y-96113313D01*
X105765295Y-96113313D01*
X105765295Y-96274644D01*
G37*
G36*
X105281301Y-96274644D02*
G01*
X105119970Y-96274644D01*
X105119970Y-96113313D01*
X105281301Y-96113313D01*
X105281301Y-96274644D01*
G37*
G36*
X104958639Y-96274644D02*
G01*
X104797307Y-96274644D01*
X104797307Y-96113313D01*
X104958639Y-96113313D01*
X104958639Y-96274644D01*
G37*
G36*
X104797307Y-96274644D02*
G01*
X104635976Y-96274644D01*
X104635976Y-96113313D01*
X104797307Y-96113313D01*
X104797307Y-96274644D01*
G37*
G36*
X104635976Y-96274644D02*
G01*
X104474645Y-96274644D01*
X104474645Y-96113313D01*
X104635976Y-96113313D01*
X104635976Y-96274644D01*
G37*
G36*
X104474645Y-96274644D02*
G01*
X104313313Y-96274644D01*
X104313313Y-96113313D01*
X104474645Y-96113313D01*
X104474645Y-96274644D01*
G37*
G36*
X104151982Y-96274644D02*
G01*
X103990651Y-96274644D01*
X103990651Y-96113313D01*
X104151982Y-96113313D01*
X104151982Y-96274644D01*
G37*
G36*
X103990651Y-96274644D02*
G01*
X103829320Y-96274644D01*
X103829320Y-96113313D01*
X103990651Y-96113313D01*
X103990651Y-96274644D01*
G37*
G36*
X103829320Y-96274644D02*
G01*
X103667988Y-96274644D01*
X103667988Y-96113313D01*
X103829320Y-96113313D01*
X103829320Y-96274644D01*
G37*
G36*
X103345326Y-96274644D02*
G01*
X103183994Y-96274644D01*
X103183994Y-96113313D01*
X103345326Y-96113313D01*
X103345326Y-96274644D01*
G37*
G36*
X103022663Y-96274644D02*
G01*
X102861332Y-96274644D01*
X102861332Y-96113313D01*
X103022663Y-96113313D01*
X103022663Y-96274644D01*
G37*
G36*
X102700000Y-96274644D02*
G01*
X102538669Y-96274644D01*
X102538669Y-96113313D01*
X102700000Y-96113313D01*
X102700000Y-96274644D01*
G37*
G36*
X107862602Y-96113313D02*
G01*
X107701271Y-96113313D01*
X107701271Y-95951982D01*
X107862602Y-95951982D01*
X107862602Y-96113313D01*
G37*
G36*
X107701271Y-96113313D02*
G01*
X107539939Y-96113313D01*
X107539939Y-95951982D01*
X107701271Y-95951982D01*
X107701271Y-96113313D01*
G37*
G36*
X107378608Y-96113313D02*
G01*
X107217277Y-96113313D01*
X107217277Y-95951982D01*
X107378608Y-95951982D01*
X107378608Y-96113313D01*
G37*
G36*
X107217277Y-96113313D02*
G01*
X107055945Y-96113313D01*
X107055945Y-95951982D01*
X107217277Y-95951982D01*
X107217277Y-96113313D01*
G37*
G36*
X106733283Y-96113313D02*
G01*
X106571952Y-96113313D01*
X106571952Y-95951982D01*
X106733283Y-95951982D01*
X106733283Y-96113313D01*
G37*
G36*
X106571952Y-96113313D02*
G01*
X106410620Y-96113313D01*
X106410620Y-95951982D01*
X106571952Y-95951982D01*
X106571952Y-96113313D01*
G37*
G36*
X106410620Y-96113313D02*
G01*
X106249289Y-96113313D01*
X106249289Y-95951982D01*
X106410620Y-95951982D01*
X106410620Y-96113313D01*
G37*
G36*
X106249289Y-96113313D02*
G01*
X106087958Y-96113313D01*
X106087958Y-95951982D01*
X106249289Y-95951982D01*
X106249289Y-96113313D01*
G37*
G36*
X105765295Y-96113313D02*
G01*
X105603964Y-96113313D01*
X105603964Y-95951982D01*
X105765295Y-95951982D01*
X105765295Y-96113313D01*
G37*
G36*
X105603964Y-96113313D02*
G01*
X105442633Y-96113313D01*
X105442633Y-95951982D01*
X105603964Y-95951982D01*
X105603964Y-96113313D01*
G37*
G36*
X105119970Y-96113313D02*
G01*
X104958639Y-96113313D01*
X104958639Y-95951982D01*
X105119970Y-95951982D01*
X105119970Y-96113313D01*
G37*
G36*
X104958639Y-96113313D02*
G01*
X104797307Y-96113313D01*
X104797307Y-95951982D01*
X104958639Y-95951982D01*
X104958639Y-96113313D01*
G37*
G36*
X104474645Y-96113313D02*
G01*
X104313313Y-96113313D01*
X104313313Y-95951982D01*
X104474645Y-95951982D01*
X104474645Y-96113313D01*
G37*
G36*
X104313313Y-96113313D02*
G01*
X104151982Y-96113313D01*
X104151982Y-95951982D01*
X104313313Y-95951982D01*
X104313313Y-96113313D01*
G37*
G36*
X103829320Y-96113313D02*
G01*
X103667988Y-96113313D01*
X103667988Y-95951982D01*
X103829320Y-95951982D01*
X103829320Y-96113313D01*
G37*
G36*
X103667988Y-96113313D02*
G01*
X103506657Y-96113313D01*
X103506657Y-95951982D01*
X103667988Y-95951982D01*
X103667988Y-96113313D01*
G37*
G36*
X103506657Y-96113313D02*
G01*
X103345326Y-96113313D01*
X103345326Y-95951982D01*
X103506657Y-95951982D01*
X103506657Y-96113313D01*
G37*
G36*
X102861332Y-96113313D02*
G01*
X102700000Y-96113313D01*
X102700000Y-95951982D01*
X102861332Y-95951982D01*
X102861332Y-96113313D01*
G37*
G36*
X102700000Y-96113313D02*
G01*
X102538669Y-96113313D01*
X102538669Y-95951982D01*
X102700000Y-95951982D01*
X102700000Y-96113313D01*
G37*
G36*
X107862602Y-95951982D02*
G01*
X107701271Y-95951982D01*
X107701271Y-95790650D01*
X107862602Y-95790650D01*
X107862602Y-95951982D01*
G37*
G36*
X107701271Y-95951982D02*
G01*
X107539939Y-95951982D01*
X107539939Y-95790650D01*
X107701271Y-95790650D01*
X107701271Y-95951982D01*
G37*
G36*
X107539939Y-95951982D02*
G01*
X107378608Y-95951982D01*
X107378608Y-95790650D01*
X107539939Y-95790650D01*
X107539939Y-95951982D01*
G37*
G36*
X107378608Y-95951982D02*
G01*
X107217277Y-95951982D01*
X107217277Y-95790650D01*
X107378608Y-95790650D01*
X107378608Y-95951982D01*
G37*
G36*
X107055945Y-95951982D02*
G01*
X106894614Y-95951982D01*
X106894614Y-95790650D01*
X107055945Y-95790650D01*
X107055945Y-95951982D01*
G37*
G36*
X106894614Y-95951982D02*
G01*
X106733283Y-95951982D01*
X106733283Y-95790650D01*
X106894614Y-95790650D01*
X106894614Y-95951982D01*
G37*
G36*
X106733283Y-95951982D02*
G01*
X106571952Y-95951982D01*
X106571952Y-95790650D01*
X106733283Y-95790650D01*
X106733283Y-95951982D01*
G37*
G36*
X106571952Y-95951982D02*
G01*
X106410620Y-95951982D01*
X106410620Y-95790650D01*
X106571952Y-95790650D01*
X106571952Y-95951982D01*
G37*
G36*
X106087958Y-95951982D02*
G01*
X105926626Y-95951982D01*
X105926626Y-95790650D01*
X106087958Y-95790650D01*
X106087958Y-95951982D01*
G37*
G36*
X105926626Y-95951982D02*
G01*
X105765295Y-95951982D01*
X105765295Y-95790650D01*
X105926626Y-95790650D01*
X105926626Y-95951982D01*
G37*
G36*
X105281301Y-95951982D02*
G01*
X105119970Y-95951982D01*
X105119970Y-95790650D01*
X105281301Y-95790650D01*
X105281301Y-95951982D01*
G37*
G36*
X105119970Y-95951982D02*
G01*
X104958639Y-95951982D01*
X104958639Y-95790650D01*
X105119970Y-95790650D01*
X105119970Y-95951982D01*
G37*
G36*
X104635976Y-95951982D02*
G01*
X104474645Y-95951982D01*
X104474645Y-95790650D01*
X104635976Y-95790650D01*
X104635976Y-95951982D01*
G37*
G36*
X104474645Y-95951982D02*
G01*
X104313313Y-95951982D01*
X104313313Y-95790650D01*
X104474645Y-95790650D01*
X104474645Y-95951982D01*
G37*
G36*
X104313313Y-95951982D02*
G01*
X104151982Y-95951982D01*
X104151982Y-95790650D01*
X104313313Y-95790650D01*
X104313313Y-95951982D01*
G37*
G36*
X103506657Y-95951982D02*
G01*
X103345326Y-95951982D01*
X103345326Y-95790650D01*
X103506657Y-95790650D01*
X103506657Y-95951982D01*
G37*
G36*
X103345326Y-95951982D02*
G01*
X103183994Y-95951982D01*
X103183994Y-95790650D01*
X103345326Y-95790650D01*
X103345326Y-95951982D01*
G37*
G36*
X103183994Y-95951982D02*
G01*
X103022663Y-95951982D01*
X103022663Y-95790650D01*
X103183994Y-95790650D01*
X103183994Y-95951982D01*
G37*
G36*
X107378608Y-95790650D02*
G01*
X107217277Y-95790650D01*
X107217277Y-95629319D01*
X107378608Y-95629319D01*
X107378608Y-95790650D01*
G37*
G36*
X107217277Y-95790650D02*
G01*
X107055945Y-95790650D01*
X107055945Y-95629319D01*
X107217277Y-95629319D01*
X107217277Y-95790650D01*
G37*
G36*
X106894614Y-95790650D02*
G01*
X106733283Y-95790650D01*
X106733283Y-95629319D01*
X106894614Y-95629319D01*
X106894614Y-95790650D01*
G37*
G36*
X106733283Y-95790650D02*
G01*
X106571952Y-95790650D01*
X106571952Y-95629319D01*
X106733283Y-95629319D01*
X106733283Y-95790650D01*
G37*
G36*
X105926626Y-95790650D02*
G01*
X105765295Y-95790650D01*
X105765295Y-95629319D01*
X105926626Y-95629319D01*
X105926626Y-95790650D01*
G37*
G36*
X105442633Y-95790650D02*
G01*
X105281301Y-95790650D01*
X105281301Y-95629319D01*
X105442633Y-95629319D01*
X105442633Y-95790650D01*
G37*
G36*
X105281301Y-95790650D02*
G01*
X105119970Y-95790650D01*
X105119970Y-95629319D01*
X105281301Y-95629319D01*
X105281301Y-95790650D01*
G37*
G36*
X105119970Y-95790650D02*
G01*
X104958639Y-95790650D01*
X104958639Y-95629319D01*
X105119970Y-95629319D01*
X105119970Y-95790650D01*
G37*
G36*
X104797307Y-95790650D02*
G01*
X104635976Y-95790650D01*
X104635976Y-95629319D01*
X104797307Y-95629319D01*
X104797307Y-95790650D01*
G37*
G36*
X104635976Y-95790650D02*
G01*
X104474645Y-95790650D01*
X104474645Y-95629319D01*
X104635976Y-95629319D01*
X104635976Y-95790650D01*
G37*
G36*
X104313313Y-95790650D02*
G01*
X104151982Y-95790650D01*
X104151982Y-95629319D01*
X104313313Y-95629319D01*
X104313313Y-95790650D01*
G37*
G36*
X104151982Y-95790650D02*
G01*
X103990651Y-95790650D01*
X103990651Y-95629319D01*
X104151982Y-95629319D01*
X104151982Y-95790650D01*
G37*
G36*
X103990651Y-95790650D02*
G01*
X103829320Y-95790650D01*
X103829320Y-95629319D01*
X103990651Y-95629319D01*
X103990651Y-95790650D01*
G37*
G36*
X103667988Y-95790650D02*
G01*
X103506657Y-95790650D01*
X103506657Y-95629319D01*
X103667988Y-95629319D01*
X103667988Y-95790650D01*
G37*
G36*
X103506657Y-95790650D02*
G01*
X103345326Y-95790650D01*
X103345326Y-95629319D01*
X103506657Y-95629319D01*
X103506657Y-95790650D01*
G37*
G36*
X103345326Y-95790650D02*
G01*
X103183994Y-95790650D01*
X103183994Y-95629319D01*
X103345326Y-95629319D01*
X103345326Y-95790650D01*
G37*
G36*
X103022663Y-95790650D02*
G01*
X102861332Y-95790650D01*
X102861332Y-95629319D01*
X103022663Y-95629319D01*
X103022663Y-95790650D01*
G37*
G36*
X107862602Y-95629319D02*
G01*
X107701271Y-95629319D01*
X107701271Y-95467988D01*
X107862602Y-95467988D01*
X107862602Y-95629319D01*
G37*
G36*
X107701271Y-95629319D02*
G01*
X107539939Y-95629319D01*
X107539939Y-95467988D01*
X107701271Y-95467988D01*
X107701271Y-95629319D01*
G37*
G36*
X107539939Y-95629319D02*
G01*
X107378608Y-95629319D01*
X107378608Y-95467988D01*
X107539939Y-95467988D01*
X107539939Y-95629319D01*
G37*
G36*
X106894614Y-95629319D02*
G01*
X106733283Y-95629319D01*
X106733283Y-95467988D01*
X106894614Y-95467988D01*
X106894614Y-95629319D01*
G37*
G36*
X106410620Y-95629319D02*
G01*
X106249289Y-95629319D01*
X106249289Y-95467988D01*
X106410620Y-95467988D01*
X106410620Y-95629319D01*
G37*
G36*
X106087958Y-95629319D02*
G01*
X105926626Y-95629319D01*
X105926626Y-95467988D01*
X106087958Y-95467988D01*
X106087958Y-95629319D01*
G37*
G36*
X105926626Y-95629319D02*
G01*
X105765295Y-95629319D01*
X105765295Y-95467988D01*
X105926626Y-95467988D01*
X105926626Y-95629319D01*
G37*
G36*
X105765295Y-95629319D02*
G01*
X105603964Y-95629319D01*
X105603964Y-95467988D01*
X105765295Y-95467988D01*
X105765295Y-95629319D01*
G37*
G36*
X105603964Y-95629319D02*
G01*
X105442633Y-95629319D01*
X105442633Y-95467988D01*
X105603964Y-95467988D01*
X105603964Y-95629319D01*
G37*
G36*
X105442633Y-95629319D02*
G01*
X105281301Y-95629319D01*
X105281301Y-95467988D01*
X105442633Y-95467988D01*
X105442633Y-95629319D01*
G37*
G36*
X105119970Y-95629319D02*
G01*
X104958639Y-95629319D01*
X104958639Y-95467988D01*
X105119970Y-95467988D01*
X105119970Y-95629319D01*
G37*
G36*
X104958639Y-95629319D02*
G01*
X104797307Y-95629319D01*
X104797307Y-95467988D01*
X104958639Y-95467988D01*
X104958639Y-95629319D01*
G37*
G36*
X104313313Y-95629319D02*
G01*
X104151982Y-95629319D01*
X104151982Y-95467988D01*
X104313313Y-95467988D01*
X104313313Y-95629319D01*
G37*
G36*
X104151982Y-95629319D02*
G01*
X103990651Y-95629319D01*
X103990651Y-95467988D01*
X104151982Y-95467988D01*
X104151982Y-95629319D01*
G37*
G36*
X103829320Y-95629319D02*
G01*
X103667988Y-95629319D01*
X103667988Y-95467988D01*
X103829320Y-95467988D01*
X103829320Y-95629319D01*
G37*
G36*
X103022663Y-95629319D02*
G01*
X102861332Y-95629319D01*
X102861332Y-95467988D01*
X103022663Y-95467988D01*
X103022663Y-95629319D01*
G37*
G36*
X102861332Y-95629319D02*
G01*
X102700000Y-95629319D01*
X102700000Y-95467988D01*
X102861332Y-95467988D01*
X102861332Y-95629319D01*
G37*
G36*
X107539939Y-95467988D02*
G01*
X107378608Y-95467988D01*
X107378608Y-95306656D01*
X107539939Y-95306656D01*
X107539939Y-95467988D01*
G37*
G36*
X106571952Y-95467988D02*
G01*
X106410620Y-95467988D01*
X106410620Y-95306656D01*
X106571952Y-95306656D01*
X106571952Y-95467988D01*
G37*
G36*
X106249289Y-95467988D02*
G01*
X106087958Y-95467988D01*
X106087958Y-95306656D01*
X106249289Y-95306656D01*
X106249289Y-95467988D01*
G37*
G36*
X105926626Y-95467988D02*
G01*
X105765295Y-95467988D01*
X105765295Y-95306656D01*
X105926626Y-95306656D01*
X105926626Y-95467988D01*
G37*
G36*
X105442633Y-95467988D02*
G01*
X105281301Y-95467988D01*
X105281301Y-95306656D01*
X105442633Y-95306656D01*
X105442633Y-95467988D01*
G37*
G36*
X105281301Y-95467988D02*
G01*
X105119970Y-95467988D01*
X105119970Y-95306656D01*
X105281301Y-95306656D01*
X105281301Y-95467988D01*
G37*
G36*
X105119970Y-95467988D02*
G01*
X104958639Y-95467988D01*
X104958639Y-95306656D01*
X105119970Y-95306656D01*
X105119970Y-95467988D01*
G37*
G36*
X104958639Y-95467988D02*
G01*
X104797307Y-95467988D01*
X104797307Y-95306656D01*
X104958639Y-95306656D01*
X104958639Y-95467988D01*
G37*
G36*
X104474645Y-95467988D02*
G01*
X104313313Y-95467988D01*
X104313313Y-95306656D01*
X104474645Y-95306656D01*
X104474645Y-95467988D01*
G37*
G36*
X103829320Y-95467988D02*
G01*
X103667988Y-95467988D01*
X103667988Y-95306656D01*
X103829320Y-95306656D01*
X103829320Y-95467988D01*
G37*
G36*
X103667988Y-95467988D02*
G01*
X103506657Y-95467988D01*
X103506657Y-95306656D01*
X103667988Y-95306656D01*
X103667988Y-95467988D01*
G37*
G36*
X103506657Y-95467988D02*
G01*
X103345326Y-95467988D01*
X103345326Y-95306656D01*
X103506657Y-95306656D01*
X103506657Y-95467988D01*
G37*
G36*
X103345326Y-95467988D02*
G01*
X103183994Y-95467988D01*
X103183994Y-95306656D01*
X103345326Y-95306656D01*
X103345326Y-95467988D01*
G37*
G36*
X103022663Y-95467988D02*
G01*
X102861332Y-95467988D01*
X102861332Y-95306656D01*
X103022663Y-95306656D01*
X103022663Y-95467988D01*
G37*
G36*
X102861332Y-95467988D02*
G01*
X102700000Y-95467988D01*
X102700000Y-95306656D01*
X102861332Y-95306656D01*
X102861332Y-95467988D01*
G37*
G36*
X102700000Y-95467988D02*
G01*
X102538669Y-95467988D01*
X102538669Y-95306656D01*
X102700000Y-95306656D01*
X102700000Y-95467988D01*
G37*
G36*
X107862602Y-95306656D02*
G01*
X107701271Y-95306656D01*
X107701271Y-95145325D01*
X107862602Y-95145325D01*
X107862602Y-95306656D01*
G37*
G36*
X107701271Y-95306656D02*
G01*
X107539939Y-95306656D01*
X107539939Y-95145325D01*
X107701271Y-95145325D01*
X107701271Y-95306656D01*
G37*
G36*
X107539939Y-95306656D02*
G01*
X107378608Y-95306656D01*
X107378608Y-95145325D01*
X107539939Y-95145325D01*
X107539939Y-95306656D01*
G37*
G36*
X107378608Y-95306656D02*
G01*
X107217277Y-95306656D01*
X107217277Y-95145325D01*
X107378608Y-95145325D01*
X107378608Y-95306656D01*
G37*
G36*
X107217277Y-95306656D02*
G01*
X107055945Y-95306656D01*
X107055945Y-95145325D01*
X107217277Y-95145325D01*
X107217277Y-95306656D01*
G37*
G36*
X106894614Y-95306656D02*
G01*
X106733283Y-95306656D01*
X106733283Y-95145325D01*
X106894614Y-95145325D01*
X106894614Y-95306656D01*
G37*
G36*
X106733283Y-95306656D02*
G01*
X106571952Y-95306656D01*
X106571952Y-95145325D01*
X106733283Y-95145325D01*
X106733283Y-95306656D01*
G37*
G36*
X106087958Y-95306656D02*
G01*
X105926626Y-95306656D01*
X105926626Y-95145325D01*
X106087958Y-95145325D01*
X106087958Y-95306656D01*
G37*
G36*
X105926626Y-95306656D02*
G01*
X105765295Y-95306656D01*
X105765295Y-95145325D01*
X105926626Y-95145325D01*
X105926626Y-95306656D01*
G37*
G36*
X105603964Y-95306656D02*
G01*
X105442633Y-95306656D01*
X105442633Y-95145325D01*
X105603964Y-95145325D01*
X105603964Y-95306656D01*
G37*
G36*
X105119970Y-95306656D02*
G01*
X104958639Y-95306656D01*
X104958639Y-95145325D01*
X105119970Y-95145325D01*
X105119970Y-95306656D01*
G37*
G36*
X104797307Y-95306656D02*
G01*
X104635976Y-95306656D01*
X104635976Y-95145325D01*
X104797307Y-95145325D01*
X104797307Y-95306656D01*
G37*
G36*
X104635976Y-95306656D02*
G01*
X104474645Y-95306656D01*
X104474645Y-95145325D01*
X104635976Y-95145325D01*
X104635976Y-95306656D01*
G37*
G36*
X104474645Y-95306656D02*
G01*
X104313313Y-95306656D01*
X104313313Y-95145325D01*
X104474645Y-95145325D01*
X104474645Y-95306656D01*
G37*
G36*
X104313313Y-95306656D02*
G01*
X104151982Y-95306656D01*
X104151982Y-95145325D01*
X104313313Y-95145325D01*
X104313313Y-95306656D01*
G37*
G36*
X104151982Y-95306656D02*
G01*
X103990651Y-95306656D01*
X103990651Y-95145325D01*
X104151982Y-95145325D01*
X104151982Y-95306656D01*
G37*
G36*
X103829320Y-95306656D02*
G01*
X103667988Y-95306656D01*
X103667988Y-95145325D01*
X103829320Y-95145325D01*
X103829320Y-95306656D01*
G37*
G36*
X103506657Y-95306656D02*
G01*
X103345326Y-95306656D01*
X103345326Y-95145325D01*
X103506657Y-95145325D01*
X103506657Y-95306656D01*
G37*
G36*
X103183994Y-95306656D02*
G01*
X103022663Y-95306656D01*
X103022663Y-95145325D01*
X103183994Y-95145325D01*
X103183994Y-95306656D01*
G37*
G36*
X103022663Y-95306656D02*
G01*
X102861332Y-95306656D01*
X102861332Y-95145325D01*
X103022663Y-95145325D01*
X103022663Y-95306656D01*
G37*
G36*
X102861332Y-95306656D02*
G01*
X102700000Y-95306656D01*
X102700000Y-95145325D01*
X102861332Y-95145325D01*
X102861332Y-95306656D01*
G37*
G36*
X102700000Y-95306656D02*
G01*
X102538669Y-95306656D01*
X102538669Y-95145325D01*
X102700000Y-95145325D01*
X102700000Y-95306656D01*
G37*
G36*
X107701271Y-95145325D02*
G01*
X107539939Y-95145325D01*
X107539939Y-94983994D01*
X107701271Y-94983994D01*
X107701271Y-95145325D01*
G37*
G36*
X107539939Y-95145325D02*
G01*
X107378608Y-95145325D01*
X107378608Y-94983994D01*
X107539939Y-94983994D01*
X107539939Y-95145325D01*
G37*
G36*
X107217277Y-95145325D02*
G01*
X107055945Y-95145325D01*
X107055945Y-94983994D01*
X107217277Y-94983994D01*
X107217277Y-95145325D01*
G37*
G36*
X105926626Y-95145325D02*
G01*
X105765295Y-95145325D01*
X105765295Y-94983994D01*
X105926626Y-94983994D01*
X105926626Y-95145325D01*
G37*
G36*
X105281301Y-95145325D02*
G01*
X105119970Y-95145325D01*
X105119970Y-94983994D01*
X105281301Y-94983994D01*
X105281301Y-95145325D01*
G37*
G36*
X105119970Y-95145325D02*
G01*
X104958639Y-95145325D01*
X104958639Y-94983994D01*
X105119970Y-94983994D01*
X105119970Y-95145325D01*
G37*
G36*
X104958639Y-95145325D02*
G01*
X104797307Y-95145325D01*
X104797307Y-94983994D01*
X104958639Y-94983994D01*
X104958639Y-95145325D01*
G37*
G36*
X104151982Y-95145325D02*
G01*
X103990651Y-95145325D01*
X103990651Y-94983994D01*
X104151982Y-94983994D01*
X104151982Y-95145325D01*
G37*
G36*
X103667988Y-95145325D02*
G01*
X103506657Y-95145325D01*
X103506657Y-94983994D01*
X103667988Y-94983994D01*
X103667988Y-95145325D01*
G37*
G36*
X103506657Y-95145325D02*
G01*
X103345326Y-95145325D01*
X103345326Y-94983994D01*
X103506657Y-94983994D01*
X103506657Y-95145325D01*
G37*
G36*
X103345326Y-95145325D02*
G01*
X103183994Y-95145325D01*
X103183994Y-94983994D01*
X103345326Y-94983994D01*
X103345326Y-95145325D01*
G37*
G36*
X102861332Y-95145325D02*
G01*
X102700000Y-95145325D01*
X102700000Y-94983994D01*
X102861332Y-94983994D01*
X102861332Y-95145325D01*
G37*
G36*
X102700000Y-95145325D02*
G01*
X102538669Y-95145325D01*
X102538669Y-94983994D01*
X102700000Y-94983994D01*
X102700000Y-95145325D01*
G37*
G36*
X107701271Y-94983994D02*
G01*
X107539939Y-94983994D01*
X107539939Y-94822662D01*
X107701271Y-94822662D01*
X107701271Y-94983994D01*
G37*
G36*
X107055945Y-94983994D02*
G01*
X106894614Y-94983994D01*
X106894614Y-94822662D01*
X107055945Y-94822662D01*
X107055945Y-94983994D01*
G37*
G36*
X106410620Y-94983994D02*
G01*
X106249289Y-94983994D01*
X106249289Y-94822662D01*
X106410620Y-94822662D01*
X106410620Y-94983994D01*
G37*
G36*
X106249289Y-94983994D02*
G01*
X106087958Y-94983994D01*
X106087958Y-94822662D01*
X106249289Y-94822662D01*
X106249289Y-94983994D01*
G37*
G36*
X106087958Y-94983994D02*
G01*
X105926626Y-94983994D01*
X105926626Y-94822662D01*
X106087958Y-94822662D01*
X106087958Y-94983994D01*
G37*
G36*
X105765295Y-94983994D02*
G01*
X105603964Y-94983994D01*
X105603964Y-94822662D01*
X105765295Y-94822662D01*
X105765295Y-94983994D01*
G37*
G36*
X105603964Y-94983994D02*
G01*
X105442633Y-94983994D01*
X105442633Y-94822662D01*
X105603964Y-94822662D01*
X105603964Y-94983994D01*
G37*
G36*
X105442633Y-94983994D02*
G01*
X105281301Y-94983994D01*
X105281301Y-94822662D01*
X105442633Y-94822662D01*
X105442633Y-94983994D01*
G37*
G36*
X105281301Y-94983994D02*
G01*
X105119970Y-94983994D01*
X105119970Y-94822662D01*
X105281301Y-94822662D01*
X105281301Y-94983994D01*
G37*
G36*
X104797307Y-94983994D02*
G01*
X104635976Y-94983994D01*
X104635976Y-94822662D01*
X104797307Y-94822662D01*
X104797307Y-94983994D01*
G37*
G36*
X103990651Y-94983994D02*
G01*
X103829320Y-94983994D01*
X103829320Y-94822662D01*
X103990651Y-94822662D01*
X103990651Y-94983994D01*
G37*
G36*
X103829320Y-94983994D02*
G01*
X103667988Y-94983994D01*
X103667988Y-94822662D01*
X103829320Y-94822662D01*
X103829320Y-94983994D01*
G37*
G36*
X103022663Y-94983994D02*
G01*
X102861332Y-94983994D01*
X102861332Y-94822662D01*
X103022663Y-94822662D01*
X103022663Y-94983994D01*
G37*
G36*
X102700000Y-94983994D02*
G01*
X102538669Y-94983994D01*
X102538669Y-94822662D01*
X102700000Y-94822662D01*
X102700000Y-94983994D01*
G37*
G36*
X107217277Y-94822662D02*
G01*
X107055945Y-94822662D01*
X107055945Y-94661331D01*
X107217277Y-94661331D01*
X107217277Y-94822662D01*
G37*
G36*
X106733283Y-94822662D02*
G01*
X106571952Y-94822662D01*
X106571952Y-94661331D01*
X106733283Y-94661331D01*
X106733283Y-94822662D01*
G37*
G36*
X106249289Y-94822662D02*
G01*
X106087958Y-94822662D01*
X106087958Y-94661331D01*
X106249289Y-94661331D01*
X106249289Y-94822662D01*
G37*
G36*
X105765295Y-94822662D02*
G01*
X105603964Y-94822662D01*
X105603964Y-94661331D01*
X105765295Y-94661331D01*
X105765295Y-94822662D01*
G37*
G36*
X105442633Y-94822662D02*
G01*
X105281301Y-94822662D01*
X105281301Y-94661331D01*
X105442633Y-94661331D01*
X105442633Y-94822662D01*
G37*
G36*
X105281301Y-94822662D02*
G01*
X105119970Y-94822662D01*
X105119970Y-94661331D01*
X105281301Y-94661331D01*
X105281301Y-94822662D01*
G37*
G36*
X105119970Y-94822662D02*
G01*
X104958639Y-94822662D01*
X104958639Y-94661331D01*
X105119970Y-94661331D01*
X105119970Y-94822662D01*
G37*
G36*
X104958639Y-94822662D02*
G01*
X104797307Y-94822662D01*
X104797307Y-94661331D01*
X104958639Y-94661331D01*
X104958639Y-94822662D01*
G37*
G36*
X104797307Y-94822662D02*
G01*
X104635976Y-94822662D01*
X104635976Y-94661331D01*
X104797307Y-94661331D01*
X104797307Y-94822662D01*
G37*
G36*
X104474645Y-94822662D02*
G01*
X104313313Y-94822662D01*
X104313313Y-94661331D01*
X104474645Y-94661331D01*
X104474645Y-94822662D01*
G37*
G36*
X104313313Y-94822662D02*
G01*
X104151982Y-94822662D01*
X104151982Y-94661331D01*
X104313313Y-94661331D01*
X104313313Y-94822662D01*
G37*
G36*
X104151982Y-94822662D02*
G01*
X103990651Y-94822662D01*
X103990651Y-94661331D01*
X104151982Y-94661331D01*
X104151982Y-94822662D01*
G37*
G36*
X103667988Y-94822662D02*
G01*
X103506657Y-94822662D01*
X103506657Y-94661331D01*
X103667988Y-94661331D01*
X103667988Y-94822662D01*
G37*
G36*
X102700000Y-94822662D02*
G01*
X102538669Y-94822662D01*
X102538669Y-94661331D01*
X102700000Y-94661331D01*
X102700000Y-94822662D01*
G37*
G36*
X107862602Y-94661331D02*
G01*
X107701271Y-94661331D01*
X107701271Y-94500000D01*
X107862602Y-94500000D01*
X107862602Y-94661331D01*
G37*
G36*
X107701271Y-94661331D02*
G01*
X107539939Y-94661331D01*
X107539939Y-94500000D01*
X107701271Y-94500000D01*
X107701271Y-94661331D01*
G37*
G36*
X107539939Y-94661331D02*
G01*
X107378608Y-94661331D01*
X107378608Y-94500000D01*
X107539939Y-94500000D01*
X107539939Y-94661331D01*
G37*
G36*
X107378608Y-94661331D02*
G01*
X107217277Y-94661331D01*
X107217277Y-94500000D01*
X107378608Y-94500000D01*
X107378608Y-94661331D01*
G37*
G36*
X107217277Y-94661331D02*
G01*
X107055945Y-94661331D01*
X107055945Y-94500000D01*
X107217277Y-94500000D01*
X107217277Y-94661331D01*
G37*
G36*
X107055945Y-94661331D02*
G01*
X106894614Y-94661331D01*
X106894614Y-94500000D01*
X107055945Y-94500000D01*
X107055945Y-94661331D01*
G37*
G36*
X106894614Y-94661331D02*
G01*
X106733283Y-94661331D01*
X106733283Y-94500000D01*
X106894614Y-94500000D01*
X106894614Y-94661331D01*
G37*
G36*
X106249289Y-94661331D02*
G01*
X106087958Y-94661331D01*
X106087958Y-94500000D01*
X106249289Y-94500000D01*
X106249289Y-94661331D01*
G37*
G36*
X106087958Y-94661331D02*
G01*
X105926626Y-94661331D01*
X105926626Y-94500000D01*
X106087958Y-94500000D01*
X106087958Y-94661331D01*
G37*
G36*
X105926626Y-94661331D02*
G01*
X105765295Y-94661331D01*
X105765295Y-94500000D01*
X105926626Y-94500000D01*
X105926626Y-94661331D01*
G37*
G36*
X105765295Y-94661331D02*
G01*
X105603964Y-94661331D01*
X105603964Y-94500000D01*
X105765295Y-94500000D01*
X105765295Y-94661331D01*
G37*
G36*
X105603964Y-94661331D02*
G01*
X105442633Y-94661331D01*
X105442633Y-94500000D01*
X105603964Y-94500000D01*
X105603964Y-94661331D01*
G37*
G36*
X105442633Y-94661331D02*
G01*
X105281301Y-94661331D01*
X105281301Y-94500000D01*
X105442633Y-94500000D01*
X105442633Y-94661331D01*
G37*
G36*
X104958639Y-94661331D02*
G01*
X104797307Y-94661331D01*
X104797307Y-94500000D01*
X104958639Y-94500000D01*
X104958639Y-94661331D01*
G37*
G36*
X104797307Y-94661331D02*
G01*
X104635976Y-94661331D01*
X104635976Y-94500000D01*
X104797307Y-94500000D01*
X104797307Y-94661331D01*
G37*
G36*
X104474645Y-94661331D02*
G01*
X104313313Y-94661331D01*
X104313313Y-94500000D01*
X104474645Y-94500000D01*
X104474645Y-94661331D01*
G37*
G36*
X103829320Y-94661331D02*
G01*
X103667988Y-94661331D01*
X103667988Y-94500000D01*
X103829320Y-94500000D01*
X103829320Y-94661331D01*
G37*
G36*
X103506657Y-94661331D02*
G01*
X103345326Y-94661331D01*
X103345326Y-94500000D01*
X103506657Y-94500000D01*
X103506657Y-94661331D01*
G37*
G36*
X103345326Y-94661331D02*
G01*
X103183994Y-94661331D01*
X103183994Y-94500000D01*
X103345326Y-94500000D01*
X103345326Y-94661331D01*
G37*
G36*
X103183994Y-94661331D02*
G01*
X103022663Y-94661331D01*
X103022663Y-94500000D01*
X103183994Y-94500000D01*
X103183994Y-94661331D01*
G37*
G36*
X103022663Y-94661331D02*
G01*
X102861332Y-94661331D01*
X102861332Y-94500000D01*
X103022663Y-94500000D01*
X103022663Y-94661331D01*
G37*
G36*
X102861332Y-94661331D02*
G01*
X102700000Y-94661331D01*
X102700000Y-94500000D01*
X102861332Y-94500000D01*
X102861332Y-94661331D01*
G37*
G36*
X102700000Y-94661331D02*
G01*
X102538669Y-94661331D01*
X102538669Y-94500000D01*
X102700000Y-94500000D01*
X102700000Y-94661331D01*
G37*
G36*
X107539939Y-94500000D02*
G01*
X107378608Y-94500000D01*
X107378608Y-94338669D01*
X107539939Y-94338669D01*
X107539939Y-94500000D01*
G37*
G36*
X107378608Y-94500000D02*
G01*
X107217277Y-94500000D01*
X107217277Y-94338669D01*
X107378608Y-94338669D01*
X107378608Y-94500000D01*
G37*
G36*
X107217277Y-94500000D02*
G01*
X107055945Y-94500000D01*
X107055945Y-94338669D01*
X107217277Y-94338669D01*
X107217277Y-94500000D01*
G37*
G36*
X107055945Y-94500000D02*
G01*
X106894614Y-94500000D01*
X106894614Y-94338669D01*
X107055945Y-94338669D01*
X107055945Y-94500000D01*
G37*
G36*
X106894614Y-94500000D02*
G01*
X106733283Y-94500000D01*
X106733283Y-94338669D01*
X106894614Y-94338669D01*
X106894614Y-94500000D01*
G37*
G36*
X106571952Y-94500000D02*
G01*
X106410620Y-94500000D01*
X106410620Y-94338669D01*
X106571952Y-94338669D01*
X106571952Y-94500000D01*
G37*
G36*
X106249289Y-94500000D02*
G01*
X106087958Y-94500000D01*
X106087958Y-94338669D01*
X106249289Y-94338669D01*
X106249289Y-94500000D01*
G37*
G36*
X106087958Y-94500000D02*
G01*
X105926626Y-94500000D01*
X105926626Y-94338669D01*
X106087958Y-94338669D01*
X106087958Y-94500000D01*
G37*
G36*
X105926626Y-94500000D02*
G01*
X105765295Y-94500000D01*
X105765295Y-94338669D01*
X105926626Y-94338669D01*
X105926626Y-94500000D01*
G37*
G36*
X105603964Y-94500000D02*
G01*
X105442633Y-94500000D01*
X105442633Y-94338669D01*
X105603964Y-94338669D01*
X105603964Y-94500000D01*
G37*
G36*
X105442633Y-94500000D02*
G01*
X105281301Y-94500000D01*
X105281301Y-94338669D01*
X105442633Y-94338669D01*
X105442633Y-94500000D01*
G37*
G36*
X104958639Y-94500000D02*
G01*
X104797307Y-94500000D01*
X104797307Y-94338669D01*
X104958639Y-94338669D01*
X104958639Y-94500000D01*
G37*
G36*
X104797307Y-94500000D02*
G01*
X104635976Y-94500000D01*
X104635976Y-94338669D01*
X104797307Y-94338669D01*
X104797307Y-94500000D01*
G37*
G36*
X104474645Y-94500000D02*
G01*
X104313313Y-94500000D01*
X104313313Y-94338669D01*
X104474645Y-94338669D01*
X104474645Y-94500000D01*
G37*
G36*
X104151982Y-94500000D02*
G01*
X103990651Y-94500000D01*
X103990651Y-94338669D01*
X104151982Y-94338669D01*
X104151982Y-94500000D01*
G37*
G36*
X103667988Y-94500000D02*
G01*
X103506657Y-94500000D01*
X103506657Y-94338669D01*
X103667988Y-94338669D01*
X103667988Y-94500000D01*
G37*
G36*
X103506657Y-94500000D02*
G01*
X103345326Y-94500000D01*
X103345326Y-94338669D01*
X103506657Y-94338669D01*
X103506657Y-94500000D01*
G37*
G36*
X103345326Y-94500000D02*
G01*
X103183994Y-94500000D01*
X103183994Y-94338669D01*
X103345326Y-94338669D01*
X103345326Y-94500000D01*
G37*
G36*
X103183994Y-94500000D02*
G01*
X103022663Y-94500000D01*
X103022663Y-94338669D01*
X103183994Y-94338669D01*
X103183994Y-94500000D01*
G37*
G36*
X103022663Y-94500000D02*
G01*
X102861332Y-94500000D01*
X102861332Y-94338669D01*
X103022663Y-94338669D01*
X103022663Y-94500000D01*
G37*
G36*
X102700000Y-94500000D02*
G01*
X102538669Y-94500000D01*
X102538669Y-94338669D01*
X102700000Y-94338669D01*
X102700000Y-94500000D01*
G37*
G36*
X106249289Y-94338669D02*
G01*
X106087958Y-94338669D01*
X106087958Y-94177337D01*
X106249289Y-94177337D01*
X106249289Y-94338669D01*
G37*
G36*
X106087958Y-94338669D02*
G01*
X105926626Y-94338669D01*
X105926626Y-94177337D01*
X106087958Y-94177337D01*
X106087958Y-94338669D01*
G37*
G36*
X105926626Y-94338669D02*
G01*
X105765295Y-94338669D01*
X105765295Y-94177337D01*
X105926626Y-94177337D01*
X105926626Y-94338669D01*
G37*
G36*
X105765295Y-94338669D02*
G01*
X105603964Y-94338669D01*
X105603964Y-94177337D01*
X105765295Y-94177337D01*
X105765295Y-94338669D01*
G37*
G36*
X105281301Y-94338669D02*
G01*
X105119970Y-94338669D01*
X105119970Y-94177337D01*
X105281301Y-94177337D01*
X105281301Y-94338669D01*
G37*
G36*
X104797307Y-94338669D02*
G01*
X104635976Y-94338669D01*
X104635976Y-94177337D01*
X104797307Y-94177337D01*
X104797307Y-94338669D01*
G37*
G36*
X104474645Y-94338669D02*
G01*
X104313313Y-94338669D01*
X104313313Y-94177337D01*
X104474645Y-94177337D01*
X104474645Y-94338669D01*
G37*
G36*
X104313313Y-94338669D02*
G01*
X104151982Y-94338669D01*
X104151982Y-94177337D01*
X104313313Y-94177337D01*
X104313313Y-94338669D01*
G37*
G36*
X103990651Y-94338669D02*
G01*
X103829320Y-94338669D01*
X103829320Y-94177337D01*
X103990651Y-94177337D01*
X103990651Y-94338669D01*
G37*
G36*
X106571952Y-94177337D02*
G01*
X106410620Y-94177337D01*
X106410620Y-94016006D01*
X106571952Y-94016006D01*
X106571952Y-94177337D01*
G37*
G36*
X106249289Y-94177337D02*
G01*
X106087958Y-94177337D01*
X106087958Y-94016006D01*
X106249289Y-94016006D01*
X106249289Y-94177337D01*
G37*
G36*
X105926626Y-94177337D02*
G01*
X105765295Y-94177337D01*
X105765295Y-94016006D01*
X105926626Y-94016006D01*
X105926626Y-94177337D01*
G37*
G36*
X105603964Y-94177337D02*
G01*
X105442633Y-94177337D01*
X105442633Y-94016006D01*
X105603964Y-94016006D01*
X105603964Y-94177337D01*
G37*
G36*
X105281301Y-94177337D02*
G01*
X105119970Y-94177337D01*
X105119970Y-94016006D01*
X105281301Y-94016006D01*
X105281301Y-94177337D01*
G37*
G36*
X104958639Y-94177337D02*
G01*
X104797307Y-94177337D01*
X104797307Y-94016006D01*
X104958639Y-94016006D01*
X104958639Y-94177337D01*
G37*
G36*
X104635976Y-94177337D02*
G01*
X104474645Y-94177337D01*
X104474645Y-94016006D01*
X104635976Y-94016006D01*
X104635976Y-94177337D01*
G37*
G36*
X104313313Y-94177337D02*
G01*
X104151982Y-94177337D01*
X104151982Y-94016006D01*
X104313313Y-94016006D01*
X104313313Y-94177337D01*
G37*
G36*
X103990651Y-94177337D02*
G01*
X103829320Y-94177337D01*
X103829320Y-94016006D01*
X103990651Y-94016006D01*
X103990651Y-94177337D01*
G37*
G36*
X106410620Y-94016006D02*
G01*
X106249289Y-94016006D01*
X106249289Y-93854675D01*
X106410620Y-93854675D01*
X106410620Y-94016006D01*
G37*
G36*
X106249289Y-94016006D02*
G01*
X106087958Y-94016006D01*
X106087958Y-93854675D01*
X106249289Y-93854675D01*
X106249289Y-94016006D01*
G37*
G36*
X105926626Y-94016006D02*
G01*
X105765295Y-94016006D01*
X105765295Y-93854675D01*
X105926626Y-93854675D01*
X105926626Y-94016006D01*
G37*
G36*
X105442633Y-94016006D02*
G01*
X105281301Y-94016006D01*
X105281301Y-93854675D01*
X105442633Y-93854675D01*
X105442633Y-94016006D01*
G37*
G36*
X104958639Y-94016006D02*
G01*
X104797307Y-94016006D01*
X104797307Y-93854675D01*
X104958639Y-93854675D01*
X104958639Y-94016006D01*
G37*
G36*
X104797307Y-94016006D02*
G01*
X104635976Y-94016006D01*
X104635976Y-93854675D01*
X104797307Y-93854675D01*
X104797307Y-94016006D01*
G37*
G36*
X104313313Y-94016006D02*
G01*
X104151982Y-94016006D01*
X104151982Y-93854675D01*
X104313313Y-93854675D01*
X104313313Y-94016006D01*
G37*
G36*
X103990651Y-94016006D02*
G01*
X103829320Y-94016006D01*
X103829320Y-93854675D01*
X103990651Y-93854675D01*
X103990651Y-94016006D01*
G37*
G36*
X106410620Y-93854675D02*
G01*
X106249289Y-93854675D01*
X106249289Y-93693343D01*
X106410620Y-93693343D01*
X106410620Y-93854675D01*
G37*
G36*
X106087958Y-93854675D02*
G01*
X105926626Y-93854675D01*
X105926626Y-93693343D01*
X106087958Y-93693343D01*
X106087958Y-93854675D01*
G37*
G36*
X105926626Y-93854675D02*
G01*
X105765295Y-93854675D01*
X105765295Y-93693343D01*
X105926626Y-93693343D01*
X105926626Y-93854675D01*
G37*
G36*
X105603964Y-93854675D02*
G01*
X105442633Y-93854675D01*
X105442633Y-93693343D01*
X105603964Y-93693343D01*
X105603964Y-93854675D01*
G37*
G36*
X105281301Y-93854675D02*
G01*
X105119970Y-93854675D01*
X105119970Y-93693343D01*
X105281301Y-93693343D01*
X105281301Y-93854675D01*
G37*
G36*
X105119970Y-93854675D02*
G01*
X104958639Y-93854675D01*
X104958639Y-93693343D01*
X105119970Y-93693343D01*
X105119970Y-93854675D01*
G37*
G36*
X104958639Y-93854675D02*
G01*
X104797307Y-93854675D01*
X104797307Y-93693343D01*
X104958639Y-93693343D01*
X104958639Y-93854675D01*
G37*
G36*
X104635976Y-93854675D02*
G01*
X104474645Y-93854675D01*
X104474645Y-93693343D01*
X104635976Y-93693343D01*
X104635976Y-93854675D01*
G37*
G36*
X104313313Y-93854675D02*
G01*
X104151982Y-93854675D01*
X104151982Y-93693343D01*
X104313313Y-93693343D01*
X104313313Y-93854675D01*
G37*
G36*
X103990651Y-93854675D02*
G01*
X103829320Y-93854675D01*
X103829320Y-93693343D01*
X103990651Y-93693343D01*
X103990651Y-93854675D01*
G37*
G36*
X105603964Y-93693343D02*
G01*
X105442633Y-93693343D01*
X105442633Y-93532012D01*
X105603964Y-93532012D01*
X105603964Y-93693343D01*
G37*
G36*
X105119970Y-93693343D02*
G01*
X104958639Y-93693343D01*
X104958639Y-93532012D01*
X105119970Y-93532012D01*
X105119970Y-93693343D01*
G37*
G36*
X104151982Y-93693343D02*
G01*
X103990651Y-93693343D01*
X103990651Y-93532012D01*
X104151982Y-93532012D01*
X104151982Y-93693343D01*
G37*
G36*
X103990651Y-93693343D02*
G01*
X103829320Y-93693343D01*
X103829320Y-93532012D01*
X103990651Y-93532012D01*
X103990651Y-93693343D01*
G37*
G36*
X106410620Y-93532012D02*
G01*
X106249289Y-93532012D01*
X106249289Y-93370681D01*
X106410620Y-93370681D01*
X106410620Y-93532012D01*
G37*
G36*
X106087958Y-93532012D02*
G01*
X105926626Y-93532012D01*
X105926626Y-93370681D01*
X106087958Y-93370681D01*
X106087958Y-93532012D01*
G37*
G36*
X105926626Y-93532012D02*
G01*
X105765295Y-93532012D01*
X105765295Y-93370681D01*
X105926626Y-93370681D01*
X105926626Y-93532012D01*
G37*
G36*
X105765295Y-93532012D02*
G01*
X105603964Y-93532012D01*
X105603964Y-93370681D01*
X105765295Y-93370681D01*
X105765295Y-93532012D01*
G37*
G36*
X105603964Y-93532012D02*
G01*
X105442633Y-93532012D01*
X105442633Y-93370681D01*
X105603964Y-93370681D01*
X105603964Y-93532012D01*
G37*
G36*
X105281301Y-93532012D02*
G01*
X105119970Y-93532012D01*
X105119970Y-93370681D01*
X105281301Y-93370681D01*
X105281301Y-93532012D01*
G37*
G36*
X104958639Y-93532012D02*
G01*
X104797307Y-93532012D01*
X104797307Y-93370681D01*
X104958639Y-93370681D01*
X104958639Y-93532012D01*
G37*
G36*
X104635976Y-93532012D02*
G01*
X104474645Y-93532012D01*
X104474645Y-93370681D01*
X104635976Y-93370681D01*
X104635976Y-93532012D01*
G37*
G36*
X104313313Y-93532012D02*
G01*
X104151982Y-93532012D01*
X104151982Y-93370681D01*
X104313313Y-93370681D01*
X104313313Y-93532012D01*
G37*
G36*
X103990651Y-93532012D02*
G01*
X103829320Y-93532012D01*
X103829320Y-93370681D01*
X103990651Y-93370681D01*
X103990651Y-93532012D01*
G37*
G36*
X106571952Y-93370681D02*
G01*
X106410620Y-93370681D01*
X106410620Y-93209349D01*
X106571952Y-93209349D01*
X106571952Y-93370681D01*
G37*
G36*
X106410620Y-93370681D02*
G01*
X106249289Y-93370681D01*
X106249289Y-93209349D01*
X106410620Y-93209349D01*
X106410620Y-93370681D01*
G37*
G36*
X106249289Y-93370681D02*
G01*
X106087958Y-93370681D01*
X106087958Y-93209349D01*
X106249289Y-93209349D01*
X106249289Y-93370681D01*
G37*
G36*
X106087958Y-93370681D02*
G01*
X105926626Y-93370681D01*
X105926626Y-93209349D01*
X106087958Y-93209349D01*
X106087958Y-93370681D01*
G37*
G36*
X105926626Y-93370681D02*
G01*
X105765295Y-93370681D01*
X105765295Y-93209349D01*
X105926626Y-93209349D01*
X105926626Y-93370681D01*
G37*
G36*
X105603964Y-93370681D02*
G01*
X105442633Y-93370681D01*
X105442633Y-93209349D01*
X105603964Y-93209349D01*
X105603964Y-93370681D01*
G37*
G36*
X105281301Y-93370681D02*
G01*
X105119970Y-93370681D01*
X105119970Y-93209349D01*
X105281301Y-93209349D01*
X105281301Y-93370681D01*
G37*
G36*
X105119970Y-93370681D02*
G01*
X104958639Y-93370681D01*
X104958639Y-93209349D01*
X105119970Y-93209349D01*
X105119970Y-93370681D01*
G37*
G36*
X104635976Y-93370681D02*
G01*
X104474645Y-93370681D01*
X104474645Y-93209349D01*
X104635976Y-93209349D01*
X104635976Y-93370681D01*
G37*
G36*
X104474645Y-93370681D02*
G01*
X104313313Y-93370681D01*
X104313313Y-93209349D01*
X104474645Y-93209349D01*
X104474645Y-93370681D01*
G37*
G36*
X104313313Y-93370681D02*
G01*
X104151982Y-93370681D01*
X104151982Y-93209349D01*
X104313313Y-93209349D01*
X104313313Y-93370681D01*
G37*
G36*
X104151982Y-93370681D02*
G01*
X103990651Y-93370681D01*
X103990651Y-93209349D01*
X104151982Y-93209349D01*
X104151982Y-93370681D01*
G37*
G36*
X106571952Y-93209349D02*
G01*
X106410620Y-93209349D01*
X106410620Y-93048018D01*
X106571952Y-93048018D01*
X106571952Y-93209349D01*
G37*
G36*
X106087958Y-93209349D02*
G01*
X105926626Y-93209349D01*
X105926626Y-93048018D01*
X106087958Y-93048018D01*
X106087958Y-93209349D01*
G37*
G36*
X105603964Y-93209349D02*
G01*
X105442633Y-93209349D01*
X105442633Y-93048018D01*
X105603964Y-93048018D01*
X105603964Y-93209349D01*
G37*
G36*
X104635976Y-93209349D02*
G01*
X104474645Y-93209349D01*
X104474645Y-93048018D01*
X104635976Y-93048018D01*
X104635976Y-93209349D01*
G37*
G36*
X104313313Y-93209349D02*
G01*
X104151982Y-93209349D01*
X104151982Y-93048018D01*
X104313313Y-93048018D01*
X104313313Y-93209349D01*
G37*
D11*
X100617438Y-101939411D02*
X100569819Y-102034649D01*
X100569819Y-102034649D02*
X100569819Y-102177506D01*
X100569819Y-102177506D02*
X100617438Y-102320363D01*
X100617438Y-102320363D02*
X100712676Y-102415601D01*
X100712676Y-102415601D02*
X100807914Y-102463220D01*
X100807914Y-102463220D02*
X100998390Y-102510839D01*
X100998390Y-102510839D02*
X101141247Y-102510839D01*
X101141247Y-102510839D02*
X101331723Y-102463220D01*
X101331723Y-102463220D02*
X101426961Y-102415601D01*
X101426961Y-102415601D02*
X101522200Y-102320363D01*
X101522200Y-102320363D02*
X101569819Y-102177506D01*
X101569819Y-102177506D02*
X101569819Y-102082268D01*
X101569819Y-102082268D02*
X101522200Y-101939411D01*
X101522200Y-101939411D02*
X101474580Y-101891792D01*
X101474580Y-101891792D02*
X101141247Y-101891792D01*
X101141247Y-101891792D02*
X101141247Y-102082268D01*
X101569819Y-101463220D02*
X100569819Y-101463220D01*
X100569819Y-101463220D02*
X101569819Y-100891792D01*
X101569819Y-100891792D02*
X100569819Y-100891792D01*
X101569819Y-100415601D02*
X100569819Y-100415601D01*
X100569819Y-100415601D02*
X100569819Y-100177506D01*
X100569819Y-100177506D02*
X100617438Y-100034649D01*
X100617438Y-100034649D02*
X100712676Y-99939411D01*
X100712676Y-99939411D02*
X100807914Y-99891792D01*
X100807914Y-99891792D02*
X100998390Y-99844173D01*
X100998390Y-99844173D02*
X101141247Y-99844173D01*
X101141247Y-99844173D02*
X101331723Y-99891792D01*
X101331723Y-99891792D02*
X101426961Y-99939411D01*
X101426961Y-99939411D02*
X101522200Y-100034649D01*
X101522200Y-100034649D02*
X101569819Y-100177506D01*
X101569819Y-100177506D02*
X101569819Y-100415601D01*
X82569819Y-101691792D02*
X82093628Y-102025125D01*
X82569819Y-102263220D02*
X81569819Y-102263220D01*
X81569819Y-102263220D02*
X81569819Y-101882268D01*
X81569819Y-101882268D02*
X81617438Y-101787030D01*
X81617438Y-101787030D02*
X81665057Y-101739411D01*
X81665057Y-101739411D02*
X81760295Y-101691792D01*
X81760295Y-101691792D02*
X81903152Y-101691792D01*
X81903152Y-101691792D02*
X81998390Y-101739411D01*
X81998390Y-101739411D02*
X82046009Y-101787030D01*
X82046009Y-101787030D02*
X82093628Y-101882268D01*
X82093628Y-101882268D02*
X82093628Y-102263220D01*
X82046009Y-101263220D02*
X82046009Y-100929887D01*
X82569819Y-100787030D02*
X82569819Y-101263220D01*
X82569819Y-101263220D02*
X81569819Y-101263220D01*
X81569819Y-101263220D02*
X81569819Y-100787030D01*
X82569819Y-100358458D02*
X81569819Y-100358458D01*
X81569819Y-100358458D02*
X81569819Y-100120363D01*
X81569819Y-100120363D02*
X81617438Y-99977506D01*
X81617438Y-99977506D02*
X81712676Y-99882268D01*
X81712676Y-99882268D02*
X81807914Y-99834649D01*
X81807914Y-99834649D02*
X81998390Y-99787030D01*
X81998390Y-99787030D02*
X82141247Y-99787030D01*
X82141247Y-99787030D02*
X82331723Y-99834649D01*
X82331723Y-99834649D02*
X82426961Y-99882268D01*
X82426961Y-99882268D02*
X82522200Y-99977506D01*
X82522200Y-99977506D02*
X82569819Y-100120363D01*
X82569819Y-100120363D02*
X82569819Y-100358458D01*
X74484104Y-103010839D02*
X74484104Y-102534649D01*
X74769819Y-103106077D02*
X73769819Y-102772744D01*
X73769819Y-102772744D02*
X74769819Y-102439411D01*
X73769819Y-102248934D02*
X74769819Y-101915601D01*
X74769819Y-101915601D02*
X73769819Y-101582268D01*
X74865057Y-101487030D02*
X74865057Y-100725125D01*
X73769819Y-100296553D02*
X73769819Y-100106077D01*
X73769819Y-100106077D02*
X73817438Y-100010839D01*
X73817438Y-100010839D02*
X73912676Y-99915601D01*
X73912676Y-99915601D02*
X74103152Y-99867982D01*
X74103152Y-99867982D02*
X74436485Y-99867982D01*
X74436485Y-99867982D02*
X74626961Y-99915601D01*
X74626961Y-99915601D02*
X74722200Y-100010839D01*
X74722200Y-100010839D02*
X74769819Y-100106077D01*
X74769819Y-100106077D02*
X74769819Y-100296553D01*
X74769819Y-100296553D02*
X74722200Y-100391791D01*
X74722200Y-100391791D02*
X74626961Y-100487029D01*
X74626961Y-100487029D02*
X74436485Y-100534648D01*
X74436485Y-100534648D02*
X74103152Y-100534648D01*
X74103152Y-100534648D02*
X73912676Y-100487029D01*
X73912676Y-100487029D02*
X73817438Y-100391791D01*
X73817438Y-100391791D02*
X73769819Y-100296553D01*
X73769819Y-99439410D02*
X74579342Y-99439410D01*
X74579342Y-99439410D02*
X74674580Y-99391791D01*
X74674580Y-99391791D02*
X74722200Y-99344172D01*
X74722200Y-99344172D02*
X74769819Y-99248934D01*
X74769819Y-99248934D02*
X74769819Y-99058458D01*
X74769819Y-99058458D02*
X74722200Y-98963220D01*
X74722200Y-98963220D02*
X74674580Y-98915601D01*
X74674580Y-98915601D02*
X74579342Y-98867982D01*
X74579342Y-98867982D02*
X73769819Y-98867982D01*
X73769819Y-98534648D02*
X73769819Y-97963220D01*
X74769819Y-98248934D02*
X73769819Y-98248934D01*
X97246009Y-102529887D02*
X97293628Y-102387030D01*
X97293628Y-102387030D02*
X97341247Y-102339411D01*
X97341247Y-102339411D02*
X97436485Y-102291792D01*
X97436485Y-102291792D02*
X97579342Y-102291792D01*
X97579342Y-102291792D02*
X97674580Y-102339411D01*
X97674580Y-102339411D02*
X97722200Y-102387030D01*
X97722200Y-102387030D02*
X97769819Y-102482268D01*
X97769819Y-102482268D02*
X97769819Y-102863220D01*
X97769819Y-102863220D02*
X96769819Y-102863220D01*
X96769819Y-102863220D02*
X96769819Y-102529887D01*
X96769819Y-102529887D02*
X96817438Y-102434649D01*
X96817438Y-102434649D02*
X96865057Y-102387030D01*
X96865057Y-102387030D02*
X96960295Y-102339411D01*
X96960295Y-102339411D02*
X97055533Y-102339411D01*
X97055533Y-102339411D02*
X97150771Y-102387030D01*
X97150771Y-102387030D02*
X97198390Y-102434649D01*
X97198390Y-102434649D02*
X97246009Y-102529887D01*
X97246009Y-102529887D02*
X97246009Y-102863220D01*
X97769819Y-101387030D02*
X97769819Y-101863220D01*
X97769819Y-101863220D02*
X96769819Y-101863220D01*
X96769819Y-101053696D02*
X97579342Y-101053696D01*
X97579342Y-101053696D02*
X97674580Y-101006077D01*
X97674580Y-101006077D02*
X97722200Y-100958458D01*
X97722200Y-100958458D02*
X97769819Y-100863220D01*
X97769819Y-100863220D02*
X97769819Y-100672744D01*
X97769819Y-100672744D02*
X97722200Y-100577506D01*
X97722200Y-100577506D02*
X97674580Y-100529887D01*
X97674580Y-100529887D02*
X97579342Y-100482268D01*
X97579342Y-100482268D02*
X96769819Y-100482268D01*
X97246009Y-100006077D02*
X97246009Y-99672744D01*
X97769819Y-99529887D02*
X97769819Y-100006077D01*
X97769819Y-100006077D02*
X96769819Y-100006077D01*
X96769819Y-100006077D02*
X96769819Y-99529887D01*
X89217438Y-101939411D02*
X89169819Y-102034649D01*
X89169819Y-102034649D02*
X89169819Y-102177506D01*
X89169819Y-102177506D02*
X89217438Y-102320363D01*
X89217438Y-102320363D02*
X89312676Y-102415601D01*
X89312676Y-102415601D02*
X89407914Y-102463220D01*
X89407914Y-102463220D02*
X89598390Y-102510839D01*
X89598390Y-102510839D02*
X89741247Y-102510839D01*
X89741247Y-102510839D02*
X89931723Y-102463220D01*
X89931723Y-102463220D02*
X90026961Y-102415601D01*
X90026961Y-102415601D02*
X90122200Y-102320363D01*
X90122200Y-102320363D02*
X90169819Y-102177506D01*
X90169819Y-102177506D02*
X90169819Y-102082268D01*
X90169819Y-102082268D02*
X90122200Y-101939411D01*
X90122200Y-101939411D02*
X90074580Y-101891792D01*
X90074580Y-101891792D02*
X89741247Y-101891792D01*
X89741247Y-101891792D02*
X89741247Y-102082268D01*
X90169819Y-100891792D02*
X89693628Y-101225125D01*
X90169819Y-101463220D02*
X89169819Y-101463220D01*
X89169819Y-101463220D02*
X89169819Y-101082268D01*
X89169819Y-101082268D02*
X89217438Y-100987030D01*
X89217438Y-100987030D02*
X89265057Y-100939411D01*
X89265057Y-100939411D02*
X89360295Y-100891792D01*
X89360295Y-100891792D02*
X89503152Y-100891792D01*
X89503152Y-100891792D02*
X89598390Y-100939411D01*
X89598390Y-100939411D02*
X89646009Y-100987030D01*
X89646009Y-100987030D02*
X89693628Y-101082268D01*
X89693628Y-101082268D02*
X89693628Y-101463220D01*
X90169819Y-100463220D02*
X89169819Y-100463220D01*
X89169819Y-100463220D02*
X90169819Y-99891792D01*
X90169819Y-99891792D02*
X89169819Y-99891792D01*
X108169819Y-102872744D02*
X108169819Y-102682268D01*
X108169819Y-102682268D02*
X108217438Y-102587030D01*
X108217438Y-102587030D02*
X108312676Y-102491792D01*
X108312676Y-102491792D02*
X108503152Y-102444173D01*
X108503152Y-102444173D02*
X108836485Y-102444173D01*
X108836485Y-102444173D02*
X109026961Y-102491792D01*
X109026961Y-102491792D02*
X109122200Y-102587030D01*
X109122200Y-102587030D02*
X109169819Y-102682268D01*
X109169819Y-102682268D02*
X109169819Y-102872744D01*
X109169819Y-102872744D02*
X109122200Y-102967982D01*
X109122200Y-102967982D02*
X109026961Y-103063220D01*
X109026961Y-103063220D02*
X108836485Y-103110839D01*
X108836485Y-103110839D02*
X108503152Y-103110839D01*
X108503152Y-103110839D02*
X108312676Y-103063220D01*
X108312676Y-103063220D02*
X108217438Y-102967982D01*
X108217438Y-102967982D02*
X108169819Y-102872744D01*
X108169819Y-102015601D02*
X108979342Y-102015601D01*
X108979342Y-102015601D02*
X109074580Y-101967982D01*
X109074580Y-101967982D02*
X109122200Y-101920363D01*
X109122200Y-101920363D02*
X109169819Y-101825125D01*
X109169819Y-101825125D02*
X109169819Y-101634649D01*
X109169819Y-101634649D02*
X109122200Y-101539411D01*
X109122200Y-101539411D02*
X109074580Y-101491792D01*
X109074580Y-101491792D02*
X108979342Y-101444173D01*
X108979342Y-101444173D02*
X108169819Y-101444173D01*
X108169819Y-101110839D02*
X108169819Y-100539411D01*
X109169819Y-100825125D02*
X108169819Y-100825125D01*
X109265057Y-100444173D02*
X109265057Y-99682268D01*
X109169819Y-98872744D02*
X108693628Y-99206077D01*
X109169819Y-99444172D02*
X108169819Y-99444172D01*
X108169819Y-99444172D02*
X108169819Y-99063220D01*
X108169819Y-99063220D02*
X108217438Y-98967982D01*
X108217438Y-98967982D02*
X108265057Y-98920363D01*
X108265057Y-98920363D02*
X108360295Y-98872744D01*
X108360295Y-98872744D02*
X108503152Y-98872744D01*
X108503152Y-98872744D02*
X108598390Y-98920363D01*
X108598390Y-98920363D02*
X108646009Y-98967982D01*
X108646009Y-98967982D02*
X108693628Y-99063220D01*
X108693628Y-99063220D02*
X108693628Y-99444172D01*
X85417438Y-101839411D02*
X85369819Y-101934649D01*
X85369819Y-101934649D02*
X85369819Y-102077506D01*
X85369819Y-102077506D02*
X85417438Y-102220363D01*
X85417438Y-102220363D02*
X85512676Y-102315601D01*
X85512676Y-102315601D02*
X85607914Y-102363220D01*
X85607914Y-102363220D02*
X85798390Y-102410839D01*
X85798390Y-102410839D02*
X85941247Y-102410839D01*
X85941247Y-102410839D02*
X86131723Y-102363220D01*
X86131723Y-102363220D02*
X86226961Y-102315601D01*
X86226961Y-102315601D02*
X86322200Y-102220363D01*
X86322200Y-102220363D02*
X86369819Y-102077506D01*
X86369819Y-102077506D02*
X86369819Y-101982268D01*
X86369819Y-101982268D02*
X86322200Y-101839411D01*
X86322200Y-101839411D02*
X86274580Y-101791792D01*
X86274580Y-101791792D02*
X85941247Y-101791792D01*
X85941247Y-101791792D02*
X85941247Y-101982268D01*
X86369819Y-101363220D02*
X85369819Y-101363220D01*
X85369819Y-101363220D02*
X86369819Y-100791792D01*
X86369819Y-100791792D02*
X85369819Y-100791792D01*
X86369819Y-100315601D02*
X85369819Y-100315601D01*
X85369819Y-100315601D02*
X85369819Y-100077506D01*
X85369819Y-100077506D02*
X85417438Y-99934649D01*
X85417438Y-99934649D02*
X85512676Y-99839411D01*
X85512676Y-99839411D02*
X85607914Y-99791792D01*
X85607914Y-99791792D02*
X85798390Y-99744173D01*
X85798390Y-99744173D02*
X85941247Y-99744173D01*
X85941247Y-99744173D02*
X86131723Y-99791792D01*
X86131723Y-99791792D02*
X86226961Y-99839411D01*
X86226961Y-99839411D02*
X86322200Y-99934649D01*
X86322200Y-99934649D02*
X86369819Y-100077506D01*
X86369819Y-100077506D02*
X86369819Y-100315601D01*
X77817438Y-101839411D02*
X77769819Y-101934649D01*
X77769819Y-101934649D02*
X77769819Y-102077506D01*
X77769819Y-102077506D02*
X77817438Y-102220363D01*
X77817438Y-102220363D02*
X77912676Y-102315601D01*
X77912676Y-102315601D02*
X78007914Y-102363220D01*
X78007914Y-102363220D02*
X78198390Y-102410839D01*
X78198390Y-102410839D02*
X78341247Y-102410839D01*
X78341247Y-102410839D02*
X78531723Y-102363220D01*
X78531723Y-102363220D02*
X78626961Y-102315601D01*
X78626961Y-102315601D02*
X78722200Y-102220363D01*
X78722200Y-102220363D02*
X78769819Y-102077506D01*
X78769819Y-102077506D02*
X78769819Y-101982268D01*
X78769819Y-101982268D02*
X78722200Y-101839411D01*
X78722200Y-101839411D02*
X78674580Y-101791792D01*
X78674580Y-101791792D02*
X78341247Y-101791792D01*
X78341247Y-101791792D02*
X78341247Y-101982268D01*
X78769819Y-101363220D02*
X77769819Y-101363220D01*
X77769819Y-101363220D02*
X78769819Y-100791792D01*
X78769819Y-100791792D02*
X77769819Y-100791792D01*
X78769819Y-100315601D02*
X77769819Y-100315601D01*
X77769819Y-100315601D02*
X77769819Y-100077506D01*
X77769819Y-100077506D02*
X77817438Y-99934649D01*
X77817438Y-99934649D02*
X77912676Y-99839411D01*
X77912676Y-99839411D02*
X78007914Y-99791792D01*
X78007914Y-99791792D02*
X78198390Y-99744173D01*
X78198390Y-99744173D02*
X78341247Y-99744173D01*
X78341247Y-99744173D02*
X78531723Y-99791792D01*
X78531723Y-99791792D02*
X78626961Y-99839411D01*
X78626961Y-99839411D02*
X78722200Y-99934649D01*
X78722200Y-99934649D02*
X78769819Y-100077506D01*
X78769819Y-100077506D02*
X78769819Y-100315601D01*
X93017438Y-101939411D02*
X92969819Y-102034649D01*
X92969819Y-102034649D02*
X92969819Y-102177506D01*
X92969819Y-102177506D02*
X93017438Y-102320363D01*
X93017438Y-102320363D02*
X93112676Y-102415601D01*
X93112676Y-102415601D02*
X93207914Y-102463220D01*
X93207914Y-102463220D02*
X93398390Y-102510839D01*
X93398390Y-102510839D02*
X93541247Y-102510839D01*
X93541247Y-102510839D02*
X93731723Y-102463220D01*
X93731723Y-102463220D02*
X93826961Y-102415601D01*
X93826961Y-102415601D02*
X93922200Y-102320363D01*
X93922200Y-102320363D02*
X93969819Y-102177506D01*
X93969819Y-102177506D02*
X93969819Y-102082268D01*
X93969819Y-102082268D02*
X93922200Y-101939411D01*
X93922200Y-101939411D02*
X93874580Y-101891792D01*
X93874580Y-101891792D02*
X93541247Y-101891792D01*
X93541247Y-101891792D02*
X93541247Y-102082268D01*
X93969819Y-101463220D02*
X92969819Y-101463220D01*
X92969819Y-101463220D02*
X93969819Y-100891792D01*
X93969819Y-100891792D02*
X92969819Y-100891792D01*
X93969819Y-100415601D02*
X92969819Y-100415601D01*
X92969819Y-100415601D02*
X92969819Y-100177506D01*
X92969819Y-100177506D02*
X93017438Y-100034649D01*
X93017438Y-100034649D02*
X93112676Y-99939411D01*
X93112676Y-99939411D02*
X93207914Y-99891792D01*
X93207914Y-99891792D02*
X93398390Y-99844173D01*
X93398390Y-99844173D02*
X93541247Y-99844173D01*
X93541247Y-99844173D02*
X93731723Y-99891792D01*
X93731723Y-99891792D02*
X93826961Y-99939411D01*
X93826961Y-99939411D02*
X93922200Y-100034649D01*
X93922200Y-100034649D02*
X93969819Y-100177506D01*
X93969819Y-100177506D02*
X93969819Y-100415601D01*
X104369819Y-102872744D02*
X104369819Y-102682268D01*
X104369819Y-102682268D02*
X104417438Y-102587030D01*
X104417438Y-102587030D02*
X104512676Y-102491792D01*
X104512676Y-102491792D02*
X104703152Y-102444173D01*
X104703152Y-102444173D02*
X105036485Y-102444173D01*
X105036485Y-102444173D02*
X105226961Y-102491792D01*
X105226961Y-102491792D02*
X105322200Y-102587030D01*
X105322200Y-102587030D02*
X105369819Y-102682268D01*
X105369819Y-102682268D02*
X105369819Y-102872744D01*
X105369819Y-102872744D02*
X105322200Y-102967982D01*
X105322200Y-102967982D02*
X105226961Y-103063220D01*
X105226961Y-103063220D02*
X105036485Y-103110839D01*
X105036485Y-103110839D02*
X104703152Y-103110839D01*
X104703152Y-103110839D02*
X104512676Y-103063220D01*
X104512676Y-103063220D02*
X104417438Y-102967982D01*
X104417438Y-102967982D02*
X104369819Y-102872744D01*
X104369819Y-102015601D02*
X105179342Y-102015601D01*
X105179342Y-102015601D02*
X105274580Y-101967982D01*
X105274580Y-101967982D02*
X105322200Y-101920363D01*
X105322200Y-101920363D02*
X105369819Y-101825125D01*
X105369819Y-101825125D02*
X105369819Y-101634649D01*
X105369819Y-101634649D02*
X105322200Y-101539411D01*
X105322200Y-101539411D02*
X105274580Y-101491792D01*
X105274580Y-101491792D02*
X105179342Y-101444173D01*
X105179342Y-101444173D02*
X104369819Y-101444173D01*
X104369819Y-101110839D02*
X104369819Y-100539411D01*
X105369819Y-100825125D02*
X104369819Y-100825125D01*
X105465057Y-100444173D02*
X105465057Y-99682268D01*
X105369819Y-98967982D02*
X105369819Y-99444172D01*
X105369819Y-99444172D02*
X104369819Y-99444172D01*
X85430952Y-97900057D02*
X85478571Y-97852438D01*
X85478571Y-97852438D02*
X85573809Y-97804819D01*
X85573809Y-97804819D02*
X85811904Y-97804819D01*
X85811904Y-97804819D02*
X85907142Y-97852438D01*
X85907142Y-97852438D02*
X85954761Y-97900057D01*
X85954761Y-97900057D02*
X86002380Y-97995295D01*
X86002380Y-97995295D02*
X86002380Y-98090533D01*
X86002380Y-98090533D02*
X85954761Y-98233390D01*
X85954761Y-98233390D02*
X85383333Y-98804819D01*
X85383333Y-98804819D02*
X86002380Y-98804819D01*
X86383333Y-97900057D02*
X86430952Y-97852438D01*
X86430952Y-97852438D02*
X86526190Y-97804819D01*
X86526190Y-97804819D02*
X86764285Y-97804819D01*
X86764285Y-97804819D02*
X86859523Y-97852438D01*
X86859523Y-97852438D02*
X86907142Y-97900057D01*
X86907142Y-97900057D02*
X86954761Y-97995295D01*
X86954761Y-97995295D02*
X86954761Y-98090533D01*
X86954761Y-98090533D02*
X86907142Y-98233390D01*
X86907142Y-98233390D02*
X86335714Y-98804819D01*
X86335714Y-98804819D02*
X86954761Y-98804819D01*
X87573809Y-97804819D02*
X87669047Y-97804819D01*
X87669047Y-97804819D02*
X87764285Y-97852438D01*
X87764285Y-97852438D02*
X87811904Y-97900057D01*
X87811904Y-97900057D02*
X87859523Y-97995295D01*
X87859523Y-97995295D02*
X87907142Y-98185771D01*
X87907142Y-98185771D02*
X87907142Y-98423866D01*
X87907142Y-98423866D02*
X87859523Y-98614342D01*
X87859523Y-98614342D02*
X87811904Y-98709580D01*
X87811904Y-98709580D02*
X87764285Y-98757200D01*
X87764285Y-98757200D02*
X87669047Y-98804819D01*
X87669047Y-98804819D02*
X87573809Y-98804819D01*
X87573809Y-98804819D02*
X87478571Y-98757200D01*
X87478571Y-98757200D02*
X87430952Y-98709580D01*
X87430952Y-98709580D02*
X87383333Y-98614342D01*
X87383333Y-98614342D02*
X87335714Y-98423866D01*
X87335714Y-98423866D02*
X87335714Y-98185771D01*
X87335714Y-98185771D02*
X87383333Y-97995295D01*
X87383333Y-97995295D02*
X87430952Y-97900057D01*
X87430952Y-97900057D02*
X87478571Y-97852438D01*
X87478571Y-97852438D02*
X87573809Y-97804819D01*
X88764285Y-98138152D02*
X88764285Y-98804819D01*
X88335714Y-98138152D02*
X88335714Y-98661961D01*
X88335714Y-98661961D02*
X88383333Y-98757200D01*
X88383333Y-98757200D02*
X88478571Y-98804819D01*
X88478571Y-98804819D02*
X88621428Y-98804819D01*
X88621428Y-98804819D02*
X88716666Y-98757200D01*
X88716666Y-98757200D02*
X88764285Y-98709580D01*
X89573809Y-98281009D02*
X89240476Y-98281009D01*
X89240476Y-98804819D02*
X89240476Y-97804819D01*
X89240476Y-97804819D02*
X89716666Y-97804819D01*
X77980952Y-97900057D02*
X78028571Y-97852438D01*
X78028571Y-97852438D02*
X78123809Y-97804819D01*
X78123809Y-97804819D02*
X78361904Y-97804819D01*
X78361904Y-97804819D02*
X78457142Y-97852438D01*
X78457142Y-97852438D02*
X78504761Y-97900057D01*
X78504761Y-97900057D02*
X78552380Y-97995295D01*
X78552380Y-97995295D02*
X78552380Y-98090533D01*
X78552380Y-98090533D02*
X78504761Y-98233390D01*
X78504761Y-98233390D02*
X77933333Y-98804819D01*
X77933333Y-98804819D02*
X78552380Y-98804819D01*
X78933333Y-97900057D02*
X78980952Y-97852438D01*
X78980952Y-97852438D02*
X79076190Y-97804819D01*
X79076190Y-97804819D02*
X79314285Y-97804819D01*
X79314285Y-97804819D02*
X79409523Y-97852438D01*
X79409523Y-97852438D02*
X79457142Y-97900057D01*
X79457142Y-97900057D02*
X79504761Y-97995295D01*
X79504761Y-97995295D02*
X79504761Y-98090533D01*
X79504761Y-98090533D02*
X79457142Y-98233390D01*
X79457142Y-98233390D02*
X78885714Y-98804819D01*
X78885714Y-98804819D02*
X79504761Y-98804819D01*
X80123809Y-97804819D02*
X80219047Y-97804819D01*
X80219047Y-97804819D02*
X80314285Y-97852438D01*
X80314285Y-97852438D02*
X80361904Y-97900057D01*
X80361904Y-97900057D02*
X80409523Y-97995295D01*
X80409523Y-97995295D02*
X80457142Y-98185771D01*
X80457142Y-98185771D02*
X80457142Y-98423866D01*
X80457142Y-98423866D02*
X80409523Y-98614342D01*
X80409523Y-98614342D02*
X80361904Y-98709580D01*
X80361904Y-98709580D02*
X80314285Y-98757200D01*
X80314285Y-98757200D02*
X80219047Y-98804819D01*
X80219047Y-98804819D02*
X80123809Y-98804819D01*
X80123809Y-98804819D02*
X80028571Y-98757200D01*
X80028571Y-98757200D02*
X79980952Y-98709580D01*
X79980952Y-98709580D02*
X79933333Y-98614342D01*
X79933333Y-98614342D02*
X79885714Y-98423866D01*
X79885714Y-98423866D02*
X79885714Y-98185771D01*
X79885714Y-98185771D02*
X79933333Y-97995295D01*
X79933333Y-97995295D02*
X79980952Y-97900057D01*
X79980952Y-97900057D02*
X80028571Y-97852438D01*
X80028571Y-97852438D02*
X80123809Y-97804819D01*
X81314285Y-98138152D02*
X81314285Y-98804819D01*
X80885714Y-98138152D02*
X80885714Y-98661961D01*
X80885714Y-98661961D02*
X80933333Y-98757200D01*
X80933333Y-98757200D02*
X81028571Y-98804819D01*
X81028571Y-98804819D02*
X81171428Y-98804819D01*
X81171428Y-98804819D02*
X81266666Y-98757200D01*
X81266666Y-98757200D02*
X81314285Y-98709580D01*
X82123809Y-98281009D02*
X81790476Y-98281009D01*
X81790476Y-98804819D02*
X81790476Y-97804819D01*
X81790476Y-97804819D02*
X82266666Y-97804819D01*
X99874786Y-85231952D02*
X99866867Y-85338137D01*
X99866867Y-85338137D02*
X99921075Y-85470310D01*
X99921075Y-85470310D02*
X100019341Y-85584413D01*
X100019341Y-85584413D02*
X100143595Y-85636390D01*
X100143595Y-85636390D02*
X100249779Y-85644308D01*
X100249779Y-85644308D02*
X100444079Y-85616089D01*
X100444079Y-85616089D02*
X100576252Y-85561881D01*
X100576252Y-85561881D02*
X100734413Y-85445546D01*
X100734413Y-85445546D02*
X100804459Y-85365349D01*
X100804459Y-85365349D02*
X100856435Y-85241096D01*
X100856435Y-85241096D02*
X100846285Y-85090853D01*
X100846285Y-85090853D02*
X100810146Y-85002738D01*
X100810146Y-85002738D02*
X100711881Y-84888635D01*
X100711881Y-84888635D02*
X100649754Y-84862646D01*
X100649754Y-84862646D02*
X100341350Y-84989132D01*
X100341350Y-84989132D02*
X100413628Y-85165362D01*
X102644816Y-91985982D02*
X102636897Y-92092167D01*
X102636897Y-92092167D02*
X102691105Y-92224340D01*
X102691105Y-92224340D02*
X102789371Y-92338443D01*
X102789371Y-92338443D02*
X102913625Y-92390420D01*
X102913625Y-92390420D02*
X103019809Y-92398338D01*
X103019809Y-92398338D02*
X103214109Y-92370119D01*
X103214109Y-92370119D02*
X103346282Y-92315911D01*
X103346282Y-92315911D02*
X103504443Y-92199576D01*
X103504443Y-92199576D02*
X103574489Y-92119379D01*
X103574489Y-92119379D02*
X103626465Y-91995126D01*
X103626465Y-91995126D02*
X103616315Y-91844883D01*
X103616315Y-91844883D02*
X103580176Y-91756768D01*
X103580176Y-91756768D02*
X103481911Y-91642665D01*
X103481911Y-91642665D02*
X103419784Y-91616676D01*
X103419784Y-91616676D02*
X103111380Y-91743162D01*
X103111380Y-91743162D02*
X103183658Y-91919392D01*
X103345275Y-91184019D02*
X102420065Y-91563475D01*
X102420065Y-91563475D02*
X103128443Y-90655328D01*
X103128443Y-90655328D02*
X102203233Y-91034784D01*
X102947749Y-90214752D02*
X102022540Y-90594208D01*
X102022540Y-90594208D02*
X101932193Y-90373920D01*
X101932193Y-90373920D02*
X101922042Y-90223678D01*
X101922042Y-90223678D02*
X101974019Y-90099424D01*
X101974019Y-90099424D02*
X102044065Y-90019228D01*
X102044065Y-90019228D02*
X102202226Y-89902893D01*
X102202226Y-89902893D02*
X102334399Y-89848685D01*
X102334399Y-89848685D02*
X102528698Y-89820465D01*
X102528698Y-89820465D02*
X102634883Y-89828384D01*
X102634883Y-89828384D02*
X102759137Y-89880361D01*
X102759137Y-89880361D02*
X102857403Y-89994464D01*
X102857403Y-89994464D02*
X102947749Y-90214752D01*
X101557841Y-88206229D02*
X101547690Y-88055986D01*
X101547690Y-88055986D02*
X101573679Y-87993859D01*
X101573679Y-87993859D02*
X101643725Y-87913663D01*
X101643725Y-87913663D02*
X101775897Y-87859455D01*
X101775897Y-87859455D02*
X101882082Y-87867374D01*
X101882082Y-87867374D02*
X101944209Y-87893362D01*
X101944209Y-87893362D02*
X102024405Y-87963408D01*
X102024405Y-87963408D02*
X102168960Y-88315869D01*
X102168960Y-88315869D02*
X101243750Y-88695325D01*
X101243750Y-88695325D02*
X101117265Y-88386922D01*
X101117265Y-88386922D02*
X101125184Y-88280737D01*
X101125184Y-88280737D02*
X101151172Y-88218610D01*
X101151172Y-88218610D02*
X101221218Y-88138414D01*
X101221218Y-88138414D02*
X101309333Y-88102275D01*
X101309333Y-88102275D02*
X101415518Y-88110194D01*
X101415518Y-88110194D02*
X101477645Y-88136183D01*
X101477645Y-88136183D02*
X101557841Y-88206229D01*
X101557841Y-88206229D02*
X101684326Y-88514632D01*
X99616131Y-81827890D02*
X99302040Y-82316986D01*
X99832963Y-82356581D02*
X98907753Y-82736037D01*
X98907753Y-82736037D02*
X98763198Y-82383576D01*
X98763198Y-82383576D02*
X98771117Y-82277392D01*
X98771117Y-82277392D02*
X98797106Y-82215265D01*
X98797106Y-82215265D02*
X98867151Y-82135069D01*
X98867151Y-82135069D02*
X98999324Y-82080861D01*
X98999324Y-82080861D02*
X99105509Y-82088779D01*
X99105509Y-82088779D02*
X99167636Y-82114768D01*
X99167636Y-82114768D02*
X99247832Y-82184814D01*
X99247832Y-82184814D02*
X99392387Y-82537274D01*
X92830952Y-97900057D02*
X92878571Y-97852438D01*
X92878571Y-97852438D02*
X92973809Y-97804819D01*
X92973809Y-97804819D02*
X93211904Y-97804819D01*
X93211904Y-97804819D02*
X93307142Y-97852438D01*
X93307142Y-97852438D02*
X93354761Y-97900057D01*
X93354761Y-97900057D02*
X93402380Y-97995295D01*
X93402380Y-97995295D02*
X93402380Y-98090533D01*
X93402380Y-98090533D02*
X93354761Y-98233390D01*
X93354761Y-98233390D02*
X92783333Y-98804819D01*
X92783333Y-98804819D02*
X93402380Y-98804819D01*
X93783333Y-97900057D02*
X93830952Y-97852438D01*
X93830952Y-97852438D02*
X93926190Y-97804819D01*
X93926190Y-97804819D02*
X94164285Y-97804819D01*
X94164285Y-97804819D02*
X94259523Y-97852438D01*
X94259523Y-97852438D02*
X94307142Y-97900057D01*
X94307142Y-97900057D02*
X94354761Y-97995295D01*
X94354761Y-97995295D02*
X94354761Y-98090533D01*
X94354761Y-98090533D02*
X94307142Y-98233390D01*
X94307142Y-98233390D02*
X93735714Y-98804819D01*
X93735714Y-98804819D02*
X94354761Y-98804819D01*
X94973809Y-97804819D02*
X95069047Y-97804819D01*
X95069047Y-97804819D02*
X95164285Y-97852438D01*
X95164285Y-97852438D02*
X95211904Y-97900057D01*
X95211904Y-97900057D02*
X95259523Y-97995295D01*
X95259523Y-97995295D02*
X95307142Y-98185771D01*
X95307142Y-98185771D02*
X95307142Y-98423866D01*
X95307142Y-98423866D02*
X95259523Y-98614342D01*
X95259523Y-98614342D02*
X95211904Y-98709580D01*
X95211904Y-98709580D02*
X95164285Y-98757200D01*
X95164285Y-98757200D02*
X95069047Y-98804819D01*
X95069047Y-98804819D02*
X94973809Y-98804819D01*
X94973809Y-98804819D02*
X94878571Y-98757200D01*
X94878571Y-98757200D02*
X94830952Y-98709580D01*
X94830952Y-98709580D02*
X94783333Y-98614342D01*
X94783333Y-98614342D02*
X94735714Y-98423866D01*
X94735714Y-98423866D02*
X94735714Y-98185771D01*
X94735714Y-98185771D02*
X94783333Y-97995295D01*
X94783333Y-97995295D02*
X94830952Y-97900057D01*
X94830952Y-97900057D02*
X94878571Y-97852438D01*
X94878571Y-97852438D02*
X94973809Y-97804819D01*
X96164285Y-98138152D02*
X96164285Y-98804819D01*
X95735714Y-98138152D02*
X95735714Y-98661961D01*
X95735714Y-98661961D02*
X95783333Y-98757200D01*
X95783333Y-98757200D02*
X95878571Y-98804819D01*
X95878571Y-98804819D02*
X96021428Y-98804819D01*
X96021428Y-98804819D02*
X96116666Y-98757200D01*
X96116666Y-98757200D02*
X96164285Y-98709580D01*
X96973809Y-98281009D02*
X96640476Y-98281009D01*
X96640476Y-98804819D02*
X96640476Y-97804819D01*
X96640476Y-97804819D02*
X97116666Y-97804819D01*
D12*
%TO.C,C2*%
X87490000Y-91554437D02*
X87490000Y-97310000D01*
X87490000Y-97310000D02*
X89840000Y-97310000D01*
X88554437Y-90490000D02*
X87490000Y-91554437D01*
X88554437Y-90490000D02*
X89840000Y-90490000D01*
X92747500Y-89462500D02*
X92747500Y-90250000D01*
X93141250Y-89856250D02*
X92353750Y-89856250D01*
X93245563Y-90490000D02*
X91960000Y-90490000D01*
X93245563Y-90490000D02*
X94310000Y-91554437D01*
X94310000Y-91554437D02*
X94310000Y-97310000D01*
X94310000Y-97310000D02*
X91960000Y-97310000D01*
%TO.C,C1*%
X80090000Y-91554437D02*
X80090000Y-97310000D01*
X80090000Y-97310000D02*
X82440000Y-97310000D01*
X81154437Y-90490000D02*
X80090000Y-91554437D01*
X81154437Y-90490000D02*
X82440000Y-90490000D01*
X85347500Y-89462500D02*
X85347500Y-90250000D01*
X85741250Y-89856250D02*
X84953750Y-89856250D01*
X85845563Y-90490000D02*
X84560000Y-90490000D01*
X85845563Y-90490000D02*
X86910000Y-91554437D01*
X86910000Y-91554437D02*
X86910000Y-97310000D01*
X86910000Y-97310000D02*
X84560000Y-97310000D01*
%TO.C,C3*%
X94990000Y-91554437D02*
X94990000Y-97310000D01*
X94990000Y-97310000D02*
X97340000Y-97310000D01*
X96054437Y-90490000D02*
X94990000Y-91554437D01*
X96054437Y-90490000D02*
X97340000Y-90490000D01*
X100247500Y-89462500D02*
X100247500Y-90250000D01*
X100641250Y-89856250D02*
X99853750Y-89856250D01*
X100745563Y-90490000D02*
X99460000Y-90490000D01*
X100745563Y-90490000D02*
X101810000Y-91554437D01*
X101810000Y-91554437D02*
X101810000Y-97310000D01*
X101810000Y-97310000D02*
X99460000Y-97310000D01*
%TD*%
M02*
